<?xml version="1.0" encoding="UTF-8" standalone="no" ?>
<!DOCTYPE svg PUBLIC "-//W3C//DTD SVG 1.1//EN" "http://www.w3.org/Graphics/SVG/1.1/DTD/svg11.dtd">
<svg xmlns="http://www.w3.org/2000/svg" xmlns:xlink="http://www.w3.org/1999/xlink" version="1.1" width="1080" height="1080" viewBox="0 0 1080 1080" xml:space="preserve">
<desc>Created with Fabric.js 5.2.4</desc>
<defs>
</defs>
<g transform="matrix(1 0 0 1 540 540)" id="98558dd2-b576-4439-ba5d-03958dbc9070"  >
<rect style="stroke: none; stroke-width: 1; stroke-dasharray: none; stroke-linecap: butt; stroke-dashoffset: 0; stroke-linejoin: miter; stroke-miterlimit: 4; fill: rgb(255,255,255); fill-rule: nonzero; opacity: 1; visibility: hidden;" vector-effect="non-scaling-stroke"  x="-540" y="-540" rx="0" ry="0" width="1080" height="1080" />
</g>
<g transform="matrix(1 0 0 1 540 540)" id="5a24c91a-1043-467e-94dd-b51477866f5f"  >
</g>
<g transform="matrix(1 0 0 1 540 576.53)"  >
<g style="" vector-effect="non-scaling-stroke"   >
		<g transform="matrix(0.13 0 0 -0.13 -384.72 -882.07)"  >
<path style="stroke: none; stroke-width: 1; stroke-dasharray: none; stroke-linecap: butt; stroke-dashoffset: 0; stroke-linejoin: miter; stroke-miterlimit: 4; fill: rgb(189,0,0); fill-rule: nonzero; opacity: 1;" vector-effect="non-scaling-stroke"  transform=" translate(-5449.63, -14883.91)" d="M 5395 15710 C 5218 15682 5080 15588 4996 15438 C 4891 15250 4808 14833 4823 14570 C 4841 14270 4953 14104 5170 14059 C 5207 14051 5291 14049 5425 14053 C 5611 14059 5709 14071 5807 14100 L 5846 14112 L 5859 14199 C 5865 14246 5873 14301 5876 14320 L 5882 14356 L 5793 14348 C 5745 14344 5617 14339 5510 14337 C 5340 14335 5310 14337 5275 14353 C 5140 14414 5106 14545 5149 14841 C 5201 15200 5284 15378 5418 15418 C 5474 15435 5704 15433 5875 15414 C 5955 15405 6027 15400 6033 15403 C 6041 15406 6051 15447 6059 15501 C 6066 15553 6074 15605 6077 15617 C 6081 15636 6075 15641 6028 15655 C 5874 15701 5531 15731 5395 15710 z" stroke-linecap="round" />
</g>
		<g transform="matrix(0.13 0 0 -0.13 -262.88 -966.88)"  >
<path style="stroke: none; stroke-width: 1; stroke-dasharray: none; stroke-linecap: butt; stroke-dashoffset: 0; stroke-linejoin: miter; stroke-miterlimit: 4; fill: rgb(189,0,0); fill-rule: nonzero; opacity: 1;" vector-effect="non-scaling-stroke"  transform=" translate(-6363.4, -15520)" d="M 6231 15656 C 6222 15645 6187 15469 6180 15403 C 6180 15402 6187 15394 6196 15386 C 6208 15373 6237 15370 6349 15370 C 6468 15370 6489 15372 6503 15388 C 6521 15408 6555 15619 6545 15650 C 6539 15669 6529 15670 6391 15670 C 6274 15670 6240 15667 6231 15656 z" stroke-linecap="round" />
</g>
		<g transform="matrix(0.13 0 0 -0.13 -168.07 -853.32)"  >
<path style="stroke: none; stroke-width: 1; stroke-dasharray: none; stroke-linecap: butt; stroke-dashoffset: 0; stroke-linejoin: miter; stroke-miterlimit: 4; fill: rgb(189,0,0); fill-rule: nonzero; opacity: 1;" vector-effect="non-scaling-stroke"  transform=" translate(-7074.5, -14668.32)" d="M 7270 15264 C 7206 15251 7117 15216 7049 15175 C 7008 15151 6972 15134 6969 15138 C 6965 15142 6955 15169 6945 15198 L 6928 15250 L 6804 15250 C 6684 15250 6680 15249 6675 15228 C 6672 15215 6632 14960 6585 14660 C 6538 14360 6497 14105 6495 14092 L 6489 14069 L 6647 14072 L 6804 14075 L 6870 14490 C 6906 14718 6939 14910 6943 14917 C 6947 14923 6974 14942 7003 14959 C 7101 15015 7239 15036 7300 15005 C 7359 14975 7358 14959 7286 14501 C 7250 14273 7220 14083 7220 14078 C 7220 14074 7290 14070 7375 14070 L 7529 14070 L 7535 14103 C 7538 14120 7567 14305 7600 14512 C 7662 14901 7672 15023 7648 15102 C 7632 15155 7570 15224 7518 15245 C 7475 15262 7323 15274 7270 15264 z" stroke-linecap="round" />
</g>
		<g transform="matrix(0.13 0 0 -0.13 -4.15 -852.14)"  >
<path style="stroke: none; stroke-width: 1; stroke-dasharray: none; stroke-linecap: butt; stroke-dashoffset: 0; stroke-linejoin: miter; stroke-miterlimit: 4; fill: rgb(189,0,0); fill-rule: nonzero; opacity: 1;" vector-effect="non-scaling-stroke"  transform=" translate(-8303.86, -14659.44)" d="M 8195 15254 C 7987 15217 7875 15104 7815 14868 C 7735 14552 7743 14285 7836 14163 C 7873 14115 7942 14073 8009 14059 C 8099 14041 8441 14053 8564 14080 C 8619 14091 8671 14105 8680 14110 C 8692 14117 8702 14149 8714 14225 C 8724 14284 8730 14333 8728 14334 C 8727 14336 8687 14331 8640 14324 C 8517 14304 8215 14295 8164 14309 C 8142 14315 8113 14331 8099 14346 C 8078 14368 8075 14381 8075 14443 L 8075 14515 L 8105 14513 C 8288 14499 8411 14499 8480 14514 C 8685 14557 8808 14680 8840 14873 C 8869 15042 8814 15164 8682 15223 C 8579 15268 8355 15282 8195 15254 z M 8463 15009 C 8513 14995 8534 14962 8528 14906 C 8520 14839 8488 14795 8422 14763 C 8370 14738 8353 14735 8238 14731 L 8110 14728 L 8110 14751 C 8110 14784 8134 14869 8153 14905 C 8175 14948 8222 14989 8266 15005 C 8313 15022 8411 15024 8463 15009 z" stroke-linecap="round" />
</g>
		<g transform="matrix(0.13 0 0 -0.13 198.85 -853.52)"  >
<path style="stroke: none; stroke-width: 1; stroke-dasharray: none; stroke-linecap: butt; stroke-dashoffset: 0; stroke-linejoin: miter; stroke-miterlimit: 4; fill: rgb(189,0,0); fill-rule: nonzero; opacity: 1;" vector-effect="non-scaling-stroke"  transform=" translate(-9826.37, -14669.85)" d="M 9615 15257 C 9562 15243 9461 15195 9402 15155 C 9382 15141 9363 15134 9359 15138 C 9355 15142 9345 15169 9335 15198 L 9318 15250 L 9194 15250 C 9074 15250 9070 15249 9065 15228 C 9062 15215 9022 14962 8975 14665 C 8928 14368 8887 14113 8884 14097 L 8878 14069 L 9036 14072 L 9195 14075 L 9260 14495 L 9326 14914 L 9364 14942 C 9419 14982 9505 15011 9585 15017 C 9651 15022 9658 15021 9687 14996 C 9707 14979 9722 14956 9726 14935 C 9731 14908 9630 14208 9605 14093 L 9600 14070 L 9758 14070 L 9916 14070 L 9983 14498 C 10036 14838 10054 14928 10068 14939 C 10125 14984 10247 15020 10341 15020 C 10402 15020 10448 14984 10456 14930 C 10460 14902 10363 14238 10334 14098 L 10328 14070 L 10487 14070 L 10645 14070 L 10710 14478 C 10784 14944 10790 15030 10751 15118 C 10664 15314 10376 15322 10066 15138 C 10035 15120 10026 15118 10022 15129 C 10012 15158 9947 15220 9903 15241 C 9847 15268 9693 15277 9615 15257 z" stroke-linecap="round" />
</g>
		<g transform="matrix(0.13 0 0 -0.13 414.51 -852)"  >
<path style="stroke: none; stroke-width: 1; stroke-dasharray: none; stroke-linecap: butt; stroke-dashoffset: 0; stroke-linejoin: miter; stroke-miterlimit: 4; fill: rgb(189,0,0); fill-rule: nonzero; opacity: 1;" vector-effect="non-scaling-stroke"  transform=" translate(-11443.79, -14658.41)" d="M 11370 15259 C 11104 15225 10963 15057 10894 14695 C 10868 14561 10870 14383 10897 14295 C 10949 14129 11052 14050 11214 14050 C 11325 14050 11470 14098 11539 14156 L 11568 14180 L 11586 14133 C 11613 14058 11610 14060 11737 14060 C 11819 14060 11852 14063 11855 14073 C 11857 14079 11894 14319 11935 14605 L 12012 15125 L 11978 15153 C 11877 15237 11590 15287 11370 15259 z M 11625 15006 C 11673 14995 11675 14993 11672 14965 C 11670 14948 11651 14821 11631 14682 C 11589 14401 11591 14405 11501 14356 C 11443 14325 11335 14307 11285 14321 C 11209 14342 11185 14404 11193 14550 C 11204 14729 11248 14877 11309 14943 C 11373 15011 11497 15036 11625 15006 z" stroke-linecap="round" />
</g>
		<g transform="matrix(0.13 0 0 -0.13 -280.67 -852.14)"  >
<path style="stroke: none; stroke-width: 1; stroke-dasharray: none; stroke-linecap: butt; stroke-dashoffset: 0; stroke-linejoin: miter; stroke-miterlimit: 4; fill: rgb(189,0,0); fill-rule: nonzero; opacity: 1;" vector-effect="non-scaling-stroke"  transform=" translate(-6230, -14659.5)" d="M 6165 15228 C 6163 15215 6122 14960 6075 14660 C 6028 14360 5988 14105 5985 14092 L 5979 14069 L 6137 14072 L 6294 14075 L 6381 14630 C 6429 14935 6472 15200 6475 15218 L 6481 15250 L 6326 15250 C 6173 15250 6170 15250 6165 15228 z" stroke-linecap="round" />
</g>
		<g transform="matrix(0.13 0 0 -0.13 -855.35 -802.21)"  >
<path style="stroke: none; stroke-width: 1; stroke-dasharray: none; stroke-linecap: butt; stroke-dashoffset: 0; stroke-linejoin: miter; stroke-miterlimit: 4; fill: rgb(189,0,0); fill-rule: nonzero; opacity: 1;" vector-effect="non-scaling-stroke"  transform=" translate(-1919.88, -14285)" d="M 0 14285 L 0 13690 L 1913 13690 L 3827 13690 L 3833 13857 C 3842 14070 3842 14486 3833 14708 L 3827 14880 L 1913 14880 L 0 14880 L 0 14285 z M 230 14661 C 230 14606 222 14601 153 14609 C 121 14612 120 14613 120 14661 L 120 14710 L 175 14710 L 230 14710 L 230 14661 z M 540 14660 L 540 14610 L 490 14610 L 440 14610 L 440 14660 L 440 14710 L 490 14710 L 540 14710 L 540 14660 z M 860 14660 L 860 14610 L 805 14610 L 750 14610 L 750 14660 L 750 14710 L 805 14710 L 860 14710 L 860 14660 z M 1170 14660 L 1170 14610 L 1115 14610 L 1060 14610 L 1060 14660 L 1060 14710 L 1115 14710 L 1170 14710 L 1170 14660 z M 1480 14658 L 1480 14605 L 1425 14608 L 1370 14612 L 1370 14661 L 1370 14710 L 1425 14710 L 1480 14710 L 1480 14658 z M 1790 14661 L 1790 14612 L 1744 14608 C 1719 14606 1697 14607 1694 14609 C 1692 14611 1690 14635 1690 14662 L 1690 14710 L 1740 14710 L 1790 14710 L 1790 14661 z M 2110 14660 L 2110 14610 L 2055 14610 L 2000 14610 L 2000 14660 L 2000 14710 L 2055 14710 L 2110 14710 L 2110 14660 z M 2420 14660 L 2420 14610 L 2365 14610 L 2310 14610 L 2310 14660 L 2310 14710 L 2365 14710 L 2420 14710 L 2420 14660 z M 2730 14660 L 2730 14610 L 2675 14610 L 2620 14610 L 2620 14660 L 2620 14710 L 2675 14710 L 2730 14710 L 2730 14660 z M 3040 14660 L 3040 14610 L 2990 14610 L 2940 14610 L 2940 14660 L 2940 14710 L 2990 14710 L 3040 14710 L 3040 14660 z M 3360 14660 L 3360 14610 L 3305 14610 L 3250 14610 L 3250 14660 L 3250 14710 L 3305 14710 L 3360 14710 L 3360 14660 z M 3670 14660 L 3670 14610 L 3615 14610 L 3560 14610 L 3560 14660 L 3560 14710 L 3615 14710 L 3670 14710 L 3670 14660 z M 230 13884 L 230 13829 L 178 13832 L 125 13835 L 122 13888 L 119 13940 L 174 13940 L 230 13940 L 230 13884 z M 540 13885 L 540 13830 L 490 13830 L 440 13830 L 440 13885 L 440 13940 L 490 13940 L 540 13940 L 540 13885 z M 858 13888 L 855 13835 L 803 13832 L 750 13829 L 750 13884 L 750 13940 L 806 13940 L 861 13940 L 858 13888 z M 1168 13888 L 1165 13835 L 1115 13835 L 1065 13835 L 1062 13888 L 1059 13940 L 1115 13940 L 1171 13940 L 1168 13888 z M 1480 13884 L 1480 13829 L 1428 13832 L 1375 13835 L 1372 13888 L 1369 13940 L 1424 13940 L 1480 13940 L 1480 13884 z M 1790 13885 L 1790 13830 L 1740 13830 L 1690 13830 L 1690 13885 L 1690 13940 L 1740 13940 L 1790 13940 L 1790 13885 z M 2108 13888 L 2105 13835 L 2053 13832 L 2000 13829 L 2000 13884 L 2000 13940 L 2056 13940 L 2111 13940 L 2108 13888 z M 2418 13888 L 2415 13835 L 2365 13835 L 2315 13835 L 2312 13888 L 2309 13940 L 2365 13940 L 2421 13940 L 2418 13888 z M 2730 13884 L 2730 13829 L 2678 13832 L 2625 13835 L 2622 13888 L 2619 13940 L 2674 13940 L 2730 13940 L 2730 13884 z M 3040 13885 L 3040 13830 L 2990 13830 L 2940 13830 L 2940 13885 L 2940 13940 L 2990 13940 L 3040 13940 L 3040 13885 z M 3358 13888 L 3355 13835 L 3303 13832 L 3250 13829 L 3250 13884 L 3250 13940 L 3306 13940 L 3361 13940 L 3358 13888 z M 3668 13888 L 3665 13835 L 3615 13835 L 3565 13835 L 3562 13888 L 3559 13940 L 3615 13940 L 3671 13940 L 3668 13888 z" stroke-linecap="round" />
</g>
		<g transform="matrix(0.13 0 0 -0.13 855.33 -802.21)"  >
<path style="stroke: none; stroke-width: 1; stroke-dasharray: none; stroke-linecap: butt; stroke-dashoffset: 0; stroke-linejoin: miter; stroke-miterlimit: 4; fill: rgb(189,0,0); fill-rule: nonzero; opacity: 1;" vector-effect="non-scaling-stroke"  transform=" translate(-14750, -14285)" d="M 12830 14285 L 12830 13690 L 14750 13690 L 16670 13690 L 16670 14285 L 16670 14880 L 14750 14880 L 12830 14880 L 12830 14285 z M 13070 14660 L 13070 14610 L 13015 14610 L 12960 14610 L 12960 14660 L 12960 14710 L 13015 14710 L 13070 14710 L 13070 14660 z M 13380 14660 L 13380 14610 L 13325 14610 L 13270 14610 L 13270 14660 L 13270 14710 L 13325 14710 L 13380 14710 L 13380 14660 z M 13690 14660 L 13690 14610 L 13635 14610 L 13580 14610 L 13580 14660 L 13580 14710 L 13635 14710 L 13690 14710 L 13690 14660 z M 14000 14660 L 14000 14610 L 13945 14610 L 13890 14610 L 13890 14660 L 13890 14710 L 13945 14710 L 14000 14710 L 14000 14660 z M 14320 14660 L 14320 14610 L 14263 14610 L 14205 14610 L 14208 14660 L 14212 14710 L 14266 14710 L 14320 14710 L 14320 14660 z M 14630 14661 L 14630 14612 L 14575 14608 L 14520 14605 L 14520 14658 L 14520 14710 L 14575 14710 L 14630 14710 L 14630 14661 z M 14940 14660 L 14940 14610 L 14885 14610 L 14830 14610 L 14830 14660 L 14830 14710 L 14885 14710 L 14940 14710 L 14940 14660 z M 15250 14661 L 15250 14612 L 15212 14608 C 15145 14602 15140 14606 15140 14661 L 15140 14710 L 15195 14710 L 15250 14710 L 15250 14661 z M 15570 14662 C 15570 14635 15568 14611 15566 14609 C 15564 14607 15539 14607 15511 14608 L 15460 14612 L 15460 14661 L 15460 14710 L 15515 14710 L 15570 14710 L 15570 14662 z M 15880 14660 L 15880 14610 L 15825 14610 L 15770 14610 L 15770 14660 L 15770 14710 L 15825 14710 L 15880 14710 L 15880 14660 z M 16190 14660 L 16190 14610 L 16135 14610 L 16080 14610 L 16080 14660 L 16080 14710 L 16135 14710 L 16190 14710 L 16190 14660 z M 16500 14660 L 16500 14610 L 16445 14610 L 16390 14610 L 16390 14660 L 16390 14710 L 16445 14710 L 16500 14710 L 16500 14660 z M 13068 13888 L 13065 13835 L 13013 13832 L 12960 13829 L 12960 13884 L 12960 13940 L 13016 13940 L 13071 13940 L 13068 13888 z M 13378 13888 L 13375 13835 L 13323 13832 L 13270 13829 L 13270 13884 L 13270 13940 L 13326 13940 L 13381 13940 L 13378 13888 z M 13690 13884 L 13690 13829 L 13638 13832 L 13585 13835 L 13582 13888 L 13579 13940 L 13634 13940 L 13690 13940 L 13690 13884 z M 14000 13884 L 14000 13829 L 13948 13832 L 13895 13835 L 13892 13888 L 13889 13940 L 13944 13940 L 14000 13940 L 14000 13884 z M 14318 13888 L 14315 13835 L 14263 13832 L 14210 13829 L 14210 13884 L 14210 13940 L 14266 13940 L 14321 13940 L 14318 13888 z M 14628 13888 L 14625 13835 L 14573 13832 L 14520 13829 L 14520 13884 L 14520 13940 L 14576 13940 L 14631 13940 L 14628 13888 z M 14940 13884 L 14940 13829 L 14888 13832 L 14835 13835 L 14832 13888 L 14829 13940 L 14884 13940 L 14940 13940 L 14940 13884 z M 15250 13884 L 15250 13829 L 15198 13832 L 15145 13835 L 15142 13888 L 15139 13940 L 15194 13940 L 15250 13940 L 15250 13884 z M 15568 13888 L 15565 13835 L 15513 13832 L 15460 13829 L 15460 13884 L 15460 13940 L 15516 13940 L 15571 13940 L 15568 13888 z M 15878 13888 L 15875 13835 L 15823 13832 L 15770 13829 L 15770 13884 L 15770 13940 L 15826 13940 L 15881 13940 L 15878 13888 z M 16190 13884 L 16190 13829 L 16138 13832 L 16085 13835 L 16082 13888 L 16079 13940 L 16134 13940 L 16190 13940 L 16190 13884 z M 16500 13884 L 16500 13829 L 16448 13832 L 16395 13835 L 16392 13888 L 16389 13940 L 16444 13940 L 16500 13940 L 16500 13884 z" stroke-linecap="round" />
</g>
		<g transform="matrix(0.13 0 0 -0.13 -369.22 -713.66)"  >
<path style="stroke: none; stroke-width: 1; stroke-dasharray: none; stroke-linecap: butt; stroke-dashoffset: 0; stroke-linejoin: miter; stroke-miterlimit: 4; fill: rgb(189,0,0); fill-rule: nonzero; opacity: 1;" vector-effect="non-scaling-stroke"  transform=" translate(-5565.89, -13620.86)" d="M 5493 13824 C 5450 13802 5429 13752 5423 13655 C 5414 13516 5455 13421 5532 13405 C 5549 13401 5596 13401 5636 13405 C 5704 13411 5710 13414 5710 13434 C 5710 13455 5707 13456 5650 13452 C 5561 13445 5522 13456 5500 13492 C 5460 13559 5466 13736 5511 13773 C 5528 13786 5551 13790 5621 13790 C 5701 13790 5710 13792 5710 13809 C 5710 13823 5700 13829 5664 13834 C 5588 13844 5527 13841 5493 13824 z" stroke-linecap="round" />
</g>
		<g transform="matrix(0.13 0 0 -0.13 -283.67 -713.45)"  >
<path style="stroke: none; stroke-width: 1; stroke-dasharray: none; stroke-linecap: butt; stroke-dashoffset: 0; stroke-linejoin: miter; stroke-miterlimit: 4; fill: rgb(189,0,0); fill-rule: nonzero; opacity: 1;" vector-effect="non-scaling-stroke"  transform=" translate(-6207.46, -13619.27)" d="M 6119 13825 C 6060 13799 6046 13762 6042 13630 C 6039 13526 6041 13511 6062 13470 C 6091 13414 6135 13396 6227 13403 C 6346 13412 6374 13453 6374 13615 C 6375 13788 6346 13830 6222 13836 C 6177 13839 6144 13835 6119 13825 z M 6274 13779 C 6315 13760 6337 13666 6324 13564 C 6315 13488 6289 13459 6224 13453 C 6122 13443 6090 13482 6090 13620 C 6090 13712 6108 13766 6142 13780 C 6174 13793 6245 13792 6274 13779 z" stroke-linecap="round" />
</g>
		<g transform="matrix(0.13 0 0 -0.13 -194 -713.41)"  >
<path style="stroke: none; stroke-width: 1; stroke-dasharray: none; stroke-linecap: butt; stroke-dashoffset: 0; stroke-linejoin: miter; stroke-miterlimit: 4; fill: rgb(189,0,0); fill-rule: nonzero; opacity: 1;" vector-effect="non-scaling-stroke"  transform=" translate(-6880, -13619)" d="M 6750 13636 C 6750 13459 6752 13431 6767 13419 C 6778 13409 6819 13404 6897 13402 L 7010 13398 L 7010 13424 C 7010 13449 7010 13449 6908 13452 L 6805 13455 L 6802 13648 L 6800 13840 L 6775 13840 L 6750 13840 L 6750 13636 z" stroke-linecap="round" />
</g>
		<g transform="matrix(0.13 0 0 -0.13 -112.67 -713.41)"  >
<path style="stroke: none; stroke-width: 1; stroke-dasharray: none; stroke-linecap: butt; stroke-dashoffset: 0; stroke-linejoin: miter; stroke-miterlimit: 4; fill: rgb(189,0,0); fill-rule: nonzero; opacity: 1;" vector-effect="non-scaling-stroke"  transform=" translate(-7490, -13619)" d="M 7360 13636 C 7360 13459 7362 13431 7377 13419 C 7388 13409 7429 13404 7507 13402 L 7620 13398 L 7620 13424 C 7620 13449 7620 13449 7518 13452 L 7415 13455 L 7412 13648 L 7410 13840 L 7385 13840 L 7360 13840 L 7360 13636 z" stroke-linecap="round" />
</g>
		<g transform="matrix(0.13 0 0 -0.13 -30 -713.59)"  >
<path style="stroke: none; stroke-width: 1; stroke-dasharray: none; stroke-linecap: butt; stroke-dashoffset: 0; stroke-linejoin: miter; stroke-miterlimit: 4; fill: rgb(189,0,0); fill-rule: nonzero; opacity: 1;" vector-effect="non-scaling-stroke"  transform=" translate(-8110, -13620.3)" d="M 8000 13820 C 7981 13801 7980 13787 7980 13615 L 7980 13430 L 8005 13414 C 8026 13400 8046 13399 8135 13405 C 8228 13411 8240 13414 8240 13431 C 8240 13447 8230 13450 8138 13452 L 8035 13455 L 8032 13522 L 8029 13588 L 8125 13595 C 8209 13602 8220 13605 8220 13621 C 8220 13638 8212 13640 8138 13640 C 8092 13640 8049 13644 8042 13649 C 8033 13654 8030 13676 8032 13721 L 8035 13785 L 8138 13788 C 8229 13790 8240 13793 8240 13809 C 8240 13824 8228 13828 8158 13833 C 8035 13843 8022 13842 8000 13820 z" stroke-linecap="round" />
</g>
		<g transform="matrix(0.13 0 0 -0.13 53.67 -713.62)"  >
<path style="stroke: none; stroke-width: 1; stroke-dasharray: none; stroke-linecap: butt; stroke-dashoffset: 0; stroke-linejoin: miter; stroke-miterlimit: 4; fill: rgb(189,0,0); fill-rule: nonzero; opacity: 1;" vector-effect="non-scaling-stroke"  transform=" translate(-8737.5, -13620.56)" d="M 8663 13824 C 8612 13798 8595 13752 8595 13630 C 8595 13432 8645 13385 8828 13406 C 8872 13412 8880 13416 8880 13434 C 8880 13453 8876 13455 8819 13452 C 8727 13446 8692 13456 8670 13492 C 8630 13559 8636 13736 8681 13773 C 8698 13786 8721 13790 8791 13790 C 8871 13790 8880 13792 8880 13809 C 8880 13823 8870 13829 8834 13834 C 8758 13844 8697 13841 8663 13824 z" stroke-linecap="round" />
</g>
		<g transform="matrix(0.13 0 0 -0.13 138 -713.54)"  >
<path style="stroke: none; stroke-width: 1; stroke-dasharray: none; stroke-linecap: butt; stroke-dashoffset: 0; stroke-linejoin: miter; stroke-miterlimit: 4; fill: rgb(189,0,0); fill-rule: nonzero; opacity: 1;" vector-effect="non-scaling-stroke"  transform=" translate(-9370, -13620)" d="M 9220 13815 C 9220 13791 9223 13790 9280 13790 L 9340 13790 L 9340 13595 L 9340 13400 L 9365 13400 L 9390 13400 L 9392 13593 L 9395 13785 L 9458 13788 C 9516 13791 9520 13792 9520 13815 L 9520 13840 L 9370 13840 L 9220 13840 L 9220 13815 z" stroke-linecap="round" />
</g>
		<g transform="matrix(0.13 0 0 -0.13 209.33 -713.54)"  >
<path style="stroke: none; stroke-width: 1; stroke-dasharray: none; stroke-linecap: butt; stroke-dashoffset: 0; stroke-linejoin: miter; stroke-miterlimit: 4; fill: rgb(189,0,0); fill-rule: nonzero; opacity: 1;" vector-effect="non-scaling-stroke"  transform=" translate(-9905, -13620)" d="M 9880 13620 L 9880 13400 L 9905 13400 L 9930 13400 L 9930 13620 L 9930 13840 L 9905 13840 L 9880 13840 L 9880 13620 z" stroke-linecap="round" />
</g>
		<g transform="matrix(0.13 0 0 -0.13 283.06 -713.41)"  >
<path style="stroke: none; stroke-width: 1; stroke-dasharray: none; stroke-linecap: butt; stroke-dashoffset: 0; stroke-linejoin: miter; stroke-miterlimit: 4; fill: rgb(189,0,0); fill-rule: nonzero; opacity: 1;" vector-effect="non-scaling-stroke"  transform=" translate(-10457.95, -13618.97)" d="M 10369 13825 C 10310 13799 10296 13762 10292 13630 C 10289 13526 10291 13511 10312 13470 C 10339 13418 10373 13401 10460 13401 C 10529 13400 10578 13423 10605 13470 C 10622 13500 10625 13522 10625 13615 C 10624 13788 10596 13830 10472 13836 C 10427 13839 10394 13835 10369 13825 z M 10524 13779 C 10565 13760 10587 13666 10574 13564 C 10565 13488 10539 13459 10474 13453 C 10372 13443 10340 13482 10340 13620 C 10340 13712 10358 13766 10392 13780 C 10424 13793 10495 13792 10524 13779 z" stroke-linecap="round" />
</g>
		<g transform="matrix(0.13 0 0 -0.13 375.33 -713.54)"  >
<path style="stroke: none; stroke-width: 1; stroke-dasharray: none; stroke-linecap: butt; stroke-dashoffset: 0; stroke-linejoin: miter; stroke-miterlimit: 4; fill: rgb(189,0,0); fill-rule: nonzero; opacity: 1;" vector-effect="non-scaling-stroke"  transform=" translate(-11150, -13620)" d="M 10990 13620 L 10990 13400 L 11015 13400 L 11040 13400 L 11040 13568 L 11040 13735 L 11152 13568 C 11243 13430 11267 13400 11287 13400 L 11310 13400 L 11310 13620 L 11310 13840 L 11285 13840 L 11260 13840 L 11260 13673 L 11260 13505 L 11149 13673 C 11056 13813 11035 13840 11014 13840 L 10990 13840 L 10990 13620 z" stroke-linecap="round" />
</g>
		<g transform="matrix(0.13 0 0 -0.13 675.33 -180.92)"  >
<path style="stroke: none; stroke-width: 1; stroke-dasharray: none; stroke-linecap: butt; stroke-dashoffset: 0; stroke-linejoin: miter; stroke-miterlimit: 4; fill: rgb(189,0,0); fill-rule: nonzero; opacity: 1;" vector-effect="non-scaling-stroke"  transform=" translate(-13400, -9625.35)" d="M 11320 10421 L 11320 9582 L 11369 9531 C 11443 9455 11509 9428 11641 9422 C 11765 9417 11904 9431 12010 9460 C 12127 9493 12167 9496 12190 9475 C 12235 9434 12205 9379 12124 9355 C 11986 9315 11847 9296 11700 9296 C 11536 9296 11459 9312 11373 9361 L 11320 9390 L 11320 8712 C 11320 8061 11321 8032 11339 8016 C 11370 7988 11424 7985 11465 8009 C 11500 8029 11500 8029 11533 8010 C 11574 7985 11616 7985 11657 8009 C 11688 8028 11689 8028 11726 8009 C 11771 7987 11818 7985 11863 8004 C 11891 8015 11899 8015 11915 8004 C 11941 7984 11973 7987 12003 8010 C 12028 8030 12028 8030 12075 8009 C 12130 7985 12191 7988 12242 8017 L 12273 8035 L 12266 8210 C 12259 8403 12233 8824 12225 8883 L 12220 8920 L 13397 8918 L 14575 8915 L 14572 8875 C 14547 8499 14539 8366 14534 8214 L 14527 8033 L 14572 8012 C 14627 7985 14672 7985 14728 8010 C 14772 8030 14772 8030 14797 8010 C 14827 7987 14859 7984 14885 8004 C 14901 8015 14909 8015 14937 8004 C 14982 7985 15029 7987 15074 8009 C 15111 8028 15112 8028 15143 8009 C 15184 7985 15226 7985 15267 8010 C 15300 8029 15300 8029 15335 8009 C 15376 7985 15430 7988 15461 8016 C 15479 8032 15480 8061 15480 8717 L 15480 9400 L 15441 9375 C 15349 9313 15195 9283 15030 9293 C 14917 9300 14693 9343 14633 9370 C 14582 9392 14569 9426 14595 9466 C 14610 9490 14616 9492 14659 9487 C 14684 9484 14739 9472 14780 9460 C 14885 9431 15024 9417 15149 9422 C 15283 9427 15350 9455 15428 9536 L 15480 9590 L 15480 10425 L 15480 11260 L 14604 11260 L 13728 11260 L 13735 11223 C 13740 11193 13850 10854 13876 10787 C 13882 10771 13847 10770 13401 10770 C 13136 10770 12920 10773 12920 10776 C 12920 10780 12936 10828 12956 10884 C 12999 11000 13070 11229 13070 11248 C 13070 11257 12888 11260 12195 11260 L 11320 11260 L 11320 10421 z" stroke-linecap="round" />
</g>
		<g transform="matrix(0.13 0 0 -0.13 -99.44 -182.61)"  >
<path style="stroke: none; stroke-width: 1; stroke-dasharray: none; stroke-linecap: butt; stroke-dashoffset: 0; stroke-linejoin: miter; stroke-miterlimit: 4; fill: rgb(189,0,0); fill-rule: nonzero; opacity: 1;" vector-effect="non-scaling-stroke"  transform=" translate(-7589.22, -9637.98)" d="M 7247 10873 C 7249 10857 7311 10340 7385 9723 L 7519 8601 L 7571 8550 C 7650 8473 7773 8411 7899 8385 L 7933 8378 L 7926 8451 C 7910 8616 7849 9177 7845 9200 C 7841 9217 7823 9234 7787 9255 C 7722 9291 7640 9372 7615 9425 C 7587 9486 7584 9558 7608 9613 C 7636 9677 7674 9724 7729 9765 L 7776 9799 L 7753 9987 C 7709 10340 7659 10725 7654 10746 C 7649 10763 7636 10770 7587 10780 C 7506 10795 7325 10856 7284 10880 C 7244 10905 7243 10905 7247 10873 z" stroke-linecap="round" />
</g>
		<g transform="matrix(0.13 0 0 -0.13 100.2 -182.59)"  >
<path style="stroke: none; stroke-width: 1; stroke-dasharray: none; stroke-linecap: butt; stroke-dashoffset: 0; stroke-linejoin: miter; stroke-miterlimit: 4; fill: rgb(189,0,0); fill-rule: nonzero; opacity: 1;" vector-effect="non-scaling-stroke"  transform=" translate(-9086.49, -9637.84)" d="M 9400 10890 C 9360 10864 9228 10816 9127 10791 L 9015 10763 L 8961 10277 L 8907 9791 L 8968 9735 C 9063 9647 9094 9563 9066 9468 C 9043 9387 8970 9306 8864 9244 C 8848 9235 8840 9180 8799 8809 C 8774 8576 8754 8384 8755 8382 C 8760 8376 8902 8426 8960 8455 C 9025 8488 9148 8586 9149 8606 C 9150 8612 9211 9125 9285 9746 C 9360 10367 9419 10881 9418 10887 C 9416 10896 9410 10896 9400 10890 z" stroke-linecap="round" />
</g>
		<g transform="matrix(0.13 0 0 -0.13 -607.88 -156.15)"  >
<path style="stroke: none; stroke-width: 1; stroke-dasharray: none; stroke-linecap: butt; stroke-dashoffset: 0; stroke-linejoin: miter; stroke-miterlimit: 4; fill: rgb(189,0,0); fill-rule: nonzero; opacity: 1;" vector-effect="non-scaling-stroke"  transform=" translate(-3775.92, -9439.51)" d="M 4250 10649 C 3708 10573 3216 10505 3156 10497 L 3047 10483 L 2666 10531 C 2456 10557 2284 10577 2282 10575 C 2281 10574 2274 10530 2268 10479 C 2262 10427 2254 10382 2250 10377 C 2247 10373 2033 10340 1775 10304 C 1517 10268 1305 10238 1304 10237 C 1303 10235 1347 9929 1349 9923 C 1350 9921 1357 9920 1366 9920 C 1442 9920 1520 9859 1539 9786 C 1560 9700 1512 9605 1433 9579 L 1398 9568 L 1405 9497 C 1409 9457 1414 9422 1416 9418 C 1419 9413 1437 9410 1456 9410 C 1544 9410 1613 9332 1613 9234 C 1613 9163 1584 9118 1519 9088 L 1469 9065 L 1475 8995 C 1479 8957 1483 8923 1486 8919 C 1488 8916 1511 8910 1536 8906 C 1625 8894 1683 8826 1683 8735 C 1683 8654 1635 8586 1568 8573 C 1551 8570 1540 8561 1540 8551 C 1540 8523 1580 8246 1585 8242 C 1589 8237 1800 8265 2633 8381 C 2868 8413 3083 8440 3111 8440 C 3138 8440 3790 8361 4560 8265 C 5330 8169 5970 8090 5983 8090 C 6006 8090 6007 8094 6023 8228 C 6033 8303 6040 8374 6040 8385 C 6040 8414 5974 8437 5849 8451 L 5742 8463 L 5701 8431 C 5662 8400 5660 8396 5660 8344 L 5660 8289 L 5615 8320 C 5572 8350 5570 8350 5534 8335 C 5474 8310 5470 8313 5486 8367 C 5501 8417 5501 8417 5452 8479 C 5433 8503 5414 8506 4944 8565 C 4671 8600 4466 8630 4480 8633 C 4503 8639 5517 8780 5535 8780 C 5543 8780 5538 8848 5517 9015 L 5505 9115 L 5465 9121 C 5414 9128 5390 9141 5352 9184 C 5278 9268 5313 9401 5421 9444 L 5462 9461 L 5456 9508 C 5440 9619 5440 9620 5411 9620 C 5371 9621 5307 9653 5277 9689 C 5247 9725 5235 9775 5244 9825 C 5252 9868 5248 9868 5493 9836 C 5591 9824 5670 9818 5670 9823 C 5670 9828 5659 9845 5645 9862 C 5631 9878 5620 9896 5620 9901 C 5620 9906 5642 9910 5670 9910 C 5717 9910 5721 9912 5746 9950 C 5761 9972 5776 9988 5779 9985 C 5782 9981 5792 9960 5800 9937 C 5812 9903 5821 9895 5850 9888 C 5917 9871 5917 9871 5870 9831 L 5827 9794 L 5986 9774 C 6073 9764 6161 9756 6181 9758 L 6216 9761 L 6235 9916 C 6245 10001 6250 10073 6247 10076 C 6244 10080 6006 10112 5718 10147 C 5300 10199 5192 10216 5182 10229 C 5173 10239 5170 10264 5172 10302 C 5177 10369 5212 10422 5268 10448 C 5289 10457 5306 10465 5308 10466 C 5310 10467 5301 10540 5289 10629 C 5271 10762 5264 10790 5251 10789 C 5242 10788 4792 10725 4250 10649 z M 4874 10528 C 4899 10493 4905 10490 4951 10490 L 5001 10490 L 4969 10451 L 4938 10412 L 4953 10361 C 4961 10333 4964 10310 4960 10310 C 4956 10310 4934 10317 4910 10325 C 4869 10339 4867 10339 4824 10309 L 4780 10279 L 4780 10334 C 4780 10385 4778 10391 4745 10416 C 4726 10430 4710 10445 4710 10449 C 4710 10452 4731 10462 4757 10470 C 4801 10484 4806 10489 4819 10533 C 4827 10559 4836 10577 4840 10573 C 4843 10568 4858 10548 4874 10528 z M 4456 10333 C 4459 10317 4463 10300 4465 10293 C 4470 10278 4456 10273 4378 10265 L 4312 10258 L 4308 10299 C 4304 10344 4305 10345 4375 10353 C 4445 10362 4449 10361 4456 10333 z M 4133 10313 C 4135 10308 4140 10289 4144 10269 L 4150 10233 L 4014 10214 C 3865 10194 3860 10195 3860 10252 C 3860 10282 3855 10281 4020 10304 C 4072 10311 4118 10318 4122 10319 C 4126 10319 4131 10317 4133 10313 z M 3699 10198 C 3700 10182 3697 10170 3693 10170 C 3688 10170 3629 10161 3560 10151 C 3491 10141 3432 10134 3428 10137 C 3423 10139 3420 10159 3420 10181 C 3420 10202 3423 10220 3428 10220 C 3432 10221 3491 10229 3560 10239 C 3698 10258 3698 10258 3699 10198 z M 3256 10155 C 3259 10135 3260 10117 3257 10114 C 3253 10110 3209 10102 3019 10075 C 2982 10070 2982 10070 2978 10111 C 2976 10134 2979 10154 2985 10156 C 3004 10163 3174 10188 3212 10189 C 3247 10190 3249 10188 3256 10155 z M 1816 10110 C 1842 10071 1845 10070 1897 10070 L 1952 10070 L 1919 10029 C 1886 9987 1886 9975 1917 9894 C 1921 9884 1910 9885 1869 9899 L 1815 9917 L 1775 9888 L 1735 9858 L 1732 9913 C 1729 9964 1726 9970 1690 9995 C 1668 10010 1650 10024 1650 10026 C 1650 10028 1670 10035 1695 10041 C 1746 10054 1753 10061 1769 10113 C 1776 10133 1783 10150 1786 10150 C 1788 10150 1802 10132 1816 10110 z M 2812 10093 C 2815 10072 2815 10053 2813 10051 C 2808 10044 2547 10009 2542 10014 C 2540 10017 2536 10036 2533 10057 L 2528 10096 L 2636 10112 C 2809 10136 2807 10137 2812 10093 z M 4933 10070 C 4959 10033 4964 10030 5011 10030 C 5038 10030 5060 10026 5060 10021 C 5060 10017 5047 9996 5031 9976 C 5002 9939 5002 9939 5017 9894 C 5025 9869 5030 9847 5028 9844 C 5025 9842 5003 9847 4977 9857 L 4932 9874 L 4897 9847 C 4845 9808 4837 9811 4845 9869 C 4852 9919 4852 9919 4811 9946 C 4788 9960 4770 9976 4770 9980 C 4770 9983 4791 9993 4817 10001 C 4861 10015 4865 10019 4879 10063 C 4887 10089 4896 10110 4899 10110 C 4902 10110 4918 10092 4933 10070 z M 2364 10048 C 2379 9991 2373 9983 2318 9976 C 2225 9965 2223 9966 2215 10006 C 2212 10026 2211 10044 2213 10047 C 2219 10052 2303 10067 2336 10069 C 2351 10070 2360 10063 2364 10048 z M 4100 9769 L 4100 9720 L 4140 9726 L 4180 9733 L 4180 9692 C 4180 9652 4179 9651 4143 9644 C 4122 9640 4102 9632 4098 9626 C 4089 9613 4087 9458 4096 9436 C 4099 9428 4117 9418 4136 9414 C 4165 9409 4170 9404 4170 9379 C 4170 9357 4164 9347 4144 9340 C 4095 9321 4051 9328 4019 9359 C 3990 9388 3990 9390 3990 9504 L 3990 9620 L 3960 9620 C 3934 9620 3930 9623 3930 9649 C 3930 9671 3936 9680 3960 9690 C 3980 9698 3992 9712 3996 9729 C 4013 9811 4015 9815 4050 9821 C 4069 9824 4088 9824 4093 9822 C 4097 9820 4100 9797 4100 9769 z M 3342 9634 C 3339 9482 3339 9479 3358 9489 C 3387 9504 3427 9555 3441 9594 C 3450 9620 3461 9630 3483 9634 C 3536 9645 3560 9641 3560 9623 C 3559 9594 3525 9526 3491 9488 C 3474 9468 3460 9449 3460 9445 C 3460 9441 3490 9400 3526 9353 C 3562 9306 3589 9266 3587 9263 C 3584 9261 3558 9257 3529 9254 L 3475 9249 L 3421 9324 C 3391 9366 3360 9400 3353 9400 C 3343 9400 3340 9379 3340 9323 C 3340 9280 3336 9240 3332 9234 C 3328 9228 3304 9220 3278 9217 L 3230 9210 L 3230 9323 C 3230 9384 3233 9512 3237 9607 C 3244 9796 3240 9787 3310 9789 L 3345 9790 L 3342 9634 z M 4515 9720 L 4515 9685 L 4430 9674 C 4383 9667 4339 9661 4333 9661 C 4325 9660 4320 9647 4320 9629 L 4320 9598 L 4395 9605 C 4456 9611 4475 9609 4495 9596 C 4525 9576 4538 9531 4530 9468 C 4519 9388 4488 9368 4343 9354 C 4304 9351 4259 9350 4245 9354 C 4223 9360 4219 9365 4222 9393 L 4225 9425 L 4325 9440 C 4424 9455 4425 9455 4428 9484 L 4432 9513 L 4352 9506 C 4278 9499 4271 9500 4245 9522 C 4195 9565 4202 9691 4255 9726 C 4287 9747 4360 9758 4445 9757 L 4515 9755 L 4515 9720 z M 1885 9640 C 1911 9603 1916 9600 1961 9600 C 1988 9600 2010 9597 2010 9593 C 2009 9588 1996 9570 1981 9552 C 1953 9519 1953 9518 1966 9473 C 1974 9447 1978 9425 1976 9422 C 1973 9420 1951 9425 1926 9433 C 1881 9448 1881 9448 1841 9419 C 1818 9403 1797 9390 1794 9390 C 1790 9390 1790 9414 1792 9443 C 1796 9495 1796 9497 1758 9524 C 1737 9539 1722 9555 1725 9560 C 1727 9564 1749 9573 1773 9579 C 1814 9589 1818 9593 1830 9635 C 1837 9660 1846 9680 1850 9680 C 1854 9680 1870 9662 1885 9640 z M 2838 9639 C 2842 9590 2821 9570 2764 9570 L 2719 9570 L 2722 9617 C 2725 9658 2729 9665 2750 9671 C 2764 9675 2789 9678 2805 9677 C 2832 9675 2835 9671 2838 9639 z M 3874 9670 C 3928 9650 3945 9555 3906 9495 C 3883 9461 3822 9432 3756 9424 C 3697 9417 3687 9404 3715 9376 C 3726 9366 3741 9362 3763 9366 C 3832 9378 3886 9389 3903 9395 C 3917 9401 3920 9396 3920 9367 C 3920 9348 3914 9327 3906 9321 C 3898 9314 3853 9300 3806 9288 C 3665 9253 3610 9284 3595 9405 C 3582 9503 3603 9593 3648 9633 C 3693 9674 3813 9693 3874 9670 z M 2679 9570 C 2673 9566 2642 9559 2610 9556 L 2553 9549 L 2547 9398 C 2543 9315 2540 9216 2540 9178 L 2540 9110 L 2510 9108 C 2430 9103 2438 9079 2440 9318 L 2441 9531 L 2370 9524 L 2300 9517 L 2300 9558 C 2300 9581 2306 9602 2313 9607 C 2319 9611 2406 9627 2505 9641 L 2685 9666 L 2688 9622 C 2690 9595 2686 9574 2679 9570 z M 5020 9568 C 5020 9564 5045 9560 5075 9558 L 5131 9555 L 5100 9512 L 5068 9470 L 5084 9423 C 5093 9398 5098 9375 5096 9373 C 5094 9371 5075 9376 5055 9384 C 5005 9405 4994 9404 4956 9375 C 4938 9361 4920 9350 4917 9350 C 4913 9350 4910 9374 4910 9403 C 4910 9453 4908 9456 4868 9484 L 4827 9514 L 4873 9529 C 4928 9548 4934 9554 4950 9604 L 4963 9643 L 4991 9609 C 5007 9590 5020 9572 5020 9568 z M 3175 9540 L 3175 9505 L 3110 9498 C 3008 9487 3002 9484 2991 9442 C 2979 9400 2977 9327 2987 9291 C 2993 9268 2995 9268 3064 9274 C 3103 9277 3145 9283 3158 9286 C 3178 9292 3180 9289 3180 9257 C 3180 9226 3176 9221 3142 9207 C 3081 9183 2986 9168 2958 9179 C 2877 9210 2847 9374 2900 9497 C 2928 9560 2976 9579 3100 9577 L 3175 9575 L 3175 9540 z M 2827 9349 C 2823 9243 2819 9156 2818 9155 C 2816 9154 2794 9150 2768 9147 L 2720 9140 L 2720 9331 C 2720 9518 2720 9521 2743 9530 C 2755 9535 2780 9539 2799 9539 L 2833 9540 L 2827 9349 z M 1944 9180 C 1969 9143 1973 9140 2018 9140 C 2045 9140 2070 9137 2073 9134 C 2077 9130 2065 9109 2048 9088 L 2017 9048 L 2032 8999 C 2041 8972 2045 8950 2040 8950 C 2036 8950 2014 8957 1990 8965 C 1949 8979 1947 8979 1904 8949 L 1860 8919 L 1860 8974 C 1860 9026 1858 9029 1818 9059 L 1777 9089 L 1804 9100 C 1819 9105 1842 9113 1855 9116 C 1873 9120 1883 9134 1895 9171 C 1904 9198 1913 9220 1914 9220 C 1916 9220 1929 9202 1944 9180 z M 5064 9130 C 5089 9092 5093 9090 5140 9090 C 5168 9090 5190 9087 5190 9084 C 5190 9081 5176 9062 5160 9041 C 5130 9004 5130 9003 5145 8960 C 5153 8936 5158 8915 5156 8912 C 5153 8910 5131 8915 5106 8923 C 5062 8938 5061 8938 5021 8908 L 4980 8878 L 4980 8934 C 4980 8965 4977 8990 4973 8990 C 4968 8990 4950 9003 4931 9019 L 4897 9047 L 4947 9064 C 4994 9080 4999 9084 5010 9125 C 5017 9150 5026 9170 5030 9170 C 5034 9170 5049 9152 5064 9130 z M 4640 9021 C 4640 8976 4638 8975 4548 8964 L 4490 8958 L 4489 8989 C 4488 9006 4487 9026 4486 9033 C 4485 9045 4533 9056 4603 9059 C 4640 9060 4640 9060 4640 9021 z M 4320 8985 C 4320 8966 4321 8947 4323 8943 C 4325 8935 4131 8902 4078 8901 C 4055 8900 4050 8905 4044 8935 C 4041 8955 4040 8974 4044 8977 C 4050 8984 4251 9016 4298 9019 C 4317 9020 4320 9015 4320 8985 z M 3878 8914 L 3881 8872 L 3803 8861 C 3598 8833 3600 8832 3600 8892 C 3600 8922 3592 8919 3755 8944 C 3875 8962 3874 8963 3878 8914 z M 3437 8847 L 3442 8812 L 3399 8806 C 3375 8802 3313 8794 3262 8786 C 3211 8779 3168 8776 3166 8779 C 3164 8782 3160 8801 3156 8821 L 3149 8858 L 3237 8870 C 3286 8877 3345 8886 3370 8890 C 3423 8898 3429 8894 3437 8847 z M 2992 8790 C 2994 8768 2993 8750 2990 8750 C 2987 8750 2927 8741 2855 8730 C 2784 8720 2725 8712 2723 8713 C 2722 8715 2718 8734 2714 8757 L 2708 8798 L 2766 8805 C 2799 8809 2845 8816 2870 8820 C 2895 8824 2931 8828 2951 8829 C 2987 8830 2988 8829 2992 8790 z M 2548 8728 C 2552 8687 2549 8685 2459 8675 L 2403 8668 L 2396 8705 C 2392 8726 2392 8746 2397 8751 C 2406 8760 2468 8768 2515 8766 C 2542 8765 2545 8761 2548 8728 z M 2010 8710 C 2034 8672 2037 8670 2087 8670 C 2116 8670 2140 8667 2140 8664 C 2140 8661 2127 8641 2110 8620 C 2080 8583 2080 8582 2095 8534 C 2103 8508 2108 8485 2107 8483 C 2105 8482 2083 8488 2058 8498 C 2012 8514 2012 8514 1973 8487 L 1935 8460 L 1932 8510 C 1929 8555 1925 8562 1890 8587 C 1868 8602 1850 8618 1850 8621 C 1850 8624 1871 8633 1897 8641 C 1941 8655 1945 8659 1959 8703 C 1967 8729 1976 8750 1979 8750 C 1983 8750 1996 8732 2010 8710 z" stroke-linecap="round" />
</g>
		<g transform="matrix(0.13 0 0 -0.13 -609.93 -170.21)"  >
<path style="stroke: none; stroke-width: 1; stroke-dasharray: none; stroke-linecap: butt; stroke-dashoffset: 0; stroke-linejoin: miter; stroke-miterlimit: 4; fill: rgb(189,0,0); fill-rule: nonzero; opacity: 1;" vector-effect="non-scaling-stroke"  transform=" translate(-3760.54, -9545)" d="M 3727 9578 C 3718 9571 3707 9550 3704 9533 C 3698 9501 3699 9500 3729 9500 C 3785 9500 3820 9526 3820 9568 C 3820 9587 3815 9590 3782 9590 C 3761 9590 3736 9584 3727 9578 z" stroke-linecap="round" />
</g>
		<g transform="matrix(0.13 0 0 -0.13 -0.18 -270.12)"  >
<path style="stroke: none; stroke-width: 1; stroke-dasharray: none; stroke-linecap: butt; stroke-dashoffset: 0; stroke-linejoin: miter; stroke-miterlimit: 4; fill: rgb(189,0,0); fill-rule: nonzero; opacity: 1;" vector-effect="non-scaling-stroke"  transform=" translate(-8333.62, -10294.31)" d="M 7777 10657 C 7785 10607 7811 10406 7835 10211 C 7860 10016 7881 9855 7883 9854 C 7884 9853 7917 9862 7956 9875 C 8193 9952 8524 9947 8749 9861 L 8800 9842 L 8805 9863 C 8810 9889 8900 10708 8900 10731 C 8900 10744 8892 10745 8848 10739 C 8819 10735 8689 10724 8560 10715 C 8361 10700 8299 10700 8155 10709 C 7985 10721 7824 10737 7784 10745 C 7763 10750 7763 10749 7777 10657 z" stroke-linecap="round" />
</g>
		<g transform="matrix(0.13 0 0 -0.13 1.2 -66.43)"  >
<path style="stroke: none; stroke-width: 1; stroke-dasharray: none; stroke-linecap: butt; stroke-dashoffset: 0; stroke-linejoin: miter; stroke-miterlimit: 4; fill: rgb(189,0,0); fill-rule: nonzero; opacity: 1;" vector-effect="non-scaling-stroke"  transform=" translate(-8344, -8766.63)" d="M 8635 9161 C 8502 9127 8236 9120 8095 9148 C 8040 9159 7986 9172 7976 9176 C 7959 9183 7957 9180 7963 9139 C 7966 9115 7986 8932 8007 8733 L 8044 8372 L 8070 8366 C 8127 8352 8439 8348 8535 8359 C 8589 8365 8636 8372 8638 8374 C 8642 8379 8731 9173 8728 9180 C 8726 9183 8685 9174 8635 9161 z" stroke-linecap="round" />
</g>
		<g transform="matrix(0.13 0 0 -0.13 -536.64 166.73)"  >
<path style="stroke: none; stroke-width: 1; stroke-dasharray: none; stroke-linecap: butt; stroke-dashoffset: 0; stroke-linejoin: miter; stroke-miterlimit: 4; fill: rgb(189,0,0); fill-rule: nonzero; opacity: 1;" vector-effect="non-scaling-stroke"  transform=" translate(-4310.18, -7017.95)" d="M 4120 7581 C 3974 7536 3933 7442 3785 6805 C 3748 6646 3717 6507 3716 6496 C 3715 6481 3729 6474 3790 6459 C 3831 6450 3868 6445 3871 6448 C 3874 6452 3894 6530 3914 6621 C 4021 7108 4105 7387 4151 7416 C 4172 7428 4272 7423 4340 7405 C 4376 7396 4508 7355 4634 7314 C 4760 7273 4866 7243 4870 7247 C 4883 7261 4911 7393 4903 7400 C 4888 7413 4384 7570 4326 7580 C 4258 7591 4157 7592 4120 7581 z" stroke-linecap="round" />
</g>
		<g transform="matrix(0.13 0 0 -0.13 199.15 182.54)"  >
<path style="stroke: none; stroke-width: 1; stroke-dasharray: none; stroke-linecap: butt; stroke-dashoffset: 0; stroke-linejoin: miter; stroke-miterlimit: 4; fill: rgb(189,0,0); fill-rule: nonzero; opacity: 1;" vector-effect="non-scaling-stroke"  transform=" translate(-9828.6, -6899.33)" d="M 9850 7172 L 9765 7155 L 9673 6883 C 9618 6719 9586 6610 9593 6610 C 9614 6610 10060 6696 10065 6701 C 10067 6704 10049 6812 10025 6941 C 10000 7069 9980 7178 9980 7183 C 9980 7193 9947 7190 9850 7172 z" stroke-linecap="round" />
</g>
		<g transform="matrix(0.13 0 0 -0.13 100.78 199.02)"  >
<path style="stroke: none; stroke-width: 1; stroke-dasharray: none; stroke-linecap: butt; stroke-dashoffset: 0; stroke-linejoin: miter; stroke-miterlimit: 4; fill: rgb(189,0,0); fill-rule: nonzero; opacity: 1;" vector-effect="non-scaling-stroke"  transform=" translate(-9090.88, -6775.73)" d="M 9175 7044 C 9082 7026 9004 7011 9003 7010 C 9002 7010 8962 6892 8914 6748 C 8866 6603 8825 6480 8823 6474 C 8819 6462 9168 6524 9181 6537 C 9185 6542 9225 6660 9270 6800 C 9316 6940 9355 7061 9358 7068 C 9360 7074 9358 7079 9354 7079 C 9349 7078 9269 7063 9175 7044 z" stroke-linecap="round" />
</g>
		<g transform="matrix(0.13 0 0 -0.13 -0.65 218.93)"  >
<path style="stroke: none; stroke-width: 1; stroke-dasharray: none; stroke-linecap: butt; stroke-dashoffset: 0; stroke-linejoin: miter; stroke-miterlimit: 4; fill: rgb(189,0,0); fill-rule: nonzero; opacity: 1;" vector-effect="non-scaling-stroke"  transform=" translate(-8330.14, -6626.43)" d="M 8545 6925 C 8540 6923 8469 6909 8388 6895 L 8241 6868 L 8151 6597 C 8101 6448 8062 6325 8063 6324 C 8069 6317 8410 6386 8419 6395 C 8424 6401 8465 6520 8510 6660 C 8556 6800 8595 6918 8597 6923 C 8601 6930 8564 6932 8545 6925 z" stroke-linecap="round" />
</g>
		<g transform="matrix(0.13 0 0 -0.13 676 276.23)"  >
<path style="stroke: none; stroke-width: 1; stroke-dasharray: none; stroke-linecap: butt; stroke-dashoffset: 0; stroke-linejoin: miter; stroke-miterlimit: 4; fill: rgb(189,0,0); fill-rule: nonzero; opacity: 1;" vector-effect="non-scaling-stroke"  transform=" translate(-13405, -6196.66)" d="M 12487 6738 C 12483 6659 12477 6409 12474 6183 C 12468 5831 12469 5770 12481 5770 C 12492 5770 12492 5768 12480 5760 C 12472 5755 12408 5750 12338 5750 L 12210 5750 L 12210 5642 L 12210 5533 L 12415 5526 C 12528 5522 12625 5522 12630 5525 C 12636 5528 12640 5571 12640 5621 C 12640 5670 12644 5710 12649 5710 C 12654 5710 12714 5697 12782 5680 C 13163 5588 13607 5576 14019 5646 C 14099 5659 14170 5670 14177 5670 C 14187 5670 14190 5650 14190 5593 L 14190 5517 L 14312 5523 C 14378 5527 14471 5530 14517 5530 L 14600 5530 L 14600 5640 L 14600 5750 L 14485 5750 L 14370 5750 L 14370 5779 C 14370 5794 14375 6033 14381 6310 C 14386 6586 14389 6814 14387 6817 C 14384 6819 14327 6810 14259 6796 C 14048 6752 13917 6739 13643 6733 C 13348 6727 13180 6737 12945 6777 C 12820 6798 12552 6858 12506 6876 C 12496 6880 12492 6846 12487 6738 z M 13478 6427 L 13527 6323 L 13576 6316 C 13603 6313 13654 6305 13689 6299 L 13754 6287 L 13670 6210 L 13586 6133 L 13599 6039 C 13606 5987 13614 5937 13616 5928 C 13624 5901 13611 5905 13509 5961 L 13416 6013 L 13313 5961 C 13256 5933 13210 5912 13210 5914 C 13210 5916 13219 5962 13230 6015 C 13241 6068 13250 6119 13250 6126 C 13250 6134 13216 6176 13174 6219 C 13091 6307 13090 6304 13195 6315 C 13325 6328 13314 6322 13372 6431 C 13400 6485 13424 6530 13426 6530 C 13427 6530 13451 6483 13478 6427 z" stroke-linecap="round" />
</g>
		<g transform="matrix(0.13 0 0 -0.13 -101.88 237.72)"  >
<path style="stroke: none; stroke-width: 1; stroke-dasharray: none; stroke-linecap: butt; stroke-dashoffset: 0; stroke-linejoin: miter; stroke-miterlimit: 4; fill: rgb(189,0,0); fill-rule: nonzero; opacity: 1;" vector-effect="non-scaling-stroke"  transform=" translate(-7570.87, -6485.51)" d="M 7646 6756 C 7542 6736 7484 6720 7478 6710 C 7465 6688 7300 6187 7304 6183 C 7306 6180 7387 6193 7484 6211 L 7660 6244 L 7746 6509 C 7794 6655 7834 6778 7837 6783 C 7843 6794 7819 6790 7646 6756 z" stroke-linecap="round" />
</g>
		<g transform="matrix(0.13 0 0 -0.13 -0.8 311.85)"  >
<path style="stroke: none; stroke-width: 1; stroke-dasharray: none; stroke-linecap: butt; stroke-dashoffset: 0; stroke-linejoin: miter; stroke-miterlimit: 4; fill: rgb(189,0,0); fill-rule: nonzero; opacity: 1;" vector-effect="non-scaling-stroke"  transform=" translate(-8329, -5929.51)" d="M 6797 6596 L 6528 6545 L 6534 6500 C 6537 6475 6558 6255 6580 6010 C 6608 5693 6620 5514 6620 5388 L 6620 5210 L 8375 5210 L 10130 5210 L 10130 5630 L 10130 6050 L 9885 6050 C 9750 6050 9640 6048 9640 6045 C 9640 6042 9701 5929 9775 5794 C 9849 5660 9910 5547 9910 5545 C 9910 5542 9821 5540 9711 5540 C 9564 5540 9510 5543 9503 5553 C 9497 5559 9433 5674 9360 5808 L 9227 6050 L 9043 6050 L 8859 6050 L 8888 5998 C 9028 5749 9130 5560 9130 5551 C 9130 5534 8744 5536 8730 5553 C 8723 5559 8659 5673 8586 5805 L 8454 6045 L 8272 6048 C 8172 6049 8090 6048 8090 6045 C 8090 6042 8151 5930 8225 5796 C 8299 5662 8360 5549 8360 5546 C 8360 5542 8269 5541 8158 5542 L 7956 5545 L 7816 5798 L 7676 6050 L 7492 6050 L 7308 6050 L 7333 6008 C 7408 5877 7580 5560 7580 5551 C 7580 5544 7547 5540 7491 5540 C 7421 5540 7398 5544 7382 5558 C 7371 5567 7259 5695 7132 5841 L 6901 6107 L 6945 6241 C 6969 6315 7008 6437 7033 6513 C 7058 6588 7075 6650 7071 6649 C 7068 6648 6944 6625 6797 6596 z" stroke-linecap="round" />
</g>
		<g transform="matrix(0.13 0 0 -0.13 -608.4 447.83)"  >
<path style="stroke: none; stroke-width: 1; stroke-dasharray: none; stroke-linecap: butt; stroke-dashoffset: 0; stroke-linejoin: miter; stroke-miterlimit: 4; fill: rgb(189,0,0); fill-rule: nonzero; opacity: 1;" vector-effect="non-scaling-stroke"  transform=" translate(-3772, -4909.72)" d="M 2944 5036 C 3010 4403 3067 3884 3072 3882 C 3076 3880 3103 3854 3131 3825 C 3261 3689 3516 3620 3840 3633 C 4111 3645 4290 3706 4417 3830 L 4478 3890 L 4594 5013 C 4658 5630 4712 6147 4715 6162 L 4719 6188 L 4642 6150 C 4436 6047 4070 5992 3675 6003 C 3349 6013 3090 6061 2915 6144 L 2825 6186 L 2944 5036 z M 3980 5324 C 4139 5285 4286 5185 4345 5078 C 4371 5032 4375 5015 4375 4945 C 4375 4875 4371 4858 4345 4812 C 4285 4703 4152 4613 3985 4569 C 3872 4538 3668 4538 3556 4569 C 3380 4616 3238 4715 3187 4827 C 3155 4899 3157 4998 3192 5070 C 3256 5200 3433 5308 3635 5340 C 3716 5352 3900 5344 3980 5324 z" stroke-linecap="round" />
</g>
		<g transform="matrix(0.13 0 0 -0.13 676.27 429.19)"  >
<path style="stroke: none; stroke-width: 1; stroke-dasharray: none; stroke-linecap: butt; stroke-dashoffset: 0; stroke-linejoin: miter; stroke-miterlimit: 4; fill: rgb(189,0,0); fill-rule: nonzero; opacity: 1;" vector-effect="non-scaling-stroke"  transform=" translate(-13407, -5049.48)" d="M 12459 5233 C 12459 5207 12457 5144 12456 5093 L 12454 5001 L 12514 4977 C 12673 4914 12820 4878 13037 4850 C 13249 4822 13496 4814 13705 4829 C 13913 4844 14013 4859 14209 4906 L 14360 4942 L 14360 5082 L 14360 5222 L 14328 5215 C 14310 5211 14259 5200 14215 5189 C 13992 5134 13548 5107 13265 5129 C 13009 5149 12790 5186 12600 5241 C 12542 5258 12487 5274 12478 5276 C 12463 5281 12460 5274 12459 5233 z" stroke-linecap="round" />
</g>
		<g transform="matrix(0.13 0 0 -0.13 -168.67 455.79)"  >
<path style="stroke: none; stroke-width: 1; stroke-dasharray: none; stroke-linecap: butt; stroke-dashoffset: 0; stroke-linejoin: miter; stroke-miterlimit: 4; fill: rgb(189,0,0); fill-rule: nonzero; opacity: 1;" vector-effect="non-scaling-stroke"  transform=" translate(-7070, -4850)" d="M 6620 4850 L 6620 4590 L 7070 4590 L 7520 4590 L 7520 4850 L 7520 5110 L 7070 5110 L 6620 5110 L 6620 4850 z" stroke-linecap="round" />
</g>
		<g transform="matrix(0.13 0 0 -0.13 -47.33 455.79)"  >
<path style="stroke: none; stroke-width: 1; stroke-dasharray: none; stroke-linecap: butt; stroke-dashoffset: 0; stroke-linejoin: miter; stroke-miterlimit: 4; fill: rgb(189,0,0); fill-rule: nonzero; opacity: 1;" vector-effect="non-scaling-stroke"  transform=" translate(-7980, -4850)" d="M 7630 4850 L 7630 4590 L 7980 4590 L 8330 4590 L 8330 4850 L 8330 5110 L 7980 5110 L 7630 5110 L 7630 4850 z" stroke-linecap="round" />
</g>
		<g transform="matrix(0.13 0 0 -0.13 59.33 455.79)"  >
<path style="stroke: none; stroke-width: 1; stroke-dasharray: none; stroke-linecap: butt; stroke-dashoffset: 0; stroke-linejoin: miter; stroke-miterlimit: 4; fill: rgb(189,0,0); fill-rule: nonzero; opacity: 1;" vector-effect="non-scaling-stroke"  transform=" translate(-8780, -4850)" d="M 8440 4850 L 8440 4590 L 8780 4590 L 9120 4590 L 9120 4850 L 9120 5110 L 8780 5110 L 8440 5110 L 8440 4850 z" stroke-linecap="round" />
</g>
		<g transform="matrix(0.13 0 0 -0.13 179.33 455.79)"  >
<path style="stroke: none; stroke-width: 1; stroke-dasharray: none; stroke-linecap: butt; stroke-dashoffset: 0; stroke-linejoin: miter; stroke-miterlimit: 4; fill: rgb(189,0,0); fill-rule: nonzero; opacity: 1;" vector-effect="non-scaling-stroke"  transform=" translate(-9680, -4850)" d="M 9230 4850 L 9230 4590 L 9680 4590 L 10130 4590 L 10130 4850 L 10130 5110 L 9680 5110 L 9230 5110 L 9230 4850 z" stroke-linecap="round" />
</g>
		<g transform="matrix(0.13 0 0 -0.13 5.33 537.12)"  >
<path style="stroke: none; stroke-width: 1; stroke-dasharray: none; stroke-linecap: butt; stroke-dashoffset: 0; stroke-linejoin: miter; stroke-miterlimit: 4; fill: rgb(189,0,0); fill-rule: nonzero; opacity: 1;" vector-effect="non-scaling-stroke"  transform=" translate(-8375, -4240)" d="M 6620 4240 L 6620 4000 L 8375 4000 L 10130 4000 L 10130 4240 L 10130 4480 L 8375 4480 L 6620 4480 L 6620 4240 z" stroke-linecap="round" />
</g>
		<g transform="matrix(0.13 0 0 -0.13 5.13 604.36)"  >
<path style="stroke: none; stroke-width: 1; stroke-dasharray: none; stroke-linecap: butt; stroke-dashoffset: 0; stroke-linejoin: miter; stroke-miterlimit: 4; fill: rgb(189,0,0); fill-rule: nonzero; opacity: 1;" vector-effect="non-scaling-stroke"  transform=" translate(-8373.5, -3735.7)" d="M 6622 3828 C 6629 3716 6682 3635 6775 3593 C 6813 3576 6896 3575 8345 3572 C 9417 3570 9891 3573 9927 3581 C 10052 3606 10130 3703 10130 3831 L 10130 3900 L 8374 3900 L 6617 3900 L 6622 3828 z" stroke-linecap="round" />
</g>
		<g transform="matrix(0.13 0 0 -0.13 0 914.46)"  >
<path style="stroke: none; stroke-width: 1; stroke-dasharray: none; stroke-linecap: butt; stroke-dashoffset: 0; stroke-linejoin: miter; stroke-miterlimit: 4; fill: rgb(189,0,0); fill-rule: nonzero; opacity: 1;" vector-effect="non-scaling-stroke"  transform=" translate(-8335, -1410)" d="M 0 1410 L 0 820 L 8335 820 L 16670 820 L 16670 1410 L 16670 2000 L 8335 2000 L 0 2000 L 0 1410 z M 290 1785 L 290 1730 L 240 1730 L 190 1730 L 190 1785 L 190 1840 L 240 1840 L 290 1840 L 290 1785 z M 608 1783 L 611 1730 L 556 1730 L 500 1730 L 500 1786 L 500 1841 L 553 1838 L 605 1835 L 608 1783 z M 920 1785 L 920 1730 L 865 1730 L 810 1730 L 810 1785 L 810 1840 L 865 1840 L 920 1840 L 920 1785 z M 1230 1785 L 1230 1730 L 1175 1730 L 1120 1730 L 1120 1778 C 1120 1805 1123 1830 1127 1833 C 1130 1837 1155 1840 1182 1840 L 1230 1840 L 1230 1785 z M 1540 1785 L 1540 1730 L 1490 1730 L 1440 1730 L 1440 1785 L 1440 1840 L 1490 1840 L 1540 1840 L 1540 1785 z M 1858 1783 L 1861 1730 L 1806 1730 L 1750 1730 L 1750 1786 L 1750 1841 L 1803 1838 L 1855 1835 L 1858 1783 z M 2170 1785 L 2170 1730 L 2115 1730 L 2060 1730 L 2060 1785 L 2060 1840 L 2115 1840 L 2170 1840 L 2170 1785 z M 2480 1785 L 2480 1730 L 2425 1730 L 2370 1730 L 2370 1778 C 2370 1805 2373 1830 2377 1833 C 2380 1837 2405 1840 2432 1840 L 2480 1840 L 2480 1785 z M 2790 1785 L 2790 1730 L 2740 1730 L 2690 1730 L 2690 1785 L 2690 1840 L 2740 1840 L 2790 1840 L 2790 1785 z M 3108 1783 L 3111 1730 L 3056 1730 L 3000 1730 L 3000 1786 L 3000 1841 L 3053 1838 L 3105 1835 L 3108 1783 z M 3420 1785 L 3420 1730 L 3365 1730 L 3310 1730 L 3310 1785 L 3310 1840 L 3365 1840 L 3420 1840 L 3420 1785 z M 3730 1785 L 3730 1730 L 3675 1730 L 3620 1730 L 3620 1778 C 3620 1805 3623 1830 3627 1833 C 3630 1837 3655 1840 3682 1840 L 3730 1840 L 3730 1785 z M 4042 1789 C 4043 1761 4043 1736 4041 1734 C 4039 1732 4015 1730 3988 1730 L 3940 1730 L 3940 1785 L 3940 1840 L 3989 1840 L 4038 1840 L 4042 1789 z M 4358 1783 L 4361 1730 L 4306 1730 L 4250 1730 L 4250 1786 L 4250 1841 L 4303 1838 L 4355 1835 L 4358 1783 z M 4670 1785 L 4670 1730 L 4615 1730 L 4560 1730 L 4560 1785 L 4560 1840 L 4615 1840 L 4670 1840 L 4670 1785 z M 4980 1785 L 4980 1730 L 4925 1730 L 4870 1730 L 4870 1778 C 4870 1805 4873 1830 4877 1833 C 4880 1837 4905 1840 4932 1840 L 4980 1840 L 4980 1785 z M 5290 1785 L 5290 1730 L 5240 1730 L 5190 1730 L 5190 1785 L 5190 1840 L 5240 1840 L 5290 1840 L 5290 1785 z M 5608 1783 L 5611 1730 L 5556 1730 L 5500 1730 L 5500 1786 L 5500 1841 L 5553 1838 L 5605 1835 L 5608 1783 z M 5920 1785 L 5920 1730 L 5865 1730 L 5810 1730 L 5810 1785 L 5810 1840 L 5865 1840 L 5920 1840 L 5920 1785 z M 6230 1785 L 6230 1730 L 6175 1730 L 6120 1730 L 6120 1778 C 6120 1805 6123 1830 6127 1833 C 6130 1837 6155 1840 6182 1840 L 6230 1840 L 6230 1785 z M 6540 1785 L 6540 1730 L 6492 1730 C 6465 1730 6441 1732 6439 1734 C 6437 1736 6437 1761 6438 1789 L 6442 1840 L 6491 1840 L 6540 1840 L 6540 1785 z M 6858 1783 L 6861 1730 L 6806 1730 L 6750 1730 L 6750 1786 L 6750 1841 L 6803 1838 L 6855 1835 L 6858 1783 z M 7170 1785 L 7170 1730 L 7115 1730 L 7060 1730 L 7060 1785 L 7060 1840 L 7115 1840 L 7170 1840 L 7170 1785 z M 7480 1785 L 7480 1730 L 7425 1730 L 7370 1730 L 7370 1778 C 7370 1805 7373 1830 7377 1833 C 7380 1837 7405 1840 7432 1840 L 7480 1840 L 7480 1785 z M 7790 1785 L 7790 1730 L 7740 1730 L 7690 1730 L 7690 1785 L 7690 1840 L 7740 1840 L 7790 1840 L 7790 1785 z M 8108 1783 L 8111 1730 L 8056 1730 L 8000 1730 L 8000 1786 L 8000 1841 L 8053 1838 L 8105 1835 L 8108 1783 z M 8420 1785 L 8420 1730 L 8365 1730 L 8310 1730 L 8310 1785 L 8310 1840 L 8365 1840 L 8420 1840 L 8420 1785 z M 8730 1785 L 8730 1730 L 8675 1730 L 8620 1730 L 8620 1778 C 8620 1805 8623 1830 8627 1833 C 8630 1837 8655 1840 8682 1840 L 8730 1840 L 8730 1785 z M 9040 1785 L 9040 1730 L 8990 1730 L 8940 1730 L 8940 1785 L 8940 1840 L 8990 1840 L 9040 1840 L 9040 1785 z M 9358 1783 L 9361 1730 L 9306 1730 L 9250 1730 L 9250 1786 L 9250 1841 L 9303 1838 L 9355 1835 L 9358 1783 z M 9670 1785 L 9670 1730 L 9615 1730 L 9560 1730 L 9560 1785 L 9560 1840 L 9615 1840 L 9670 1840 L 9670 1785 z M 9980 1784 L 9980 1729 L 9928 1732 L 9875 1735 L 9872 1774 C 9867 1833 9873 1840 9930 1840 L 9980 1840 L 9980 1784 z M 10290 1785 L 10290 1730 L 10240 1730 L 10190 1730 L 10190 1785 L 10190 1840 L 10240 1840 L 10290 1840 L 10290 1785 z M 10608 1783 L 10611 1730 L 10556 1730 L 10500 1730 L 10500 1786 L 10500 1841 L 10553 1838 L 10605 1835 L 10608 1783 z M 10920 1785 L 10920 1730 L 10865 1730 L 10810 1730 L 10810 1785 L 10810 1840 L 10865 1840 L 10920 1840 L 10920 1785 z M 11230 1785 L 11230 1730 L 11175 1730 L 11120 1730 L 11120 1778 C 11120 1805 11123 1830 11127 1833 C 11130 1837 11155 1840 11182 1840 L 11230 1840 L 11230 1785 z M 11540 1785 L 11540 1730 L 11490 1730 L 11440 1730 L 11440 1785 L 11440 1840 L 11490 1840 L 11540 1840 L 11540 1785 z M 11858 1783 L 11861 1730 L 11806 1730 L 11750 1730 L 11750 1786 L 11750 1841 L 11803 1838 L 11855 1835 L 11858 1783 z M 12170 1785 L 12170 1730 L 12115 1730 L 12060 1730 L 12060 1785 L 12060 1840 L 12115 1840 L 12170 1840 L 12170 1785 z M 12480 1785 L 12480 1730 L 12425 1730 L 12370 1730 L 12370 1778 C 12370 1805 12373 1830 12377 1833 C 12380 1837 12405 1840 12432 1840 L 12480 1840 L 12480 1785 z M 12790 1785 L 12790 1730 L 12740 1730 L 12690 1730 L 12690 1785 L 12690 1840 L 12740 1840 L 12790 1840 L 12790 1785 z M 13108 1783 L 13111 1730 L 13056 1730 L 13000 1730 L 13000 1786 L 13000 1841 L 13053 1838 L 13105 1835 L 13108 1783 z M 13420 1785 L 13420 1730 L 13365 1730 L 13310 1730 L 13310 1785 L 13310 1840 L 13365 1840 L 13420 1840 L 13420 1785 z M 13730 1785 L 13730 1730 L 13675 1730 L 13620 1730 L 13620 1778 C 13620 1805 13623 1830 13627 1833 C 13630 1837 13655 1840 13682 1840 L 13730 1840 L 13730 1785 z M 14042 1789 C 14043 1761 14043 1736 14041 1734 C 14039 1732 14015 1730 13988 1730 L 13940 1730 L 13940 1785 L 13940 1840 L 13989 1840 L 14038 1840 L 14042 1789 z M 14358 1783 L 14361 1730 L 14306 1730 L 14250 1730 L 14250 1786 L 14250 1841 L 14303 1838 L 14355 1835 L 14358 1783 z M 14670 1785 L 14670 1730 L 14615 1730 L 14560 1730 L 14560 1785 L 14560 1840 L 14615 1840 L 14670 1840 L 14670 1785 z M 14980 1785 L 14980 1730 L 14925 1730 L 14870 1730 L 14870 1778 C 14870 1805 14873 1830 14877 1833 C 14880 1837 14905 1840 14932 1840 L 14980 1840 L 14980 1785 z M 15290 1785 L 15290 1730 L 15240 1730 L 15190 1730 L 15190 1785 L 15190 1840 L 15240 1840 L 15290 1840 L 15290 1785 z M 15608 1783 L 15611 1730 L 15556 1730 L 15500 1730 L 15500 1786 L 15500 1841 L 15553 1838 L 15605 1835 L 15608 1783 z M 15920 1785 L 15920 1730 L 15865 1730 L 15810 1730 L 15810 1785 L 15810 1840 L 15865 1840 L 15920 1840 L 15920 1785 z M 16230 1785 L 16230 1730 L 16175 1730 L 16120 1730 L 16120 1778 C 16120 1805 16123 1830 16127 1833 C 16130 1837 16155 1840 16182 1840 L 16230 1840 L 16230 1785 z M 16540 1785 L 16540 1730 L 16492 1730 C 16465 1730 16441 1732 16439 1734 C 16437 1736 16437 1761 16438 1789 L 16442 1840 L 16491 1840 L 16540 1840 L 16540 1785 z M 290 1015 L 290 960 L 240 960 L 190 960 L 190 1015 L 190 1070 L 240 1070 L 290 1070 L 290 1015 z M 608 1013 L 611 960 L 556 960 L 500 960 L 500 1016 L 500 1071 L 553 1068 L 605 1065 L 608 1013 z M 920 1015 L 920 960 L 865 960 L 810 960 L 810 1015 L 810 1070 L 865 1070 L 920 1070 L 920 1015 z M 1230 1015 L 1230 960 L 1175 960 L 1120 960 L 1120 1008 C 1120 1035 1123 1060 1127 1063 C 1130 1067 1155 1070 1182 1070 L 1230 1070 L 1230 1015 z M 1540 1015 L 1540 960 L 1490 960 L 1440 960 L 1440 1015 L 1440 1070 L 1490 1070 L 1540 1070 L 1540 1015 z M 1858 1013 L 1861 960 L 1806 960 L 1750 960 L 1750 1016 L 1750 1071 L 1803 1068 L 1855 1065 L 1858 1013 z M 2170 1015 L 2170 960 L 2115 960 L 2060 960 L 2060 1015 L 2060 1070 L 2115 1070 L 2170 1070 L 2170 1015 z M 2480 1015 L 2480 960 L 2425 960 L 2370 960 L 2370 1008 C 2370 1035 2373 1060 2377 1063 C 2380 1067 2405 1070 2432 1070 L 2480 1070 L 2480 1015 z M 2790 1015 L 2790 960 L 2740 960 L 2690 960 L 2690 1015 L 2690 1070 L 2740 1070 L 2790 1070 L 2790 1015 z M 3108 1013 L 3111 960 L 3056 960 L 3000 960 L 3000 1016 L 3000 1071 L 3053 1068 L 3105 1065 L 3108 1013 z M 3420 1015 L 3420 960 L 3365 960 L 3310 960 L 3310 1015 L 3310 1070 L 3365 1070 L 3420 1070 L 3420 1015 z M 3730 1015 L 3730 960 L 3675 960 L 3620 960 L 3620 1008 C 3620 1035 3623 1060 3627 1063 C 3630 1067 3655 1070 3682 1070 L 3730 1070 L 3730 1015 z M 4040 1015 L 4040 960 L 3990 960 L 3940 960 L 3940 1015 L 3940 1070 L 3990 1070 L 4040 1070 L 4040 1015 z M 4360 1015 L 4360 960 L 4305 960 L 4250 960 L 4250 1015 L 4250 1070 L 4305 1070 L 4360 1070 L 4360 1015 z M 4670 1015 L 4670 960 L 4615 960 L 4560 960 L 4560 1015 L 4560 1070 L 4615 1070 L 4670 1070 L 4670 1015 z M 4980 1015 L 4980 960 L 4925 960 L 4870 960 L 4870 1008 C 4870 1035 4873 1060 4877 1063 C 4880 1067 4905 1070 4932 1070 L 4980 1070 L 4980 1015 z M 5290 1015 L 5290 960 L 5240 960 L 5190 960 L 5190 1015 L 5190 1070 L 5240 1070 L 5290 1070 L 5290 1015 z M 5608 1013 L 5611 960 L 5556 960 L 5500 960 L 5500 1016 L 5500 1071 L 5553 1068 L 5605 1065 L 5608 1013 z M 5920 1015 L 5920 960 L 5865 960 L 5810 960 L 5810 1008 C 5810 1035 5813 1060 5817 1063 C 5820 1067 5845 1070 5872 1070 L 5920 1070 L 5920 1015 z M 6230 1015 L 6230 960 L 6175 960 L 6120 960 L 6120 1015 L 6120 1070 L 6175 1070 L 6230 1070 L 6230 1015 z M 6540 1015 L 6540 960 L 6490 960 L 6440 960 L 6440 1015 L 6440 1070 L 6490 1070 L 6540 1070 L 6540 1015 z M 6858 1013 L 6861 960 L 6806 960 L 6750 960 L 6750 1016 L 6750 1071 L 6803 1068 L 6855 1065 L 6858 1013 z M 7170 1015 L 7170 960 L 7115 960 L 7060 960 L 7060 1015 L 7060 1070 L 7115 1070 L 7170 1070 L 7170 1015 z M 7480 1015 L 7480 960 L 7425 960 L 7370 960 L 7370 1008 C 7370 1035 7373 1060 7377 1063 C 7380 1067 7405 1070 7432 1070 L 7480 1070 L 7480 1015 z M 7790 1015 L 7790 960 L 7740 960 L 7690 960 L 7690 1015 L 7690 1070 L 7740 1070 L 7790 1070 L 7790 1015 z M 8108 1013 L 8111 960 L 8056 960 L 8000 960 L 8000 1016 L 8000 1071 L 8053 1068 L 8105 1065 L 8108 1013 z M 8420 1015 L 8420 960 L 8365 960 L 8310 960 L 8310 1015 L 8310 1070 L 8365 1070 L 8420 1070 L 8420 1015 z M 8730 1015 L 8730 960 L 8675 960 L 8620 960 L 8620 1008 C 8620 1035 8623 1060 8627 1063 C 8630 1067 8655 1070 8682 1070 L 8730 1070 L 8730 1015 z M 9040 1015 L 9040 960 L 8990 960 L 8940 960 L 8940 1015 L 8940 1070 L 8990 1070 L 9040 1070 L 9040 1015 z M 9358 1013 L 9361 960 L 9306 960 L 9250 960 L 9250 1016 L 9250 1071 L 9303 1068 L 9355 1065 L 9358 1013 z M 9670 1015 L 9670 960 L 9615 960 L 9560 960 L 9560 1015 L 9560 1070 L 9615 1070 L 9670 1070 L 9670 1015 z M 9980 1015 L 9980 960 L 9925 960 L 9870 960 L 9870 1008 C 9870 1035 9873 1060 9877 1063 C 9880 1067 9905 1070 9932 1070 L 9980 1070 L 9980 1015 z M 10290 1015 L 10290 960 L 10240 960 L 10190 960 L 10190 1015 L 10190 1070 L 10240 1070 L 10290 1070 L 10290 1015 z M 10608 1013 L 10611 960 L 10556 960 L 10500 960 L 10500 1016 L 10500 1071 L 10553 1068 L 10605 1065 L 10608 1013 z M 10918 1013 L 10921 960 L 10866 960 L 10810 960 L 10810 1016 L 10810 1071 L 10863 1068 L 10915 1065 L 10918 1013 z M 11230 1015 L 11230 960 L 11175 960 L 11120 960 L 11120 1008 C 11120 1035 11123 1060 11127 1063 C 11130 1067 11155 1070 11182 1070 L 11230 1070 L 11230 1015 z M 11540 1015 L 11540 960 L 11490 960 L 11440 960 L 11440 1015 L 11440 1070 L 11490 1070 L 11540 1070 L 11540 1015 z M 11858 1013 L 11861 960 L 11806 960 L 11750 960 L 11750 1016 L 11750 1071 L 11803 1068 L 11855 1065 L 11858 1013 z M 12170 1015 L 12170 960 L 12115 960 L 12060 960 L 12060 1015 L 12060 1070 L 12115 1070 L 12170 1070 L 12170 1015 z M 12480 1015 L 12480 960 L 12425 960 L 12370 960 L 12370 1008 C 12370 1035 12373 1060 12377 1063 C 12380 1067 12405 1070 12432 1070 L 12480 1070 L 12480 1015 z M 12790 1015 L 12790 960 L 12740 960 L 12690 960 L 12690 1015 L 12690 1070 L 12740 1070 L 12790 1070 L 12790 1015 z M 13108 1013 L 13111 960 L 13056 960 L 13000 960 L 13000 1016 L 13000 1071 L 13053 1068 L 13105 1065 L 13108 1013 z M 13420 1015 L 13420 960 L 13365 960 L 13310 960 L 13310 1015 L 13310 1070 L 13365 1070 L 13420 1070 L 13420 1015 z M 13730 1015 L 13730 960 L 13675 960 L 13620 960 L 13620 1008 C 13620 1035 13623 1060 13627 1063 C 13630 1067 13655 1070 13682 1070 L 13730 1070 L 13730 1015 z M 14040 1015 L 14040 960 L 13990 960 L 13940 960 L 13940 1015 L 13940 1070 L 13990 1070 L 14040 1070 L 14040 1015 z M 14360 1015 L 14360 960 L 14305 960 L 14250 960 L 14250 1015 L 14250 1070 L 14305 1070 L 14360 1070 L 14360 1015 z M 14670 1015 L 14670 960 L 14615 960 L 14560 960 L 14560 1015 L 14560 1070 L 14615 1070 L 14670 1070 L 14670 1015 z M 14980 1015 L 14980 960 L 14925 960 L 14870 960 L 14870 1008 C 14870 1035 14873 1060 14877 1063 C 14880 1067 14905 1070 14932 1070 L 14980 1070 L 14980 1015 z M 15290 1015 L 15290 960 L 15240 960 L 15190 960 L 15190 1015 L 15190 1070 L 15240 1070 L 15290 1070 L 15290 1015 z M 15608 1013 L 15611 960 L 15556 960 L 15500 960 L 15500 1016 L 15500 1071 L 15553 1068 L 15605 1065 L 15608 1013 z M 15920 1015 L 15920 960 L 15865 960 L 15810 960 L 15810 1015 L 15810 1070 L 15865 1070 L 15920 1070 L 15920 1015 z M 16230 1015 L 16230 960 L 16175 960 L 16120 960 L 16120 1015 L 16120 1070 L 16175 1070 L 16230 1070 L 16230 1015 z M 16540 1015 L 16540 960 L 16490 960 L 16440 960 L 16440 1015 L 16440 1070 L 16490 1070 L 16540 1070 L 16540 1015 z" stroke-linecap="round" />
</g>
</g>
</g>
</svg>