<?xml version="1.0" standalone="no"?>
<!DOCTYPE svg PUBLIC "-//W3C//DTD SVG 20010904//EN"
 "http://www.w3.org/TR/2001/REC-SVG-20010904/DTD/svg10.dtd">
<svg version="1.0" xmlns="http://www.w3.org/2000/svg"
 width="1024.000000pt" height="1024.000000pt" viewBox="0 0 1024.000000 1024.000000"
 preserveAspectRatio="xMidYMid meet">

<g transform="translate(0.000000,1024.000000) scale(0.100000,-0.100000)"
fill="#000000" stroke="none">
<path d="M0 9698 l0 -543 30 -20 c16 -11 32 -30 35 -42 3 -13 10 -23 15 -23 6
0 10 -7 10 -15 0 -8 6 -15 14 -15 9 0 17 -15 21 -40 4 -25 12 -40 21 -40 11 0
14 -18 14 -80 0 -44 -4 -80 -9 -80 -6 0 -20 -27 -32 -60 -12 -33 -32 -72 -45
-87 -12 -15 -21 -30 -18 -35 3 -5 -8 -11 -25 -14 l-31 -6 0 -2154 0 -2154 43
0 c24 0 47 -4 53 -8 5 -5 25 -15 44 -22 50 -20 113 -85 127 -134 30 -99 -1
-235 -85 -371 -31 -50 -53 -171 -51 -280 1 -55 -1 -122 -6 -150 -13 -91 -46
-179 -70 -189 -8 -3 -14 -9 -13 -13 2 -5 -7 -19 -19 -33 l-23 -24 0 -1233 c0
-678 2 -1233 5 -1233 10 0 147 202 195 290 29 52 75 125 102 162 26 37 48 75
48 85 0 9 3 14 6 10 14 -13 170 266 159 283 -3 6 -1 18 5 27 9 16 10 15 5 -4
-4 -13 -4 -23 -1 -23 8 0 46 86 46 103 0 8 9 22 20 32 11 10 20 24 20 31 0 8
9 28 20 46 24 39 25 49 5 42 -11 -5 -13 -2 -9 10 4 10 12 15 20 12 19 -7 49
51 89 171 20 58 43 119 51 135 9 16 13 36 10 44 -3 7 1 30 10 51 13 35 13 16
-1 -34 -3 -10 6 5 20 32 14 28 43 109 66 180 28 88 51 141 70 163 16 18 29 41
29 52 0 10 4 22 10 25 5 3 10 14 10 24 0 10 6 31 14 45 8 15 20 54 27 87 7 32
17 59 21 59 4 0 8 8 8 18 0 11 6 32 14 48 22 46 28 74 17 74 -6 0 -11 -8 -11
-17 0 -9 -3 -14 -6 -10 -10 10 28 97 39 90 7 -4 8 0 3 12 -8 22 12 87 25 80 9
-6 13 16 9 44 -1 8 2 17 7 20 5 3 21 49 37 101 98 334 121 388 264 618 39 62
91 161 116 220 55 133 129 374 168 552 16 74 35 162 42 196 8 33 19 70 25 82
6 11 11 33 11 49 1 33 48 199 84 295 27 71 47 114 143 303 33 66 66 138 73
160 7 22 19 52 27 68 9 19 17 93 23 230 12 248 28 401 47 447 31 76 90 117
182 126 99 11 189 -23 241 -89 19 -24 19 -26 3 -20 -16 6 -16 5 -4 -10 11 -14
11 -20 1 -32 -7 -8 -10 -21 -7 -30 4 -8 1 -17 -4 -21 -7 -4 -9 -81 -6 -228 8
-346 -12 -559 -67 -699 -13 -34 -30 -80 -37 -102 -8 -22 -28 -67 -46 -101 -34
-64 -92 -230 -97 -276 -1 -16 -6 -31 -9 -35 -4 -3 -7 -20 -7 -37 0 -17 -7 -56
-16 -86 -8 -30 -22 -84 -30 -120 -8 -36 -18 -74 -23 -85 -14 -35 -61 -188 -67
-225 -4 -19 -10 -39 -14 -45 -5 -5 -11 -32 -15 -60 -3 -27 -10 -68 -15 -90 -5
-22 -10 -54 -10 -71 0 -17 -7 -37 -15 -44 -11 -9 -12 -16 -5 -25 8 -9 6 -14
-5 -19 -11 -4 -14 -12 -10 -27 5 -14 2 -25 -6 -30 -12 -7 -12 -9 0 -9 10 0 11
-4 3 -12 -6 -7 -13 -31 -17 -53 -4 -22 -11 -44 -15 -50 -4 -5 -11 -30 -15 -55
-4 -24 -13 -54 -20 -65 -7 -11 -12 -42 -10 -70 1 -27 -2 -55 -7 -62 -15 -18
-15 -220 -1 -239 9 -13 10 -21 2 -31 -8 -9 -8 -13 0 -13 15 0 14 -27 -1 -33
-10 -4 -10 -8 1 -15 11 -8 10 -14 -3 -34 -9 -14 -14 -32 -11 -41 4 -8 2 -18
-4 -22 -19 -11 -12 -35 10 -35 16 0 20 -5 16 -20 -3 -10 -1 -20 3 -22 4 -2 4
-26 1 -55 -6 -40 -4 -54 6 -58 11 -4 13 -20 8 -72 -11 -135 -12 -174 -3 -179
11 -7 10 -61 -2 -69 -20 -13 -10 -27 15 -21 27 7 33 -6 12 -29 -33 -38 -38
-47 -39 -78 -1 -19 2 -39 6 -46 5 -7 2 -25 -4 -42 -10 -22 -10 -32 -1 -43 8
-9 8 -16 2 -20 -11 -7 -41 -64 -41 -78 0 -4 9 -8 20 -8 19 0 28 -15 13 -22 -9
-3 -43 -62 -43 -73 0 -4 12 -4 28 -1 15 4 22 3 17 -1 -20 -15 -46 -88 -45
-128 0 -91 -6 -181 -14 -193 -4 -7 -5 -16 -2 -19 3 -3 2 -11 -3 -17 -15 -19
-24 -109 -11 -101 9 6 9 2 1 -13 -7 -14 -8 -23 -1 -27 6 -4 3 -16 -7 -31 -11
-18 -13 -28 -5 -33 8 -4 5 -19 -8 -49 -11 -24 -15 -44 -9 -47 14 -10 11 -45
-6 -51 -8 -4 -13 -10 -10 -14 6 -10 -11 -65 -35 -110 -10 -19 -18 -42 -17 -50
2 -14 -12 -66 -50 -185 -9 -27 -27 -65 -40 -83 -14 -18 -22 -39 -20 -46 3 -8
-8 -26 -24 -42 -16 -15 -29 -34 -29 -41 0 -8 -7 -16 -15 -19 -8 -4 -15 -12
-15 -20 0 -7 -11 -21 -25 -30 -20 -13 -23 -19 -14 -30 9 -11 8 -14 -1 -14 -7
0 -10 -6 -7 -14 3 -8 3 -17 -1 -20 -3 -4 -7 -16 -9 -29 -2 -12 -10 -25 -18
-30 -8 -4 -15 -16 -15 -27 0 -10 -3 -20 -7 -22 -5 -1 -16 -16 -25 -33 -12 -20
-25 -30 -41 -30 -22 1 -24 -3 -22 -41 2 -50 -12 -53 -74 -12 -42 28 -64 31
-44 6 21 -26 40 -148 24 -148 -10 0 -253 246 -354 357 -30 34 -68 80 -82 102
-15 22 -42 52 -60 65 -28 22 -35 23 -45 11 -9 -11 -9 -23 -2 -45 6 -16 7 -30
2 -30 -11 0 5 -55 25 -86 13 -21 13 -24 -2 -33 -16 -8 -16 -14 -5 -55 20 -75
10 -145 -23 -168 -6 -5 -6 -8 1 -8 7 0 14 -9 17 -20 3 -12 1 -20 -6 -19 -7 1
-32 1 -56 0 -38 -1 -43 -3 -38 -21 3 -10 -1 -24 -9 -31 -8 -6 -14 -17 -14 -23
0 -8 -11 -11 -30 -8 -28 4 -30 2 -30 -27 0 -21 -5 -31 -16 -31 -8 0 -12 5 -9
10 10 16 -4 12 -25 -8 -17 -15 -33 -18 -97 -14 -43 2 -89 10 -103 17 -14 7
-45 15 -70 19 -25 4 -79 18 -120 31 -105 33 -209 62 -248 69 l-32 6 0 -215 0
-215 5120 0 5120 0 0 5120 0 5120 -5120 0 -5120 0 0 -542z m652 380 c37 -12
68 -28 68 -34 0 -6 18 -19 40 -30 22 -10 40 -22 40 -26 0 -5 6 -8 13 -8 6 0
23 -11 37 -23 19 -17 25 -33 27 -67 1 -24 6 -46 12 -48 7 -2 11 -38 11 -93 0
-72 -3 -89 -15 -89 -10 0 -15 -10 -15 -30 0 -20 -5 -30 -15 -30 -8 0 -15 -9
-15 -20 0 -10 -9 -24 -20 -30 -11 -6 -20 -17 -20 -25 0 -23 -88 -101 -130
-115 -45 -15 -122 -6 -141 16 -9 11 -15 12 -26 2 -10 -8 -17 -8 -21 -1 -9 14
-87 53 -106 53 -8 0 -24 10 -36 22 -11 12 -20 17 -20 10 0 -8 -7 -7 -23 1 -30
16 -57 42 -57 56 0 6 -9 10 -21 8 -16 -1 -23 7 -34 36 -7 22 -22 45 -33 53
-26 18 -38 86 -22 125 7 16 16 29 20 29 4 0 10 27 14 60 4 33 10 60 14 60 4 0
31 23 61 50 29 28 57 50 63 50 5 0 16 6 24 14 8 8 36 18 62 21 26 4 54 9 62
12 8 4 26 8 39 9 13 2 26 6 30 9 9 10 57 0 133 -27z m3293 -28 c3 -5 -1 -10
-9 -10 -9 0 -16 5 -16 10 0 6 4 10 9 10 6 0 13 -4 16 -10z m113 -7 c-15 -2
-42 -2 -60 0 -18 2 -6 4 27 4 33 0 48 -2 33 -4z m555 0 c-7 -2 -19 -2 -25 0
-7 3 -2 5 12 5 14 0 19 -2 13 -5z m-1116 -19 c-3 -3 -12 -4 -19 -1 -8 3 -5 6
6 6 11 1 17 -2 13 -5z m-37 -8 c0 -2 -27 -13 -61 -26 -90 -32 -172 -84 -220
-137 -108 -122 -180 -277 -199 -425 -5 -46 -14 -164 -19 -263 -10 -179 -12
-241 -31 -810 -16 -484 -21 -605 -30 -700 -8 -93 -7 -30 5 495 8 360 13 708 9
650 -11 -153 -34 -727 -39 -965 -16 -720 -44 -1587 -51 -1545 -2 8 -6 38 -10
65 -7 47 -8 48 -15 20 -3 -16 -7 -48 -8 -70 -1 -30 -4 -36 -11 -25 -13 20 -13
102 0 135 6 16 12 240 15 562 4 518 9 603 36 603 5 0 9 16 9 36 0 20 -4 33 -9
29 -13 -7 -28 24 -26 55 7 124 18 502 20 705 3 318 2 301 21 319 13 13 17 65
24 312 13 413 31 517 120 663 28 45 56 89 64 97 8 7 16 17 18 22 6 15 129 112
161 128 29 14 30 14 12 -1 -99 -77 -193 -181 -224 -246 -12 -24 -11 -24 6 1
78 106 204 225 283 265 58 30 150 61 150 51z m3530 -350 c-1 -12 -35 -56 -44
-56 -12 0 -6 58 7 63 21 7 37 4 37 -7z m-5668 -82 c35 -9 79 -24 98 -35 19
-10 85 -35 145 -54 104 -35 256 -104 280 -129 24 -24 94 -142 101 -171 4 -16
9 -34 13 -40 10 -17 30 -99 31 -127 0 -14 4 -28 8 -30 13 -5 23 -68 12 -68 -6
0 -10 -7 -10 -15 0 -8 5 -15 12 -15 7 0 22 -12 35 -27 14 -17 26 -24 30 -18 5
6 44 11 88 12 44 1 116 3 160 5 83 3 227 -23 233 -42 2 -5 9 -10 15 -10 25 0
203 -153 213 -182 4 -15 8 -17 14 -8 5 8 7 -12 6 -43 -1 -31 2 -57 7 -57 5 0
3 -8 -4 -17 -10 -11 -10 -14 -1 -9 8 5 12 -1 11 -21 0 -25 -1 -26 -10 -8 -7
15 -8 10 -4 -20 3 -29 2 -36 -6 -25 -8 12 -9 10 -8 -10 2 -25 -19 -80 -31 -80
-3 0 -14 -18 -24 -40 -10 -22 -24 -40 -31 -40 -7 0 -21 -7 -29 -16 -9 -9 -24
-13 -35 -9 -11 3 -22 1 -26 -5 -12 -20 -127 -70 -161 -70 -19 0 -34 -5 -34
-10 0 -6 -6 -10 -12 -9 -7 2 -31 -3 -54 -10 -30 -10 -53 -11 -87 -3 -41 8 -47
7 -48 -7 0 -10 -2 -11 -6 -4 -2 7 -19 20 -37 28 -22 11 -40 31 -55 63 -12 26
-26 55 -32 64 -5 10 -9 25 -9 33 0 8 -4 15 -10 15 -5 0 -12 17 -16 38 -3 20
-17 54 -30 74 -14 22 -24 53 -24 73 0 29 -4 35 -17 33 -13 -2 -17 3 -16 19 2
14 -5 27 -16 33 -12 6 -17 17 -14 29 3 10 0 22 -6 25 -6 4 -11 18 -11 32 0 31
-11 30 -107 -2 -115 -39 -163 -50 -229 -53 -32 -1 -66 -7 -76 -12 -10 -5 -62
-11 -117 -12 -89 -2 -102 0 -123 19 -16 15 -38 21 -73 23 -61 2 -88 -11 -56
-28 11 -7 21 -18 21 -26 0 -9 12 -29 27 -46 41 -45 73 -142 79 -234 16 -251
14 -308 -13 -377 -18 -45 -30 -65 -40 -61 -7 3 -13 -1 -13 -10 0 -9 -25 -28
-57 -43 -75 -37 -171 -45 -222 -18 -20 10 -38 21 -41 24 -12 13 -66 44 -72 42
-5 -1 -8 3 -8 9 0 5 -4 8 -10 4 -5 -3 -17 6 -26 20 -9 14 -23 25 -30 25 -8 0
-14 7 -14 16 0 9 -11 25 -25 36 -14 11 -25 24 -25 30 0 6 -6 19 -14 27 -8 9
-33 52 -56 96 -49 95 -60 162 -36 219 9 21 16 46 16 55 0 18 108 121 128 121
6 0 12 4 12 9 0 5 11 12 25 15 14 4 23 11 20 16 -3 6 3 10 14 10 12 0 21 3 21
8 0 4 19 16 43 27 23 11 46 25 50 32 4 7 18 13 31 13 13 0 43 7 67 15 31 11
45 12 50 4 10 -17 47 -1 55 23 5 17 -1 29 -25 50 -17 15 -31 35 -31 43 0 8 -4
15 -8 15 -5 0 -17 19 -27 43 -9 23 -32 74 -50 112 -18 39 -36 82 -39 97 -3 15
-13 33 -21 42 -8 8 -15 24 -15 35 0 12 -5 29 -11 39 -13 20 -3 196 10 188 4
-3 6 8 3 23 -2 16 1 32 7 35 6 4 11 15 11 23 0 9 10 32 23 50 16 26 28 33 45
30 12 -3 20 -2 18 1 -12 11 16 40 46 47 18 5 56 14 83 20 72 18 135 17 207 -1z
m3108 -198 c0 -2 -9 -6 -20 -9 -11 -3 -18 -1 -14 4 5 9 34 13 34 5z m3618 -71
c1 -25 -1 -27 -8 -10 -5 11 -8 36 -8 55 0 32 1 33 8 10 4 -14 8 -38 8 -55z
m-575 -22 c-7 -2 -19 -2 -25 0 -7 3 -2 5 12 5 14 0 19 -2 13 -5z m407 -70
c-11 -17 -11 -17 -6 0 3 10 6 24 7 30 0 9 2 9 5 0 3 -7 0 -20 -6 -30z m398 9
c26 -2 42 -9 42 -17 0 -8 12 -15 28 -17 15 -2 26 -8 25 -15 -2 -7 3 -13 10
-13 8 0 20 -11 27 -25 7 -14 20 -25 28 -25 21 0 41 -30 42 -63 0 -16 7 -30 16
-34 8 -3 20 -16 25 -29 4 -13 15 -24 24 -24 8 0 15 -7 15 -16 0 -9 9 -27 20
-42 15 -18 17 -28 9 -33 -8 -4 -3 -13 15 -24 25 -17 26 -19 10 -36 -12 -14
-13 -19 -4 -19 10 0 12 -26 6 -127 -6 -109 -10 -131 -27 -148 -17 -17 -21 -18
-30 -5 -8 13 -13 11 -34 -12 -15 -18 -34 -28 -51 -28 -26 0 -26 -1 -10 -19 16
-17 16 -19 -5 -24 -30 -8 -42 1 -36 25 5 17 2 19 -18 14 -15 -4 -25 -1 -28 9
-3 7 -24 19 -46 25 -23 6 -45 20 -51 30 -6 11 -17 20 -25 20 -8 0 -15 7 -15
15 0 8 -4 15 -8 15 -11 0 -34 47 -39 80 -2 14 -11 35 -19 47 -8 12 -14 34 -14
48 0 14 -4 25 -8 25 -4 0 -13 14 -19 30 -8 21 -18 30 -34 30 -22 0 -22 1 -13
98 5 53 9 120 10 147 2 72 5 84 14 50 l8 -30 1 33 c1 37 17 43 24 10 4 -20 4
-19 6 5 1 35 49 90 70 81 9 -4 35 -9 59 -12z m-3008 -34 c0 -7 -4 -20 -10 -28
-15 -24 11 -31 38 -9 27 21 77 26 87 8 5 -6 12 -4 21 8 7 10 14 13 14 8 0 -6
-5 -16 -10 -21 -6 -6 -8 -18 -4 -27 5 -14 8 -14 20 -2 8 7 14 18 14 23 0 13
71 21 92 10 22 -11 70 0 61 15 -3 6 -1 7 5 3 6 -4 9 -13 6 -20 -3 -8 -1 -17 5
-21 6 -3 11 -1 11 6 0 7 2 10 5 8 2 -3 1 -20 -4 -37 -6 -18 -6 -34 -1 -37 19
-11 -3 -35 -32 -35 -19 0 -27 -4 -22 -11 4 -8 0 -8 -15 0 -12 7 -26 9 -31 6
-6 -4 -10 -3 -9 2 3 18 -2 28 -9 17 -9 -14 -115 -27 -107 -13 11 16 -7 10 -22
-8 -8 -10 -12 -12 -8 -5 8 15 -7 16 -23 0 -10 -10 -16 -7 -28 11 -9 13 -19 19
-23 13 -3 -6 -30 -12 -58 -14 -63 -5 -66 0 -61 97 l3 65 47 0 c32 0 48 -4 48
-12z m440 -8 c6 -11 16 -17 25 -14 8 4 12 11 8 17 -3 6 -1 7 6 3 6 -4 9 -12 6
-17 -4 -5 -1 -9 4 -9 6 0 11 8 11 18 0 14 2 15 10 2 6 -9 5 -17 -2 -21 -6 -4
-8 -20 -4 -40 17 -89 19 -85 -48 -85 l-61 1 3 65 c5 100 18 125 42 80z m1918
-35 c2 -28 6 -35 12 -25 7 11 9 9 7 -7 0 -12 -3 -20 -6 -18 -2 3 -9 1 -15 -4
-6 -4 -20 -10 -32 -13 -18 -5 -21 0 -23 44 -2 58 3 69 32 64 18 -2 23 -11 25
-41z m-481 -16 c7 -13 13 -19 13 -14 0 6 5 2 11 -8 6 -9 14 -15 20 -12 5 3 6
0 4 -7 -3 -8 8 -21 25 -31 16 -10 30 -22 30 -27 0 -4 2 -15 5 -23 8 -20 -34
-15 -50 6 -7 9 -17 17 -23 17 -5 0 -13 7 -16 16 -3 8 -11 12 -17 8 -8 -4 -9
-3 -5 4 4 8 -3 16 -18 22 -20 7 -26 17 -26 38 0 49 25 55 47 11z m-87 -10 c0
-6 -4 -7 -10 -4 -5 3 -10 11 -10 16 0 6 5 7 10 4 6 -3 10 -11 10 -16z m817
-46 c-3 -10 -5 -4 -5 12 0 17 2 24 5 18 2 -7 2 -21 0 -30z m-201 1 c-3 -9 -6
-18 -6 -20 0 -3 -4 -3 -10 1 -11 7 -2 35 12 35 6 0 7 -7 4 -16z m-1864 -26
c-7 -7 -12 -8 -12 -2 0 14 12 26 19 19 2 -3 -1 -11 -7 -17z m1838 -3 c6 -8 7
-27 2 -51 -7 -37 -10 -39 -47 -41 -78 -4 -86 2 -83 55 3 47 3 47 43 52 47 6
71 2 85 -15z m-2345 -30 c0 -26 -10 -31 -35 -15 -13 8 -12 11 5 24 27 21 30
20 30 -9z m175 5 c0 -5 -4 -10 -10 -10 -5 0 -10 5 -10 10 0 6 5 10 10 10 6 0
10 -4 10 -10z m1798 -15 c-3 -3 -9 2 -12 12 -6 14 -5 15 5 6 7 -7 10 -15 7
-18z m-2964 -10 c3 -8 1 -15 -4 -15 -6 0 -10 7 -10 15 0 8 2 15 4 15 2 0 6 -7
10 -15z m3563 -87 c-3 -8 -6 -5 -6 6 -1 11 2 17 5 13 3 -3 4 -12 1 -19z
m-4413 -120 c17 -23 12 -42 -9 -34 -15 5 -65 -44 -65 -65 0 -8 11 -30 24 -49
20 -30 29 -35 62 -35 28 0 39 -5 39 -15 0 -11 -12 -15 -49 -14 -45 0 -52 4
-82 40 -48 55 -46 92 7 149 23 25 45 45 50 45 4 0 15 -10 23 -22z m5196 -63
c10 -12 10 -15 -4 -15 -9 0 -16 7 -16 15 0 8 2 15 4 15 2 0 9 -7 16 -15z
m-5140 -4 c0 -13 -37 -24 -51 -15 -8 4 -7 9 2 15 19 12 49 11 49 0z m1728 -39
c2 -8 -3 -10 -14 -5 -35 13 -62 -70 -30 -96 16 -13 42 -5 50 15 7 18 26 9 26
-11 0 -9 -6 -12 -15 -9 -8 4 -15 1 -15 -6 0 -7 -13 -10 -32 -8 -32 3 -33 4
-36 55 -3 44 0 53 20 67 24 17 39 17 46 -2z m200 -24 c15 -15 15 -45 0 -54 -8
-5 -9 -2 -5 9 9 25 -20 49 -44 37 -21 -12 -26 -40 -6 -40 9 0 8 -3 -2 -9 -7
-5 -10 -14 -7 -20 9 -14 39 -14 54 1 15 15 24 6 16 -16 -7 -19 -64 -22 -82 -4
-17 17 -15 68 5 90 18 21 53 24 71 6z m300 -5 c5 -10 8 -29 7 -43 -2 -14 -4
-29 -4 -34 -1 -6 -7 -1 -15 10 -9 12 -11 21 -4 25 12 8 1 49 -13 49 -12 0 -28
-41 -22 -57 3 -7 0 -13 -6 -13 -6 0 -11 15 -11 34 0 24 5 36 18 39 33 9 41 7
50 -10z m-148 -53 c0 -33 -4 -60 -10 -60 -5 0 -10 23 -10 50 0 41 -3 50 -17
50 -15 0 -16 2 -3 10 32 21 40 11 40 -50z m1853 43 c-13 -8 -23 -23 -23 -33 0
-10 -10 -20 -22 -23 -22 -6 -38 -1 -38 12 0 12 73 61 90 60 10 0 8 -5 -7 -16z
m-2118 -3 c-28 -12 -37 -12 -30 0 3 6 16 10 28 9 21 0 21 -1 2 -9z m-10 -58
c0 -19 -5 -32 -12 -32 -8 0 -13 14 -13 36 0 24 4 34 13 32 6 -3 12 -19 12 -36z
m390 -40 c-7 -8 -35 7 -35 18 0 6 7 6 20 -2 10 -7 17 -14 15 -16z m1719 -9
c-6 -22 -4 -25 10 -20 9 4 16 2 16 -3 0 -10 -33 -14 -42 -5 -8 8 3 55 13 55 5
0 6 -12 3 -27z m66 12 c-10 -12 -9 -15 6 -16 11 0 14 -3 7 -6 -7 -2 -13 -11
-13 -19 0 -8 -4 -14 -10 -14 -11 0 -14 53 -3 63 13 14 25 6 13 -8z m-110 -20
c0 -8 -4 -15 -10 -15 -5 0 -7 7 -4 15 4 8 8 15 10 15 2 0 4 -7 4 -15z m-30
-25 c0 -5 -2 -10 -4 -10 -3 0 -8 5 -11 10 -3 6 -1 10 4 10 6 0 11 -4 11 -10z
m168 -56 c35 -4 52 -10 52 -19 0 -24 -16 -26 -154 -19 -118 6 -136 9 -136 24
0 9 2 19 5 22 5 5 153 0 233 -8z m-1996 -461 c29 -17 33 -24 33 -64 0 -30 4
-43 13 -41 20 4 14 -27 -8 -40 -11 -7 -20 -18 -20 -24 0 -27 -40 -46 -107 -51
-97 -6 -113 -11 -113 -32 0 -23 15 -35 64 -51 31 -10 43 -10 62 1 13 7 24 18
24 24 0 17 27 38 34 27 12 -20 14 -139 1 -161 -8 -15 -15 -20 -19 -12 -4 6
-17 11 -29 11 -14 0 -18 -3 -10 -8 17 -11 6 -45 -20 -61 l-22 -14 20 23 20 23
-22 -12 c-12 -6 -27 -19 -32 -29 -6 -9 -11 -12 -11 -7 0 6 18 41 39 78 22 37
37 67 34 67 -2 0 -16 -9 -30 -20 -14 -11 -23 -20 -20 -20 4 0 -3 -18 -14 -40
-11 -21 -22 -47 -24 -57 -2 -10 -4 -20 -4 -23 -1 -3 -6 2 -11 10 -7 11 -8 5
-4 -20 l6 -35 -22 30 c-20 28 -21 28 -15 5 12 -42 75 -139 94 -145 20 -6 51
-71 51 -106 0 -18 -2 -20 -16 -9 -13 11 -24 5 -74 -45 l-60 -59 22 -23 c12
-13 19 -25 16 -28 -2 -3 -15 6 -27 19 -17 18 -24 40 -27 87 -3 35 -12 86 -20
113 -25 89 -13 175 16 106 14 -33 77 -102 109 -120 30 -15 26 1 -5 25 -47 36
-85 78 -103 114 l-18 35 -18 -35 c-35 -70 -143 -147 -188 -134 -15 4 -18 3 -8
-3 14 -10 10 -14 -23 -26 -17 -6 -17 -5 -5 11 12 15 12 16 -3 10 -14 -5 -18
-1 -18 16 0 22 3 23 66 19 l66 -4 52 54 c70 72 92 156 53 205 -5 7 -11 43 -12
79 -3 58 -1 67 16 71 20 6 21 9 24 138 3 144 42 190 152 182 36 -3 76 -13 95
-24z m-441 -10 c20 -12 29 -25 27 -38 -1 -11 5 -35 15 -54 22 -45 22 -51 -7
-45 -32 6 -40 -9 -41 -76 0 -50 -2 -55 -23 -58 -14 -2 -22 -9 -19 -17 3 -7 -6
-18 -20 -24 -14 -7 -23 -14 -20 -17 3 -3 13 -2 23 4 12 7 22 4 35 -9 11 -11
19 -21 19 -23 0 -2 -17 -6 -39 -10 -21 -3 -45 -13 -52 -22 -12 -15 -11 -16 6
-11 11 4 34 3 50 -2 l30 -8 -27 -11 c-33 -14 -37 -32 -7 -32 18 0 19 -2 9 -15
-16 -19 -43 -19 -79 0 -23 11 -30 23 -36 60 -3 26 -20 100 -36 166 l-29 120
20 37 c28 52 43 69 76 87 39 20 89 19 125 -2z m104 -84 c9 -17 15 -37 13 -45
-2 -8 -12 6 -24 31 -23 50 -14 63 11 14z m929 -1 c15 -74 15 -131 -1 -146 -12
-13 -14 -28 -9 -78 7 -68 -6 -91 -44 -79 -11 4 -20 2 -20 -4 0 -6 7 -11 15
-11 17 0 18 -2 9 -24 -4 -10 -20 -17 -43 -17 -27 -1 -30 -3 -11 -6 36 -7 53
-23 40 -38 -7 -9 -6 -16 5 -25 39 -33 -3 -66 -71 -55 -67 10 -99 48 -107 126
-11 102 -9 121 28 209 48 115 103 170 172 170 26 0 34 -5 37 -22z m-1452 -71
c18 -14 59 -113 50 -121 -3 -4 -14 -6 -24 -6 -10 0 -27 -9 -38 -20 -17 -17
-19 -28 -14 -75 5 -37 3 -59 -6 -70 -7 -8 -10 -22 -6 -30 3 -8 1 -15 -4 -15
-6 0 -10 -9 -10 -19 0 -14 8 -21 28 -23 27 -4 26 -4 -8 -14 -44 -13 -41 -28 5
-32 26 -2 35 -8 35 -22 0 -22 -11 -30 -50 -36 -40 -7 -103 51 -124 113 -17 48
-21 140 -8 159 9 13 62 28 62 17 0 -5 11 -9 25 -9 16 -1 25 3 25 12 0 21 -23
27 -65 15 l-36 -10 6 32 c12 58 47 117 83 142 41 28 50 30 74 12z m522 -2 c4
-13 2 -14 -14 -5 -23 13 -26 20 -6 20 8 0 16 -7 20 -15z m-1074 1 c0 -3 -4 -8
-10 -11 -5 -3 -10 -1 -10 4 0 6 5 11 10 11 6 0 10 -2 10 -4z m2430 -14 c-8 -3
-27 -11 -42 -19 -38 -19 -35 -10 4 15 18 11 37 18 42 14 6 -3 4 -8 -4 -10z
m-2485 -48 c-35 -59 -22 -76 32 -43 l38 24 -16 -25 c-9 -14 -19 -38 -23 -54
-5 -21 -10 -26 -15 -17 -5 8 -8 1 -7 -17 1 -38 11 -32 35 22 25 58 55 86 89
86 43 0 73 -22 87 -63 11 -32 11 -38 -2 -46 -10 -5 -18 -28 -21 -60 -3 -31
-10 -55 -18 -58 -8 -3 -11 -10 -6 -17 13 -20 9 -86 -5 -86 -23 0 -14 -20 10
-21 l22 0 -22 -16 c-26 -18 -30 -33 -8 -33 8 0 15 -4 15 -9 0 -11 -31 -25 -49
-22 -29 5 -121 71 -121 87 0 11 5 14 16 10 9 -3 20 -3 25 0 14 9 -10 34 -32
34 -17 0 -19 8 -19 76 0 47 -4 73 -10 69 -5 -3 -10 -1 -10 5 0 7 -6 10 -14 7
-10 -4 -12 1 -9 16 2 12 -5 2 -16 -22 -12 -24 -21 -51 -21 -60 0 -14 -2 -14
-10 -1 -8 12 -10 11 -10 -7 0 -12 -7 -28 -15 -37 -8 -8 -15 -19 -15 -25 0 -6
-4 -11 -8 -11 -12 0 -15 -99 -4 -113 15 -20 24 -67 12 -67 -6 0 -8 -4 -5 -10
3 -6 -1 -7 -9 -4 -9 3 -16 9 -16 13 0 3 -17 15 -37 26 -49 26 -54 33 -46 78 6
42 45 89 66 81 20 -7 42 26 56 86 32 133 53 182 93 226 22 24 43 44 45 44 3 0
-7 -21 -22 -46z m2614 10 c23 -29 27 -64 11 -94 -7 -13 -6 -19 5 -24 8 -3 15
-10 15 -16 0 -6 -4 -8 -10 -5 -5 3 -10 -1 -10 -11 0 -13 -3 -14 -14 -5 -11 9
-15 6 -20 -14 -6 -24 -26 -36 -26 -15 0 5 -6 7 -14 4 -7 -3 -20 1 -28 9 -18
18 -88 18 -88 1 0 -7 6 -15 13 -18 6 -4 2 -4 -9 -2 -17 3 -20 -1 -16 -16 3
-14 8 -16 15 -9 6 6 20 11 31 11 20 0 20 0 0 -15 -28 -21 -4 -18 30 4 44 29
55 19 51 -50 -2 -32 1 -62 6 -65 18 -11 8 -19 -23 -20 -21 -1 -40 -10 -56 -29
-19 -23 -26 -25 -33 -14 -8 13 -3 -47 7 -78 7 -24 26 -14 20 11 -4 16 1 32 13
47 26 32 39 16 17 -21 -19 -32 -14 -53 9 -43 10 3 15 -1 15 -12 0 -9 -6 -15
-12 -13 -7 3 -20 -5 -30 -16 l-17 -21 -1 23 c0 12 -5 22 -10 22 -6 0 -22 11
-35 25 -14 13 -25 21 -26 17 -1 -4 -4 4 -9 18 -6 22 -8 23 -15 7 -7 -17 2 -60
27 -128 5 -15 29 -48 54 -74 24 -26 44 -52 44 -58 0 -10 -62 53 -95 96 -10 14
-22 24 -27 21 -4 -3 -22 8 -40 25 -26 24 -32 37 -30 66 2 20 -1 41 -5 48 -4 7
-9 23 -10 37 -2 14 -7 43 -12 65 -6 22 -12 55 -15 74 -5 29 -4 32 9 21 13 -10
15 -9 15 9 0 12 4 20 9 16 5 -3 13 5 16 17 23 78 84 175 100 160 4 -4 12 1 19
10 21 29 68 48 118 48 38 0 50 -5 67 -26z m56 -3 c-6 -5 -25 10 -25 20 0 5 6
4 14 -3 8 -7 12 -15 11 -17z m-1531 -18 c-10 -40 -15 -47 -25 -32 -17 27 -10
59 11 59 17 0 19 -4 14 -27z m-1464 -8 c13 -14 21 -27 18 -30 -3 -4 -2 -22 2
-41 7 -32 5 -36 -21 -50 -31 -15 -34 -27 -20 -86 9 -39 2 -48 -40 -48 -23 0
-24 -6 -4 -27 20 -19 13 -29 -27 -38 l-33 -7 44 -9 c54 -10 61 -17 37 -35 -16
-11 -17 -16 -6 -29 7 -8 10 -22 6 -30 -6 -16 -36 -21 -36 -6 0 6 -8 9 -17 9
-26 -1 -73 20 -73 32 0 5 -6 10 -14 10 -8 0 -22 10 -30 22 -15 21 -16 21 -17
3 0 -12 -5 -5 -11 15 -8 28 -11 31 -19 18 -6 -10 -5 -27 1 -43 6 -15 8 -31 5
-36 -3 -5 -1 -19 5 -31 9 -19 7 -18 -15 5 -25 28 -26 28 -51 12 -30 -20 -48
-10 -20 11 11 8 15 14 9 14 -6 0 -14 13 -18 30 -7 30 -28 51 -83 81 -27 15
-29 20 -23 50 5 25 12 33 30 34 12 1 25 -4 28 -12 3 -8 12 -12 19 -9 8 3 14 2
14 -2 0 -4 14 -15 30 -24 17 -9 30 -13 30 -7 0 6 4 7 10 4 5 -3 9 9 8 29 -1
19 -6 34 -12 33 -15 -3 -19 32 -6 48 20 24 36 17 47 -17 9 -32 9 -32 22 32 7
36 17 75 22 88 14 37 67 62 130 62 46 0 59 -4 79 -25z m3050 -7 c10 -17 24
-54 30 -82 6 -28 16 -63 21 -77 6 -14 11 -35 12 -47 0 -11 5 -18 11 -15 5 4 6
-3 2 -18 -4 -13 -11 -51 -15 -84 -7 -55 -25 -115 -34 -115 -2 0 -2 11 1 25 7
41 -6 28 -34 -32 -22 -50 -25 -62 -15 -89 13 -36 14 -84 2 -84 -4 0 -12 24
-17 53 -10 54 -2 104 36 232 27 88 34 135 22 135 -6 0 -14 -4 -17 -10 -13 -21
-24 -8 -23 28 1 57 -13 176 -23 188 -9 11 -2 24 13 24 4 0 17 -14 28 -32z
m-1530 -16 c0 -8 -3 -12 -7 -9 -3 4 -12 2 -20 -5 -21 -17 -29 -1 -10 20 10 10
14 23 10 27 -5 5 0 3 10 -4 9 -7 17 -20 17 -29z m522 16 c-2 -10 -6 -18 -7
-18 -1 0 -5 8 -7 18 -3 11 0 19 7 19 7 0 10 -8 7 -19z m-397 2 c-28 -12 -37
-12 -30 0 3 6 16 10 28 9 21 0 21 -1 2 -9z m972 -67 c-3 -10 -5 -4 -5 12 0 17
2 24 5 18 2 -7 2 -21 0 -30z m-1614 -73 c11 0 17 -8 17 -22 0 -24 -35 -88 -47
-88 -16 0 -28 16 -31 40 -2 14 -6 42 -9 62 l-5 38 28 -15 c16 -8 37 -15 47
-15z m977 6 c0 -3 -4 -8 -10 -11 -5 -3 -10 -1 -10 4 0 6 5 11 10 11 6 0 10 -2
10 -4z m962 -38 c-7 -7 -12 -23 -13 -37 l0 -26 -10 24 c-7 18 -5 28 7 43 10
10 20 16 22 13 3 -3 0 -11 -6 -17z m598 -6 c26 -26 27 -33 23 -88 -3 -32 -6
-60 -7 -61 -2 -2 -27 16 -57 40 -47 37 -54 46 -54 77 1 19 4 41 8 48 14 21 57
13 87 -16z m-400 -22 c0 -5 -5 -10 -11 -10 -5 0 -7 5 -4 10 3 6 8 10 11 10 2
0 4 -4 4 -10z m-3102 -12 c14 -14 16 -28 2 -28 -5 0 -14 9 -20 20 -12 22 -1
27 18 8z m3641 -27 c9 -17 8 -72 -4 -156 -9 -67 5 -101 45 -110 32 -7 50 -35
50 -76 0 -11 -20 -38 -44 -60 l-44 -40 1 -69 c1 -39 2 -70 4 -70 2 0 8 10 13
23 7 18 9 19 11 5 1 -10 2 -24 3 -30 1 -7 -2 -19 -7 -26 -7 -8 -4 -27 8 -55 9
-23 24 -59 32 -79 15 -35 38 -55 46 -40 3 4 8 52 11 107 7 101 17 128 37 108
14 -14 -8 -233 -24 -233 -5 0 -4 -7 3 -15 10 -13 9 -15 -9 -15 -11 0 -21 -4
-21 -9 0 -16 -39 1 -54 24 -8 12 -18 39 -21 59 -4 20 -11 39 -16 42 -5 3 -9
15 -9 27 0 15 -3 18 -8 9 -6 -8 -13 -1 -22 23 -7 19 -18 31 -23 28 -6 -4 -8 4
-4 18 7 28 -7 48 -47 69 -16 8 -36 26 -45 40 -15 23 -15 24 4 16 16 -6 18 -5
8 5 -20 20 -15 57 8 70 21 11 22 16 16 103 -3 54 -2 83 3 71 7 -16 9 -12 10
20 2 36 3 38 11 15 6 -16 7 13 5 82 -2 62 0 105 5 102 5 -3 9 -26 9 -51 0 -26
2 -44 5 -42 4 4 12 72 14 121 1 21 27 14 40 -11z m-1717 -78 c5 -55 -6 -61
-23 -15 -12 31 -2 105 11 82 4 -8 10 -38 12 -67z m1085 55 c-3 -8 -6 -5 -6 6
-1 11 2 17 5 13 3 -3 4 -12 1 -19z m-1327 2 c0 -5 -7 -10 -15 -10 -8 0 -14 -5
-12 -12 1 -6 -6 -14 -15 -16 -11 -2 -18 2 -18 12 0 16 26 35 48 36 6 0 12 -4
12 -10z m1694 -61 c-3 -5 -10 -7 -15 -3 -5 3 -7 10 -3 15 3 5 10 7 15 3 5 -3
7 -10 3 -15z m-1704 1 c0 -5 -5 -10 -11 -10 -5 0 -7 5 -4 10 3 6 8 10 11 10 2
0 4 -4 4 -10z m1666 -11 c19 -21 61 -19 76 4 7 12 55 -41 50 -55 -1 -5 7 -3
18 4 10 7 22 9 25 6 11 -10 -23 -114 -41 -129 -16 -13 -16 -12 -1 18 10 18 17
45 17 60 -1 27 -1 27 -15 8 -13 -17 -19 -18 -45 -8 -17 6 -30 8 -30 4 0 -12
47 -34 58 -27 6 3 8 -2 5 -12 -3 -14 -12 -17 -36 -14 -18 2 -27 0 -22 -5 6 -4
10 -20 10 -35 -1 -19 2 -24 10 -18 7 6 15 7 18 3 4 -3 -8 -17 -25 -30 l-32
-23 -48 47 c-61 60 -80 96 -68 127 5 15 5 27 -2 34 -15 15 16 62 41 62 10 0
26 -9 37 -21z m-3056 -54 c10 -12 10 -15 -3 -15 -8 0 -17 7 -21 15 -3 8 -2 15
3 15 5 0 14 -7 21 -15z m2251 -28 c-13 -13 -15 1 -4 30 7 17 8 17 11 -1 2 -10
-1 -23 -7 -29z m-2931 -22 c0 -8 -7 -15 -16 -15 -14 0 -14 3 -4 15 7 8 14 15
16 15 2 0 4 -7 4 -15z m257 -40 c3 -8 9 -13 13 -10 4 3 10 -2 14 -10 3 -8 3
-15 0 -15 -12 0 -94 62 -94 71 0 14 60 -19 67 -36z m3059 10 c6 -23 0 -45 -10
-34 -10 12 -15 59 -6 59 5 0 12 -11 16 -25z m-3373 -8 c-11 -16 -24 -22 -38
-19 -16 4 -18 2 -7 -9 19 -20 14 -31 -8 -19 -15 8 -30 8 -55 -1 -39 -14 -46
-29 -15 -29 11 0 20 5 20 10 0 6 5 10 10 10 18 0 10 -19 -11 -25 -12 -4 -18
-13 -15 -20 3 -8 -3 -15 -15 -17 -27 -4 -25 -22 3 -30 15 -4 17 -6 6 -7 -19
-1 -58 -34 -77 -66 -9 -15 -11 -16 -7 -2 3 10 0 17 -8 17 -23 0 -25 24 -7 78
22 68 34 79 133 117 104 41 114 42 91 12z m251 -54 c31 -42 -2 -24 -36 19 -29
37 -30 40 -7 23 14 -10 33 -29 43 -42z m1138 -14 c13 -10 40 -24 60 -30 36
-12 36 -12 16 -28 -21 -17 -57 -140 -78 -266 -23 -133 -42 -196 -55 -185 -15
12 -30 -3 -20 -19 3 -5 1 -12 -5 -16 -6 -4 -10 10 -10 35 0 23 4 39 9 36 12
-8 41 3 41 15 0 5 -11 9 -25 9 -24 0 -25 2 -26 73 l-2 72 -11 -75 -11 -75 -45
2 -45 1 48 -10 c44 -10 47 -12 46 -42 -1 -17 -3 -24 -6 -15 -10 39 -183 3
-196 -41 -3 -8 -5 -1 -6 15 -2 37 -15 62 -25 46 -4 -6 -16 -11 -27 -11 -11 0
-17 -5 -14 -10 4 -6 10 -8 15 -5 5 3 11 1 15 -5 3 -5 -7 -15 -22 -22 -15 -7
-32 -17 -36 -23 -7 -9 -3 82 8 168 2 15 -1 25 -6 21 -5 -3 -7 -9 -5 -13 3 -4
1 -13 -3 -20 -5 -7 -9 28 -10 80 -1 51 -4 95 -6 99 -3 5 3 40 20 118 4 17 23
31 71 52 36 17 75 29 87 28 12 0 28 1 36 3 10 3 24 -19 45 -68 37 -90 45 -90
11 1 -31 83 -32 101 -6 84 13 -8 29 -9 51 -2 33 9 38 15 59 68 l12 29 14 -27
c8 -15 25 -36 37 -47z m-1672 -9 l-8 -35 -1 45 c-1 27 3 40 8 35 6 -6 6 -25 1
-45z m3560 24 c0 -8 -4 -12 -10 -9 -5 3 -10 10 -10 16 0 5 5 9 10 9 6 0 10 -7
10 -16z m-2640 -9 c-7 -9 -15 -13 -17 -11 -7 7 7 26 19 26 6 0 6 -6 -2 -15z
m-46 -51 c6 -15 4 -15 -11 -3 -10 7 -20 15 -22 16 -2 2 3 3 11 3 9 0 19 -7 22
-16z m-864 -24 c-6 -12 -14 -19 -17 -17 -2 3 1 15 7 27 6 12 14 19 17 17 2 -3
-1 -15 -7 -27z m796 -32 c-3 -29 -5 -54 -6 -56 0 -2 -5 0 -12 4 -8 5 -9 2 -5
-9 3 -9 2 -27 -4 -39 -7 -17 -8 -7 -5 43 3 59 18 109 32 109 3 0 3 -24 0 -52z
m3834 24 c0 -21 -50 -45 -87 -40 -44 5 -34 30 17 44 63 17 70 16 70 -4z m-652
-5 c6 -5 12 -17 12 -28 0 -14 7 -19 25 -19 15 0 25 -6 25 -14 0 -8 7 -16 15
-20 18 -6 9 -36 -11 -36 -25 0 -113 49 -121 67 -7 16 -9 32 -4 53 2 9 44 6 59
-3z m-438 -53 c0 -8 -5 -12 -10 -9 -6 4 -8 11 -5 16 9 14 15 11 15 -7z m-10
-56 c0 -19 -2 -20 -10 -8 -13 19 -13 30 0 30 6 0 10 -10 10 -22z m50 -61 c0
-5 -9 1 -20 14 -14 18 -19 20 -20 9 0 -9 3 -20 8 -26 4 -5 -1 -1 -11 10 -14
15 -15 21 -5 27 13 8 48 -16 48 -34z m510 21 c0 -13 -23 -5 -28 10 -2 7 2 10
12 6 9 -3 16 -11 16 -16z m390 -48 c0 -40 -15 -54 -27 -24 -5 15 11 64 22 64
3 0 5 -18 5 -40z m-910 -70 c0 -5 -2 -10 -4 -10 -3 0 -8 5 -11 10 -3 6 -1 10
4 10 6 0 11 -4 11 -10z m732 -47 c19 -17 24 -43 8 -43 -5 0 -10 5 -10 10 0 6
-3 9 -7 8 -16 -3 -43 15 -43 28 0 19 29 18 52 -3z m-323 -56 c1 -5 -3 -5 -9
-2 -5 3 -10 16 -9 28 0 21 1 21 9 2 5 -11 9 -24 9 -28z m-369 -21 c0 -3 -4 -8
-10 -11 -5 -3 -10 -1 -10 4 0 6 5 11 10 11 6 0 10 -2 10 -4z m445 -196 c9 -7
15 -28 14 -49 -1 -22 -3 -28 -7 -16 l-5 20 -7 -20 c-17 -47 -31 119 -19 235 2
19 5 -8 6 -62 3 -69 8 -100 18 -108z m495 29 c0 -5 -13 6 -30 24 -16 19 -30
39 -30 43 1 12 60 -54 60 -67z m-347 46 c36 -15 57 -35 37 -35 -6 0 -8 -5 -5
-10 4 -6 18 -9 32 -8 14 2 28 -2 30 -8 6 -18 -48 -11 -77 9 -13 9 -30 17 -37
17 -7 0 -13 4 -13 9 0 5 -3 16 -6 25 -8 20 -5 20 39 1z m-2284 -75 l25 -49 20
44 c13 28 28 45 39 45 15 0 16 -7 11 -57 -8 -70 -22 -103 -35 -82 -4 8 -6 25
-4 39 3 16 1 14 -7 -7 -6 -18 -16 -33 -23 -33 -6 0 -19 15 -28 33 l-16 32 0
-38 c-1 -57 -21 -35 -23 26 l-1 52 -4 -45 c-6 -62 -23 -76 -23 -18 0 117 29
141 69 58z m-609 36 c0 -3 -4 -8 -10 -11 -5 -3 -10 -1 -10 4 0 6 5 11 10 11 6
0 10 -2 10 -4z m960 -27 c0 -6 12 -9 28 -8 15 2 33 0 39 -4 7 -5 21 -3 32 3
31 16 63 12 87 -11 l23 -21 -6 22 c-5 18 -2 21 18 18 22 -3 24 -8 24 -58 l0
-54 -65 -2 c-77 -3 -93 6 -84 52 4 22 2 34 -5 34 -17 0 -32 -38 -25 -65 5 -21
3 -25 -15 -25 -18 0 -21 6 -21 45 0 33 -4 45 -15 45 -11 0 -15 -12 -15 -45 0
-33 -4 -45 -15 -45 -12 0 -15 13 -15 58 0 32 3 62 7 65 10 11 23 8 23 -4z
m485 -8 c-7 -22 23 -34 49 -19 25 14 81 6 81 -12 0 -10 -10 -15 -28 -15 -17 0
-32 -7 -38 -18 -15 -26 -1 -39 33 -32 25 6 29 4 26 -12 -5 -27 -58 -29 -92 -2
-15 12 -25 27 -22 35 3 8 9 21 12 29 4 11 2 13 -9 9 -19 -7 -29 -42 -17 -64
12 -22 5 -29 -21 -23 -16 5 -19 14 -19 74 0 67 1 69 26 69 20 0 24 -4 19 -19z
m1745 9 c0 -5 -2 -10 -4 -10 -3 0 -8 5 -11 10 -3 6 -1 10 4 10 6 0 11 -4 11
-10z m-2355 -10 c-3 -5 9 -6 28 -3 24 4 37 0 47 -13 14 -16 13 -17 -17 -11
-19 4 -33 2 -33 -3 0 -6 9 -10 19 -10 11 0 23 -4 26 -10 4 -6 -7 -10 -26 -10
-27 0 -30 -2 -19 -15 8 -10 21 -13 39 -8 23 6 25 5 12 -10 -7 -10 -24 -17 -36
-17 -24 0 -50 23 -42 37 2 4 1 17 -4 28 -6 16 -8 12 -8 -16 -1 -38 -13 -49
-54 -49 -58 0 -81 94 -27 112 26 8 100 7 95 -2z m2335 -44 c0 -4 -9 2 -19 15
-11 13 -17 28 -14 33 6 8 32 -30 33 -48z m-3865 35 c3 -5 -6 -22 -20 -37 l-25
-27 0 30 c0 16 3 33 7 36 9 10 31 9 38 -2z m2049 -10 c21 -18 23 -101 2 -101
-10 0 -16 14 -18 43 -2 23 -7 42 -13 42 -5 0 -11 -19 -13 -42 -2 -29 -8 -43
-18 -43 -11 0 -14 14 -14 59 0 58 0 59 29 57 15 -1 36 -7 45 -15z m1571 9 c3
-6 -1 -7 -9 -4 -18 7 -21 14 -7 14 6 0 13 -4 16 -10z m276 -13 c-10 -9 -11 -8
-5 6 3 10 9 15 12 12 3 -3 0 -11 -7 -18z m75 -14 c-10 -10 -19 5 -10 18 6 11
8 11 12 0 2 -7 1 -15 -2 -18z m-1606 3 c0 -9 -8 -12 -25 -8 -15 2 -25 0 -25
-7 0 -6 14 -11 31 -11 28 0 30 -2 27 -32 -3 -30 -6 -33 -40 -36 -28 -2 -39 1
-47 16 -6 11 -7 22 -3 26 3 4 1 10 -6 15 -9 5 -8 12 4 29 18 25 84 32 84 8z
m-1323 -229 c15 -16 17 -16 31 4 12 18 13 26 3 41 -14 23 -9 33 14 24 28 -10
27 -33 -2 -92 -32 -66 -53 -81 -53 -37 0 15 -4 35 -10 43 -8 13 -10 13 -14 0
-3 -8 -6 -26 -8 -40 -2 -14 -10 -26 -19 -28 -12 -2 -20 10 -29 45 -7 27 -15
41 -18 33 -21 -61 -21 -61 -42 -50 -11 6 -20 15 -20 21 0 5 -9 20 -21 32 l-21
22 4 -37 c3 -26 0 -38 -8 -38 -21 0 -24 15 -18 79 7 65 18 77 34 36 5 -14 12
-25 15 -25 3 0 3 11 -1 25 -4 15 -2 25 5 25 6 0 18 -25 27 -56 9 -30 17 -54
19 -52 2 2 5 25 6 51 3 60 30 66 45 10 l10 -38 12 42 c16 54 36 61 40 14 2
-20 11 -44 19 -54z m269 32 c28 -27 32 -74 7 -101 -12 -13 -31 -18 -71 -18
l-54 0 6 31 c3 17 6 52 6 77 l0 45 41 -6 c23 -3 52 -15 65 -28z m1291 -6 c-3
-10 -5 -4 -5 12 0 17 2 24 5 18 2 -7 2 -21 0 -30z m-777 18 c0 -6 -4 -13 -10
-16 -5 -3 -10 -26 -10 -51 0 -61 -14 -84 -50 -84 -31 0 -60 30 -60 63 0 24 45
68 63 61 9 -3 16 3 20 15 5 21 47 31 47 12z m261 -36 c6 -29 8 -28 23 18 3 11
13 17 23 15 15 -3 19 -16 21 -76 2 -43 -1 -72 -7 -72 -5 0 -11 24 -13 53 l-3
52 -16 -50 c-16 -48 -17 -49 -27 -25 l-11 25 0 -27 c-1 -17 -7 -28 -15 -28
-11 0 -15 18 -18 71 -2 39 -1 73 2 75 12 13 36 -5 41 -31z m-643 3 c21 -21 13
-30 -18 -23 -19 4 -30 3 -30 -4 0 -6 13 -11 29 -11 21 0 30 -6 35 -22 11 -43
7 -48 -32 -48 -64 0 -99 49 -72 101 12 22 68 27 88 7z m123 2 c31 -17 22 -31
-17 -28 -20 2 -39 -2 -41 -8 -2 -6 10 -8 32 -6 21 3 35 0 35 -7 0 -6 -16 -11
-36 -11 -24 0 -34 -4 -31 -12 2 -8 17 -12 36 -10 22 1 31 -2 31 -13 0 -8 -3
-15 -7 -15 -5 0 -18 -3 -30 -6 -27 -7 -63 27 -63 61 0 28 32 65 56 65 8 0 24
-5 35 -10z m84 -10 c3 -6 -1 -13 -9 -16 -11 -4 -16 -20 -16 -51 0 -68 -24 -50
-28 20 -3 55 -2 57 22 57 14 0 28 -5 31 -10z m215 -1 c0 -6 9 -8 23 -3 33 11
87 13 87 4 0 -4 -9 -10 -21 -13 -12 -3 -20 -13 -19 -24 5 -47 -1 -73 -16 -73
-14 0 -16 8 -12 45 5 44 5 45 -23 45 -28 0 -29 -2 -29 -45 0 -32 -4 -45 -14
-45 -8 0 -17 8 -21 19 -8 27 -3 85 10 93 15 11 35 10 35 -3z m592 -1 c39 -19
49 -40 36 -76 -9 -23 -20 -31 -42 -35 -17 -3 -34 -3 -38 0 -14 8 -8 61 7 67
11 4 15 -2 15 -24 0 -17 5 -30 10 -30 6 0 10 16 10 35 0 29 -5 37 -26 45 -14
6 -22 14 -19 20 8 13 15 13 47 -2z m-187 -27 c29 -56 -20 -110 -74 -81 -28 14
-30 84 -3 99 32 19 61 13 77 -18z m115 9 c0 -5 -11 -10 -25 -10 -18 0 -25 -6
-26 -20 -1 -11 -2 -25 -3 -32 -2 -24 22 -18 32 9 l10 28 11 -28 c15 -38 9 -44
-41 -43 l-43 1 0 43 c0 23 -3 42 -7 42 -5 0 -8 5 -8 10 0 6 23 10 50 10 28 0
50 -4 50 -10z m182 -32 l12 -43 5 40 c4 26 11 40 21 40 11 0 14 -10 11 -45 -3
-53 -3 -52 -40 -56 -26 -3 -31 0 -42 34 -6 20 -15 42 -20 48 -11 14 -1 24 22
24 13 0 22 -13 31 -42z m148 27 c21 -25 8 -50 -30 -56 -36 -6 -28 -15 20 -21
l25 -3 -23 -13 c-51 -29 -102 33 -72 88 13 24 61 27 80 5z m2247 -307 c143 3
293 -12 293 -30 0 -4 7 -8 15 -8 20 0 105 -42 105 -52 0 -4 5 -8 11 -8 6 0 16
-6 24 -12 30 -29 54 -45 125 -81 79 -40 153 -87 158 -99 2 -5 8 -8 14 -8 23 0
160 -106 238 -184 138 -139 265 -351 309 -518 52 -193 57 -275 29 -448 -28
-169 -131 -364 -274 -519 -97 -105 -256 -211 -315 -211 -11 0 -19 -4 -19 -10
0 -5 -9 -10 -19 -10 -11 0 -22 -4 -25 -9 -3 -4 -25 -11 -48 -15 -50 -7 -209
-52 -253 -70 -16 -7 -50 -22 -75 -34 -25 -11 -62 -24 -82 -27 -21 -4 -38 -11
-38 -15 0 -4 -19 -10 -42 -14 -49 -7 -248 -34 -323 -43 -27 -3 -59 -12 -71
-19 -12 -9 -40 -12 -73 -10 -39 3 -54 0 -58 -11 -3 -8 -12 -12 -19 -9 -7 3
-16 0 -20 -6 -4 -7 -3 -8 4 -4 13 8 15 4 6 -17 -5 -13 -14 -11 -57 10 -29 15
-59 30 -68 34 -9 4 -33 11 -53 14 -20 4 -36 11 -36 15 0 10 70 -8 88 -22 7 -6
16 -7 20 -3 4 4 1 10 -6 12 -9 4 -10 8 -2 18 8 9 8 15 0 20 -5 3 -10 -1 -10
-9 0 -9 -6 -16 -14 -16 -11 0 -32 43 -52 108 -2 6 -10 12 -19 12 -8 0 -15 5
-15 11 0 5 -4 8 -9 5 -5 -3 -11 3 -14 14 -4 16 0 20 21 21 l27 1 -30 14 -30
14 45 -5 c28 -3 36 -2 21 3 -19 6 -6 12 71 34 133 37 285 99 410 167 l107 59
78 -28 c43 -15 110 -32 148 -39 39 -7 89 -17 112 -22 23 -5 56 -9 72 -9 35 0
154 53 182 81 11 11 24 19 29 19 23 0 256 246 280 295 14 28 28 52 31 55 4 3
18 39 30 80 33 104 33 247 0 339 -78 214 -215 360 -471 501 -41 22 -87 46
-102 53 -16 6 -28 16 -28 22 -1 11 -69 45 -92 45 -9 0 -18 6 -21 14 -7 17
-126 74 -172 83 -16 3 -32 9 -35 13 -7 11 -142 40 -153 33 -4 -3 -15 3 -22 13
-14 18 -14 18 -15 -2 0 -12 -6 -26 -13 -32 -8 -7 -5 14 10 58 41 123 47 286
13 350 -13 24 -13 43 0 35 6 -3 10 2 11 12 0 10 2 14 5 8 2 -6 60 -9 151 -7z
m-5257 -112 c-1 -5 9 -14 22 -20 20 -10 23 -20 26 -79 l3 -67 -86 0 -85 0 0
58 c0 46 4 60 20 70 11 7 20 19 20 27 0 9 9 15 23 14 21 0 21 -1 2 -9 -19 -8
-19 -9 3 -9 14 -1 22 5 22 15 0 9 7 14 16 12 8 -2 15 -7 14 -12z m427 -48 c-2
-7 3 -18 12 -25 11 -8 12 -12 4 -13 -8 0 -13 -14 -13 -35 0 -24 -5 -35 -15
-35 -11 0 -15 13 -15 53 0 30 3 57 7 60 11 12 25 8 20 -5z m863 6 c0 -4 -10
-22 -21 -41 -19 -30 -20 -36 -7 -51 49 -57 14 -77 -37 -21 -29 32 -34 43 -25
58 18 34 90 78 90 55z m-647 -34 c8 0 7 -4 -1 -12 -7 -7 -12 -22 -12 -34 0
-16 6 -21 25 -21 24 0 25 1 10 16 -12 14 -13 20 -2 35 12 17 52 13 42 -5 -3
-4 -13 -5 -23 -2 -15 6 -15 4 2 -15 28 -32 15 -51 -36 -49 -40 2 -43 4 -40 29
2 14 -2 29 -7 33 -6 3 -11 -1 -11 -9 0 -11 -9 -16 -27 -16 -21 0 -24 3 -13 10
8 5 11 12 8 15 -11 11 -28 -5 -28 -27 0 -17 5 -20 30 -16 36 5 40 -9 5 -18
-14 -3 -32 -1 -40 6 -8 6 -19 9 -25 5 -22 -14 -60 4 -60 28 0 42 53 67 66 32
6 -14 8 -13 20 2 11 15 16 16 33 5 13 -7 21 -8 21 -2 0 5 9 10 20 10 12 0 20
7 21 18 1 16 2 16 6 0 2 -10 10 -18 16 -18z m1416 -5 c28 -31 30 -36 14 -41
-10 -3 -31 -11 -46 -19 -15 -8 -25 -11 -22 -6 3 5 -8 12 -24 16 -41 9 -58 58
-28 77 30 19 74 8 106 -27z m-1871 13 c19 -19 14 -38 -13 -48 -14 -5 -25 -16
-25 -25 0 -8 -4 -15 -10 -15 -5 0 -10 15 -10 34 0 19 -3 41 -6 50 -5 12 1 16
23 16 16 0 34 -5 41 -12z m92 -13 c24 -22 14 -64 -16 -71 -30 -8 -54 11 -54
40 0 43 39 59 70 31z m87 7 c12 -8 16 -24 14 -59 -1 -19 -7 -23 -31 -23 -19 0
-33 7 -40 19 -15 29 5 71 35 71 6 0 15 -4 22 -8z m2401 -64 c13 -59 7 -102
-14 -94 -7 3 -14 0 -16 -6 -2 -6 -13 -8 -25 -4 -18 6 -22 16 -25 61 -1 30 0
55 5 55 4 0 7 9 7 20 0 15 7 20 28 20 25 0 29 -5 40 -52z m1343 10 c6 -13 23
-35 37 -50 l26 -28 -40 -35 c-59 -52 -64 -48 -64 50 0 68 3 85 15 85 8 0 20
-10 26 -22z m-1221 -7 c0 -5 -6 -11 -12 -14 -7 -2 -10 -8 -5 -12 4 -5 13 -3
19 3 13 13 47 16 72 6 20 -8 21 -57 2 -73 -8 -7 -31 -11 -52 -10 -71 3 -74 5
-74 60 0 46 2 49 25 49 14 0 25 -4 25 -9z m174 -6 c-4 -8 -2 -15 3 -15 4 0 7
-21 4 -46 -4 -59 -19 -45 -24 24 -3 39 -1 52 9 52 8 0 11 -6 8 -15z m-44 -56
c0 -21 -4 -39 -9 -39 -9 0 -20 77 -12 85 11 12 21 -10 21 -46z m134 26 c9 -9
17 -11 21 -5 3 5 17 10 31 10 21 0 24 -5 24 -35 0 -19 -4 -35 -10 -35 -5 0
-10 14 -10 30 0 41 -20 38 -21 -2 -1 -31 -1 -31 -8 -8 -7 24 -8 25 -15 3 -9
-29 -34 -36 -62 -18 -28 18 -30 32 -7 57 20 22 37 23 57 3z m461 -15 c0 -18
-6 -26 -23 -28 -24 -4 -38 18 -28 44 3 9 15 14 28 12 17 -2 23 -10 23 -28z
m-1648 -101 c0 -24 -2 -27 -10 -14 -5 9 -6 23 -3 31 8 22 13 17 13 -17z m48 8
c13 16 14 15 12 -12 -1 -20 2 -29 11 -27 8 1 11 -2 7 -8 -11 -17 -65 25 -65
50 1 12 3 11 11 -3 10 -18 11 -18 24 0z m81 -6 c-4 -5 0 -12 6 -14 8 -3 6 -6
-4 -6 -10 -1 -18 6 -18 14 0 8 5 15 11 15 5 0 8 -4 5 -9z m-1411 -266 c303 -8
692 -18 865 -22 173 -4 281 -9 240 -11 -74 -3 -1054 20 -1646 38 -285 9 -310
8 -321 -7 -7 -9 -13 -12 -13 -7 0 31 25 35 175 29 83 -3 398 -12 700 -20z
m-878 -57 c-3 -7 -5 -2 -5 12 0 14 2 19 5 13 2 -7 2 -19 0 -25z m2316 15 c-45
-2 -122 -2 -170 0 -48 1 -11 3 82 3 94 0 133 -2 88 -3z m370 -10 c-51 -2 -136
-2 -190 0 -54 1 -12 3 92 3 105 0 149 -2 98 -3z m350 -10 c-40 -2 -107 -2
-150 0 -43 1 -10 3 72 3 83 0 118 -2 78 -3z m961 -24 c286 -9 326 -14 326 -41
0 -5 -7 -3 -15 5 -16 16 -31 17 -765 42 -354 12 -370 13 -125 9 154 -3 415 -9
579 -15z m-3997 -51 c-2 -13 -4 -3 -4 22 0 25 2 35 4 23 2 -13 2 -33 0 -45z
m-2662 -36 c22 -15 44 -27 49 -27 5 0 22 -20 36 -45 14 -25 33 -45 41 -46 33
-2 39 -5 39 -14 0 -5 -6 -10 -14 -10 -9 0 -12 -8 -8 -25 3 -19 -4 -32 -27 -54
-17 -16 -31 -35 -31 -41 0 -13 -46 -60 -58 -60 -4 0 -12 -8 -19 -18 -27 -44
-199 -90 -250 -66 -20 9 -30 11 -56 13 -10 0 -15 6 -12 11 4 6 -7 15 -23 21
-43 15 -77 88 -74 158 1 30 9 62 16 70 8 9 16 25 18 36 2 11 13 24 26 30 12 5
25 18 28 27 3 11 27 24 62 34 31 9 59 20 62 24 19 29 141 17 195 -18z m2905
-38 c0 -32 -6 -30 -18 5 -9 25 -8 29 4 24 8 -3 14 -16 14 -29z m210 27 c0 -5
14 -11 30 -14 21 -5 30 -12 30 -26 0 -24 -16 -35 -52 -37 -27 -2 -28 1 -28 42
0 24 5 44 10 44 6 0 10 -4 10 -9z m-160 -13 c0 -7 -9 -24 -21 -38 l-20 -25 18
38 c18 39 23 45 23 25z m77 -18 c9 -18 13 -20 13 -7 0 9 5 17 10 17 6 0 10 -9
10 -19 0 -11 3 -28 6 -38 5 -17 5 -17 -10 1 -8 10 -19 15 -25 12 -13 -9 -51
11 -51 26 0 7 5 6 15 -2 13 -10 15 -9 15 10 0 14 -5 20 -13 17 -8 -3 -20 -1
-28 4 -10 7 -6 9 16 7 20 -2 34 -11 42 -28z m219 21 c16 12 17 12 11 -4 -4
-11 -1 -24 8 -33 17 -17 20 -44 6 -44 -6 0 -13 5 -17 12 -4 7 -3 8 4 4 19 -11
14 5 -5 20 -25 19 -32 17 -26 -6 3 -11 0 -20 -6 -20 -6 0 -11 12 -11 26 0 14
-4 23 -10 19 -14 -9 -13 8 2 23 9 9 14 9 19 0 6 -9 12 -8 25 3z m-279 -58 c-3
-10 -5 -2 -5 17 0 19 2 27 5 18 2 -10 2 -26 0 -35z m4010 -195 c-1 -40 -3 -8
-3 72 0 80 2 112 3 73 2 -40 2 -106 0 -145z m-4004 -35 c-40 -2 -107 -2 -150
0 -43 1 -10 3 72 3 83 0 118 -2 78 -3z m330 -10 c-40 -2 -107 -2 -150 0 -43 1
-10 3 72 3 83 0 118 -2 78 -3z m315 -10 c-38 -2 -98 -2 -135 0 -38 2 -7 3 67
3 74 0 105 -1 68 -3z m280 -10 c-38 -2 -98 -2 -135 0 -38 2 -7 3 67 3 74 0
105 -1 68 -3z m395 -10 c-45 -2 -122 -2 -170 0 -48 1 -11 3 82 3 94 0 133 -2
88 -3z m340 -10 c-34 -2 -93 -2 -130 0 -37 2 -9 3 62 3 72 0 102 -1 68 -3z
m335 -10 c-32 -2 -84 -2 -115 0 -32 2 -6 3 57 3 63 0 89 -1 58 -3z m310 -10
c-38 -2 -98 -2 -135 0 -38 2 -7 3 67 3 74 0 105 -1 68 -3z m335 -10 c-40 -2
-107 -2 -150 0 -43 1 -10 3 72 3 83 0 118 -2 78 -3z m832 -18 c263 -9 482 -18
485 -21 3 -3 -83 -3 -190 1 -107 4 -373 13 -590 20 -217 7 -348 13 -290 14 58
0 321 -6 585 -14z m1386 -16 c57 -17 125 -40 151 -51 l47 -20 -5 -51 c-12
-111 -35 -211 -64 -273 -16 -36 -30 -70 -30 -75 0 -5 -4 -9 -10 -9 -5 0 -10
-7 -10 -15 0 -8 -8 -15 -17 -15 -9 0 -14 -3 -10 -6 9 -10 -101 -164 -117 -164
-3 0 -15 -9 -26 -20 -55 -55 -166 11 -225 136 -25 53 -28 71 -33 205 -5 139
-3 152 22 233 21 68 33 90 59 110 72 55 124 58 268 15z m-861 17 c0 -2 -7 -7
-16 -10 -8 -3 -12 -2 -9 4 6 10 25 14 25 6z m-6406 -67 c11 9 15 8 20 -4 3 -9
10 -14 15 -11 5 3 11 -3 14 -14 3 -11 15 -24 27 -28 12 -4 21 -10 20 -12 -1
-5 6 -28 22 -72 14 -39 14 -124 0 -141 -7 -8 -12 -19 -11 -23 5 -21 -15 -64
-32 -69 -11 -4 -17 -10 -15 -14 7 -10 -27 -37 -55 -46 -13 -4 -38 -13 -56 -21
-28 -13 -37 -12 -75 1 -24 9 -51 19 -60 22 -10 3 -18 8 -18 12 0 3 -18 17 -40
31 -31 19 -40 31 -40 52 0 16 -4 28 -10 28 -21 0 -4 113 22 145 4 5 22 26 38
45 16 19 30 38 30 41 0 4 16 14 35 23 19 9 35 21 35 26 0 6 10 10 23 10 12 0
33 6 47 14 16 8 29 9 38 3 8 -6 17 -5 26 2z m2312 -116 c-1 -13 5 -17 20 -16
18 2 20 -2 16 -25 -3 -15 -7 -21 -9 -14 -7 18 -31 15 -36 -5 -3 -10 -5 3 -6
30 0 26 3 47 8 47 5 0 8 -8 7 -17z m567 -13 c5 -4 4 -17 -3 -29 -6 -12 -8 -26
-4 -32 3 -6 -4 -5 -16 3 -18 10 -24 10 -27 1 -9 -25 -21 -12 -19 20 2 45 13
59 39 51 12 -3 26 -10 30 -14z m-448 -25 c0 -25 -4 -31 -27 -33 -19 -2 -28 2
-33 18 -8 27 12 52 39 48 16 -2 21 -10 21 -33z m95 24 c0 -8 5 -7 15 1 20 17
22 12 14 -30 -3 -19 -7 -27 -8 -17 -1 20 -21 23 -21 3 0 -15 -24 -28 -34 -19
-3 4 -6 18 -7 32 l-1 26 -10 -27 c-5 -16 -14 -28 -19 -28 -10 0 4 33 24 58 12
15 47 16 47 1z m100 -5 c0 -8 5 -14 10 -14 6 0 10 5 10 10 0 6 7 10 15 10 10
0 15 -10 15 -29 0 -31 -15 -50 -23 -29 -3 10 -7 10 -20 -1 -15 -12 -18 -10
-23 18 -7 35 -20 31 -27 -9 -3 -17 -5 -11 -6 16 -1 38 1 42 24 42 15 0 25 -6
25 -14z m82 -20 c-4 -34 -3 -36 17 -31 11 3 21 1 21 -4 0 -5 -12 -9 -28 -9
-25 0 -27 3 -27 40 0 22 4 40 10 40 7 0 9 -15 7 -36z m208 26 c0 -5 -4 -10
-10 -10 -5 0 -10 5 -10 10 0 6 5 10 10 10 6 0 10 -4 10 -10z m79 -37 l-2 -48
-6 40 c-7 38 -5 55 5 55 2 0 3 -21 3 -47z m38 23 c-25 -28 -34 -27 -17 3 6 12
17 21 25 21 9 0 7 -7 -8 -24z m215 -15 c-3 -29 0 -40 13 -45 9 -3 21 -4 26 0
14 8 11 72 -3 77 -8 4 -7 6 3 6 21 1 31 -63 13 -87 -10 -13 -18 -15 -41 -7
-31 12 -41 42 -23 74 15 29 16 27 12 -18z m-288 20 c3 -5 -1 -23 -10 -40 -16
-31 -31 -44 -20 -16 3 8 1 15 -4 15 -6 0 -10 -7 -10 -16 0 -8 -5 -12 -10 -9
-7 4 -7 12 0 24 5 10 7 21 4 24 -3 3 3 3 15 0 22 -6 30 12 9 20 -8 3 -7 6 4 6
9 1 19 -3 22 -8z m379 -7 c-5 -13 -2 -15 17 -9 14 4 20 3 16 -3 -3 -5 -15 -12
-26 -15 -16 -4 -20 0 -20 19 0 13 4 24 10 24 5 0 7 -7 3 -16z m248 7 c-8 -5
-11 -16 -8 -25 4 -9 2 -16 -3 -16 -6 0 -10 11 -10 25 0 17 5 25 18 25 14 0 14
-2 3 -9z m109 -20 c-4 -16 -13 -38 -20 -48 -11 -17 -11 -17 -5 2 17 47 17 58
4 66 -11 7 -9 9 8 9 19 0 21 -3 13 -29z m234 21 c-6 -4 -14 -24 -18 -46 -10
-51 -16 -42 -9 12 4 30 10 42 22 42 10 0 12 -3 5 -8z m-813 -39 l-5 -38 -7 35
-6 35 -2 -32 c-1 -44 -21 -42 -21 2 0 30 3 35 23 35 21 0 23 -4 18 -37z m499
17 c0 -11 -4 -20 -9 -20 -5 0 -7 9 -4 20 3 11 7 20 9 20 2 0 4 -9 4 -20z m365
10 c3 -5 -1 -10 -9 -10 -22 0 -20 -20 2 -20 15 -1 15 -2 1 -13 -9 -7 -18 -19
-22 -27 -3 -8 -6 6 -6 33 -1 35 3 47 13 47 8 0 18 -4 21 -10z m82 -2 c4 -7 8
-28 10 -45 2 -32 1 -33 -37 -33 -38 0 -39 1 -37 36 3 46 44 73 64 42z m-1307
-8 c0 -5 -4 -10 -10 -10 -5 0 -10 5 -10 10 0 6 5 10 10 10 6 0 10 -4 10 -10z
m1392 -25 c4 -39 -12 -61 -37 -51 -36 13 -27 75 10 68 10 -2 14 1 10 7 -3 6
-2 11 3 11 6 0 12 -16 14 -35z m528 -5 c23 0 39 -26 32 -52 -3 -14 -12 -18
-31 -16 -24 3 -26 7 -28 53 -1 28 1 42 4 33 2 -10 13 -18 23 -18z m-1476 -22
c7 -5 5 -8 -6 -8 -13 0 -18 7 -17 28 1 21 2 22 6 7 3 -11 10 -23 17 -27z m986
7 c0 -25 -4 -35 -16 -35 -10 0 -12 5 -7 13 4 6 6 22 4 35 -1 12 2 22 8 22 6 0
11 -16 11 -35z m48 28 c-12 -3 -18 -14 -18 -34 0 -16 -3 -29 -7 -29 -5 0 -8
16 -8 35 0 31 3 35 25 34 17 -1 19 -3 8 -6z m63 -31 c1 -21 2 -22 6 -7 3 11
10 25 15 30 13 12 0 -35 -13 -49 -12 -13 -18 -5 -25 34 -5 24 -4 31 4 26 7 -4
13 -19 13 -34z m79 11 c0 -16 -5 -35 -10 -43 -9 -13 -11 -13 -20 0 -5 8 -9 24
-9 35 1 16 2 15 8 -5 7 -25 8 -24 15 8 9 39 16 41 16 5z m195 17 c4 -6 10 -8
15 -5 23 14 55 -21 44 -50 -10 -24 -22 -17 -16 10 3 19 0 25 -13 25 -14 0 -16
-6 -11 -31 5 -27 4 -30 -9 -19 -10 8 -13 21 -9 39 5 20 4 23 -5 15 -7 -6 -13
-21 -14 -33 -2 -29 -17 -27 -17 3 0 46 19 71 35 46z m-149 -49 c11 9 14 8 14
-5 0 -9 -8 -16 -19 -16 -26 0 -30 9 -23 45 l7 30 3 -33 c3 -28 6 -31 18 -21z
m40 19 c-2 -16 1 -30 5 -30 5 0 9 11 9 25 0 14 5 25 10 25 6 0 10 -6 10 -14 0
-28 -12 -46 -31 -46 -14 0 -19 7 -19 26 0 14 -4 23 -10 19 -5 -3 -10 -2 -10 4
0 5 8 12 18 14 9 3 18 5 19 6 2 0 1 -12 -1 -29z m-1401 10 c-3 -5 -14 -10 -23
-10 -15 0 -15 2 -2 10 20 13 33 13 25 0z m552 1 c14 12 16 12 11 -1 -7 -22
-58 -26 -58 -4 0 13 3 14 15 4 12 -10 18 -10 32 1z m-227 -13 c0 -5 -13 -8
-30 -8 -16 0 -30 3 -30 8 0 4 14 7 30 7 17 0 30 -3 30 -7z m1379 -25 l-2 -38
-7 35 c-6 34 -9 32 -23 -10 -3 -8 -6 0 -6 18 -1 26 3 32 19 32 17 0 20 -6 19
-37z m-246 7 c3 -11 1 -20 -4 -20 -5 0 -9 9 -9 20 0 11 2 20 4 20 2 0 6 -9 9
-20z m-2377 -292 c3 -4 -2 -8 -10 -8 -12 0 -16 -11 -18 -42 l-1 -43 -4 43 c-3
28 -9 42 -19 42 -8 0 -14 4 -14 9 0 12 59 11 66 -1z m36 -44 c-2 -55 -12 -54
-12 1 0 27 3 45 7 42 3 -4 6 -23 5 -43z m5470 4 c-2 -21 -9 -38 -14 -38 -6 0
-7 7 -4 16 3 9 2 12 -5 9 -5 -4 -7 -15 -4 -25 6 -20 -15 -32 -42 -24 -15 5
-16 4 -3 -5 13 -10 13 -13 -3 -26 -11 -7 -25 -11 -33 -8 -9 3 5 26 48 73 35
38 63 68 64 67 1 -1 -1 -19 -4 -39z m-5277 12 c29 0 36 -10 28 -38 -8 -31 -21
-27 -15 4 4 21 1 25 -14 22 -11 -2 -20 -13 -22 -26 -6 -41 -18 -23 -13 21 2
23 6 36 8 30 3 -7 15 -13 28 -13z m239 -12 c8 -5 7 -8 -1 -8 -7 0 -13 -11 -13
-25 0 -14 -3 -25 -8 -25 -4 0 -5 21 -3 48 2 26 6 40 9 32 3 -8 10 -18 16 -22z
m-69 -2 c-12 -8 -16 -20 -12 -35 6 -24 -8 -29 -17 -5 -11 28 -7 41 17 51 28
13 36 7 12 -11z m-385 4 c0 -5 -4 -10 -9 -10 -6 0 -13 5 -16 10 -3 6 1 10 9
10 9 0 16 -4 16 -10z m105 -20 c0 -20 -6 -26 -27 -28 -24 -3 -28 0 -28 21 0
30 9 39 35 35 14 -2 20 -10 20 -28z m209 12 c-1 -7 -2 -21 -2 -32 -2 -14 -9
-20 -27 -20 -30 0 -34 29 -9 55 18 17 40 15 38 -3z m468 -28 c-2 -55 -12 -54
-12 1 0 27 3 45 7 42 3 -4 6 -23 5 -43z m81 -3 c1 -23 -1 -41 -5 -41 -5 0 -8
21 -8 47 0 56 11 51 13 -6z m307 29 c0 -5 -9 -6 -20 -3 -26 7 -26 -9 1 -25 27
-17 18 -27 -10 -12 -23 12 -27 30 -10 47 12 12 39 7 39 -7z m-625 -10 c7 -23
-10 -50 -31 -50 -18 0 -28 38 -14 55 18 21 38 18 45 -5z m-210 -15 c0 -14 -3
-25 -7 -25 -10 0 -10 34 -1 43 3 4 7 7 7 7 1 0 1 -11 1 -25z m142 -12 c-3 -10
-5 -4 -5 12 0 17 2 24 5 18 2 -7 2 -21 0 -30z m95 7 c-2 -16 -6 -30 -8 -30 -2
0 -4 14 -4 30 0 17 4 30 8 30 5 0 7 -13 4 -30z m128 -9 c-6 -12 -15 -21 -21
-21 -6 0 -3 7 5 16 9 8 16 23 17 32 0 10 3 12 5 5 3 -7 0 -21 -6 -32z m42 8
c-4 -24 -7 -28 -13 -16 -5 8 -6 22 -3 31 11 27 21 17 16 -15z m85 23 c13 -8 5
-62 -9 -62 -6 0 -8 13 -4 30 3 19 2 29 -4 25 -6 -3 -10 -1 -10 4 0 13 10 14
27 3z m83 -14 c0 -13 -4 -30 -10 -38 -6 -10 -8 -3 -7 23 2 39 17 52 17 15z
m31 -10 c-3 -21 -6 -26 -9 -15 -3 17 3 47 11 47 2 0 1 -15 -2 -32z m55 -4 l1
-29 -4 28 c-3 20 -9 27 -19 23 -9 -3 -12 -2 -9 5 12 19 30 3 31 -27z m64 25
c13 -9 12 -10 -2 -5 -10 3 -18 1 -18 -5 0 -6 -5 -7 -10 -4 -11 7 -4 25 8 25 4
0 14 -5 22 -11z m290 -35 c0 -19 -4 -34 -10 -34 -5 0 -9 3 -9 8 5 28 -2 52
-13 46 -9 -5 -9 -3 1 9 19 23 31 12 31 -29z m-110 14 c0 -13 -5 -30 -11 -38
-8 -12 -9 -8 -7 15 2 22 -2 31 -16 33 -16 3 -18 -1 -14 -27 2 -17 1 -31 -4
-31 -4 0 -8 16 -8 35 0 32 2 35 30 35 24 0 30 -4 30 -22z m48 15 c-10 -2 -18
-17 -21 -36 -4 -31 -4 -31 -5 6 -2 33 1 37 21 36 15 -1 17 -3 5 -6z m334 -34
c-3 -24 -1 -30 9 -27 8 2 15 17 17 31 2 19 9 27 23 27 10 0 19 -5 19 -11 0 -6
-7 -9 -15 -5 -11 4 -15 -1 -15 -19 0 -14 7 -25 18 -28 9 -3 -2 -4 -26 -3 -23
0 -42 4 -42 9 0 4 0 21 0 38 0 16 4 28 8 25 5 -3 7 -19 4 -37z m118 30 c0 -6
-6 -9 -14 -6 -10 4 -12 -3 -9 -29 2 -19 -1 -34 -7 -34 -11 0 -14 63 -3 73 10
11 33 8 33 -4z m-1585 -9 c-3 -5 -12 -10 -18 -10 -7 0 -6 4 3 10 19 12 23 12
15 0z m1267 -50 c6 0 8 9 5 20 -3 11 -1 20 4 20 5 0 9 -11 9 -25 0 -14 -6 -25
-13 -25 -23 0 -34 20 -28 48 6 27 6 26 9 -5 2 -18 8 -33 14 -33z m25 54 c-3
-3 -12 -4 -19 -1 -8 3 -5 6 6 6 11 1 17 -2 13 -5z m103 -25 c0 -33 15 -31 31
5 8 18 8 17 6 -9 -3 -38 -38 -43 -47 -6 -9 37 -30 38 -30 2 0 -17 -4 -31 -8
-31 -5 0 -7 14 -4 30 3 22 0 30 -11 30 -10 0 -14 -9 -13 -30 2 -21 -1 -27 -10
-20 -6 6 -9 21 -6 35 4 22 9 25 48 25 42 0 44 -1 44 -31z m-486 -13 c-6 -15
-24 -23 -24 -11 0 8 24 34 28 30 1 -1 0 -10 -4 -19z m236 10 c0 -8 6 -17 13
-19 7 -3 5 -6 -5 -6 -10 -1 -18 1 -18 3 0 2 -3 11 -6 20 -3 9 -1 16 5 16 6 0
11 -6 11 -14z m-335 -6 c3 -5 1 -10 -4 -10 -6 0 -11 5 -11 10 0 6 2 10 4 10 3
0 8 -4 11 -10z m191 -4 c15 5 16 4 8 -6 -13 -13 -54 -5 -54 12 0 7 5 7 14 -1
7 -6 22 -8 32 -5z m-1706 -251 c-9 -54 -17 -75 -26 -71 -8 3 -15 -7 -19 -26
-10 -44 -24 -22 -31 49 -7 61 -6 61 24 77 17 9 36 26 43 37 19 36 22 12 9 -66z
m465 58 c-59 -7 -75 -14 -76 -31 0 -11 -2 -12 -6 -4 -10 25 18 42 66 41 31 -2
36 -3 16 -6z m318 -10 c-7 -2 -19 -2 -25 0 -7 3 -2 5 12 5 14 0 19 -2 13 -5z
m74 1 c-3 -3 -12 -4 -19 -1 -8 3 -5 6 6 6 11 1 17 -2 13 -5z m566 -21 c-7 -2
-19 -2 -25 0 -7 3 -2 5 12 5 14 0 19 -2 13 -5z m1206 -37 c-2 -2 -17 -6 -34
-10 -22 -5 -26 -4 -15 4 14 9 59 15 49 6z m548 -22 c-3 -3 -12 -4 -19 -1 -8 3
-5 6 6 6 11 1 17 -2 13 -5z m-640 -10 c-3 -3 -12 -4 -19 -1 -8 3 -5 6 6 6 11
1 17 -2 13 -5z m966 -1 c-7 -2 -19 -2 -25 0 -7 3 -2 5 12 5 14 0 19 -2 13 -5z
m-1436 -119 c-3 -3 -12 -4 -19 -1 -8 3 -5 6 6 6 11 1 17 -2 13 -5z m-17 -34
c-12 -8 -9 -10 13 -10 15 0 26 -3 25 -7 0 -5 2 -16 7 -26 7 -17 9 -17 30 3 24
23 67 26 140 12 35 -6 41 -12 50 -45 10 -34 11 -35 23 -17 6 11 12 29 12 40 0
15 7 20 25 20 19 0 25 -5 25 -22 l0 -22 16 22 c11 16 25 22 55 22 36 0 40 -2
37 -22 -2 -17 -9 -22 -25 -20 -18 3 -23 -2 -23 -17 0 -12 5 -21 11 -21 5 0 7
5 4 10 -3 6 -1 10 4 10 6 0 11 -5 11 -11 0 -5 5 -7 10 -4 6 4 10 -5 10 -19 0
-23 -4 -26 -37 -27 l-38 -2 40 -7 40 -6 -37 -17 c-20 -9 -43 -14 -51 -11 -8 3
-31 -2 -52 -10 -40 -17 -130 -22 -139 -7 -3 5 -26 12 -51 15 -25 4 -52 14 -60
22 -13 14 -15 14 -15 0 0 -19 -11 -21 -28 -4 -7 7 -12 8 -12 2 0 -14 -55 -20
-95 -10 -18 5 -20 13 -20 91 l0 85 35 6 c19 3 40 7 45 9 21 7 29 4 15 -5z
m2787 -67 c-3 -10 -5 -2 -5 17 0 19 2 27 5 18 2 -10 2 -26 0 -35z m-2197 27
c10 -6 11 -10 3 -10 -9 0 -13 -18 -13 -55 0 -54 0 -55 30 -55 23 0 28 4 24 18
-5 14 -3 14 10 -2 15 -19 16 -18 16 17 0 82 95 122 148 62 12 -14 22 -35 22
-45 0 -10 4 -21 9 -24 5 -4 7 3 4 15 -9 33 16 69 48 69 28 0 38 -17 40 -70 0
-21 3 -18 15 14 14 39 54 87 54 66 0 -6 4 -9 9 -6 5 3 9 0 8 -7 -1 -31 4 -47
14 -47 6 0 9 6 6 14 -9 22 14 34 58 33 38 -2 40 -4 41 -33 1 -18 4 -40 8 -50
4 -10 1 -21 -6 -25 -10 -7 -10 -12 -1 -28 10 -15 9 -20 -1 -24 -26 -10 -51 0
-56 24 l-6 24 -18 -27 c-10 -16 -24 -28 -31 -28 -7 0 -15 -6 -17 -12 -3 -7 -5
7 -6 32 -1 24 -7 49 -13 55 -8 7 -9 3 -4 -14 4 -15 3 -21 -3 -17 -5 3 -12 -4
-16 -17 -6 -25 -39 -33 -53 -14 -5 7 -17 38 -27 70 -9 31 -19 57 -20 57 -2 0
-6 -9 -9 -20 -3 -13 -1 -18 5 -13 7 3 8 1 4 -6 -4 -6 0 -18 8 -27 17 -16 21
-46 9 -58 -4 -4 -13 8 -20 26 l-13 33 6 -32 c3 -18 3 -33 0 -33 -3 0 -10 15
-15 33 l-9 32 -1 -36 c-1 -24 -7 -39 -17 -43 -9 -4 -19 -4 -22 -1 -3 3 0 5 6
5 7 0 12 3 12 8 0 4 -18 6 -40 4 -22 -2 -40 -8 -40 -13 0 -5 -8 -9 -17 -9 -14
0 -15 2 -4 9 22 14 0 19 -88 20 -46 0 -86 3 -88 5 -2 2 -1 40 3 85 7 84 16 96
54 71z m228 -15 c-3 -3 -9 2 -12 12 -6 14 -5 15 5 6 7 -7 10 -15 7 -18z m385
-79 c2 -55 -2 -77 -11 -81 -26 -10 -32 7 -32 85 0 54 4 80 13 83 22 8 28 -9
30 -87z m-360 69 c-3 -9 -8 -14 -10 -11 -3 3 -2 9 2 15 9 16 15 13 8 -4z
m2685 -43 c2 -8 -3 -10 -15 -5 -16 6 -16 5 -4 -10 7 -9 10 -17 5 -18 -5 0 2
-5 16 -11 18 -7 21 -12 11 -16 -22 -8 -62 47 -48 64 14 15 29 13 35 -4z
m-2898 -6 c0 -3 -4 -8 -10 -11 -5 -3 -10 -1 -10 4 0 6 5 11 10 11 6 0 10 -2
10 -4z m2157 -18 c-3 -8 -6 -5 -6 6 -1 11 2 17 5 13 3 -3 4 -12 1 -19z m703
-8 c0 -5 -2 -10 -4 -10 -3 0 -8 5 -11 10 -3 6 -1 10 4 10 6 0 11 -4 11 -10z
m70 0 c0 -5 -2 -10 -4 -10 -3 0 -8 5 -11 10 -3 6 -1 10 4 10 6 0 11 -4 11 -10z
m-3040 -36 c0 -8 -4 -14 -10 -14 -5 0 -10 9 -10 21 0 11 5 17 10 14 6 -3 10
-13 10 -21z m2855 -4 c4 -6 13 -9 22 -8 8 2 25 -9 36 -24 20 -27 20 -32 8
-105 -12 -74 -76 -233 -93 -233 -5 0 -8 -5 -8 -11 0 -20 -60 -71 -77 -65 -8 3
-18 6 -23 6 -8 0 -26 64 -34 123 -11 86 19 241 56 288 29 35 98 53 113 29z
m-2808 -36 c-3 -3 -12 -4 -19 -1 -8 3 -5 6 6 6 11 1 17 -2 13 -5z m62 -3 c12
-8 10 -11 -11 -16 -14 -4 -39 -5 -54 -2 -21 3 -16 4 16 6 33 1 41 4 30 11 -8
5 -10 10 -5 10 6 0 17 -4 24 -9z m206 -31 c-3 -5 -12 -10 -18 -10 -7 0 -6 4 3
10 19 12 23 12 15 0z m315 -10 c0 -5 -7 -7 -15 -4 -8 4 -15 8 -15 10 0 2 7 4
15 4 8 0 15 -4 15 -10z m-1093 -186 c-3 -3 -12 -4 -19 -1 -8 3 -5 6 6 6 11 1
17 -2 13 -5z m80 0 c-3 -3 -12 -4 -19 -1 -8 3 -5 6 6 6 11 1 17 -2 13 -5z
m2628 -74 c-3 -5 -12 -10 -18 -10 -7 0 -6 4 3 10 19 12 23 12 15 0z m-228 -6
c-3 -3 -12 -4 -19 -1 -8 3 -5 6 6 6 11 1 17 -2 13 -5z m76 -1 c-7 -2 -19 -2
-25 0 -7 3 -2 5 12 5 14 0 19 -2 13 -5z m-3793 -68 c151 -3 408 -10 570 -16
162 -5 527 -16 810 -24 714 -20 1366 -42 1750 -60 179 -8 413 -17 520 -20 320
-10 404 -18 397 -39 -4 -12 -28 -12 -98 -1 -42 7 -47 6 -52 -15 -6 -23 -7 -23
-139 -16 -146 7 -809 29 -1348 46 -190 5 -484 15 -655 20 -170 6 -474 15 -675
20 -201 6 -502 15 -670 20 -168 5 -429 12 -580 16 -321 8 -363 12 -368 37 -2
10 2 25 9 33 10 13 33 14 133 10 67 -3 245 -8 396 -11z m4774 -389 c17 -11 25
-28 30 -66 4 -28 4 -55 1 -60 -3 -5 -10 -34 -15 -63 -11 -72 -55 -165 -105
-223 -5 -7 -21 -26 -35 -44 -121 -155 -197 -142 -236 42 -21 96 -13 220 17
280 46 93 91 130 179 149 50 11 137 3 164 -15z m-7357 -28 c-9 -12 -21 -42
-28 -65 -7 -24 -16 -43 -21 -43 -10 0 -11 -2 8 56 16 47 43 89 51 80 3 -2 -2
-15 -10 -28z m2520 20 c11 -18 4 -48 -18 -79 -10 -15 -19 -32 -19 -38 0 -6 -4
-11 -10 -11 -5 0 -10 5 -10 12 0 6 -9 31 -21 55 -12 24 -18 50 -15 58 7 19 81
20 93 3z m-2577 -72 c-19 -65 -30 -92 -30 -69 0 17 41 145 45 141 2 -2 -5 -34
-15 -72z m3721 -34 c-4 -67 -11 -66 -11 3 0 32 3 55 7 51 4 -4 6 -28 4 -54z
m76 15 c8 -24 12 -27 12 -11 1 11 6 25 13 32 15 15 58 16 58 1 0 -6 -8 -8 -19
-4 -25 8 -45 -19 -37 -50 7 -27 40 -35 49 -12 4 7 6 6 6 -4 1 -9 -5 -19 -11
-22 -24 -8 -50 9 -74 48 l-24 40 0 -44 c0 -52 -11 -48 -17 5 -3 34 13 71 26
59 3 -4 11 -21 18 -38z m-3825 -92 c-2 -14 -8 -25 -12 -25 -5 0 -11 -10 -13
-22 -4 -20 -4 -19 -6 5 0 15 3 27 8 27 5 0 11 9 14 20 7 29 15 25 9 -5z m-85
-42 c-3 -10 -5 -2 -5 17 0 19 2 27 5 18 2 -10 2 -26 0 -35z m20 -65 c-3 -8 -6
-5 -6 6 -1 11 2 17 5 13 3 -3 4 -12 1 -19z m17 -55 c-12 -49 -25 -72 -19 -34
3 18 5 40 5 47 0 8 5 14 10 14 6 0 8 -11 4 -27z m3153 -69 c-3 -3 -12 -4 -19
-1 -8 3 -5 6 6 6 11 1 17 -2 13 -5z m-572 -169 c20 -19 25 -34 25 -75 0 -28
-7 -64 -15 -81 -13 -25 -20 -28 -43 -23 -40 10 -44 14 -38 39 7 29 -10 43 -19
15 -8 -24 -23 -26 -32 -3 -4 11 1 22 15 31 13 8 22 25 22 39 0 38 28 82 53 83
4 0 19 -11 32 -25z m65 -94 c0 -6 -4 -13 -10 -16 -5 -3 -10 1 -10 9 0 9 5 16
10 16 6 0 10 -4 10 -9z m3665 -7 c14 4 27 0 35 -9 7 -8 21 -15 32 -15 15 0 19
-6 16 -27 -3 -31 -26 -40 -110 -42 l-48 -1 0 48 c0 57 5 65 32 51 11 -6 30 -8
43 -5z m-3855 -166 c0 -5 -4 -8 -10 -8 -5 0 -10 10 -10 23 0 18 2 19 10 7 5
-8 10 -18 10 -22z m3894 16 c3 -8 2 -13 -3 -10 -4 3 -22 0 -39 -6 -34 -13 -61
-1 -48 21 11 17 83 14 90 -5z m-3777 -26 c-3 -7 -5 -2 -5 12 0 14 2 19 5 13 2
-7 2 -19 0 -25z m96 25 c-7 -3 -13 -12 -14 -21 0 -11 -2 -12 -6 -4 -2 6 -14
12 -26 12 -18 0 -19 -2 -7 -10 9 -6 10 -10 3 -10 -14 0 -26 17 -19 28 2 4 22
8 43 9 21 0 32 -2 26 -4z m-170 -18 c-3 -9 -8 -14 -10 -11 -3 3 -2 9 2 15 9
16 15 13 8 -4z m37 3 c0 6 5 12 11 12 8 0 8 -5 -1 -15 -17 -20 -30 -19 -30 3
0 14 2 15 10 2 6 -10 10 -11 10 -2z m1206 -47 c8 14 11 13 25 -2 15 -15 14
-16 -15 -15 -25 1 -31 6 -33 26 l-2 25 8 -25 c6 -21 9 -22 17 -9z m104 -2 c0
-10 -4 -19 -9 -19 -5 0 -8 11 -8 25 0 13 3 22 8 19 5 -3 9 -14 9 -25z m33 11
c3 -11 1 -23 -4 -26 -5 -3 -9 6 -9 20 0 31 6 34 13 6z m119 -5 c3 -14 1 -28
-3 -31 -5 -3 -9 9 -9 25 0 38 6 40 12 6z m682 -28 c7 -6 6 -7 -4 -4 -8 2 -16
14 -17 28 -1 19 -1 20 4 4 3 -11 10 -24 17 -28z m76 3 c5 0 10 9 10 20 0 11 7
20 15 20 8 0 15 -4 15 -10 0 -5 -5 -10 -11 -10 -8 0 -8 -4 -1 -13 9 -10 4 -13
-21 -12 -27 0 -32 4 -34 25 -3 25 -3 25 7 3 5 -13 14 -23 20 -23z m67 3 c-3
-10 -5 -4 -5 12 0 17 2 24 5 18 2 -7 2 -21 0 -30z m31 12 c-1 -14 -6 -25 -10
-25 -4 0 -7 11 -6 25 1 14 6 25 10 25 4 0 7 -11 6 -25z m-146 -7 c-7 -7 -12
-8 -12 -2 0 14 12 26 19 19 2 -3 -1 -11 -7 -17z m191 15 c-7 -2 -13 -12 -13
-21 0 -12 -3 -13 -11 -5 -14 14 -3 33 19 32 11 0 12 -3 5 -6z m64 -18 c1 -16
1 -16 -3 -2 -3 9 -10 17 -15 17 -6 0 -7 -4 -4 -10 3 -5 1 -10 -4 -10 -6 0 -11
7 -11 16 0 23 34 13 37 -11z m40 5 c-1 -11 -5 -20 -9 -20 -11 0 -20 19 -13 30
11 17 24 11 22 -10z m33 -2 c0 -16 -3 -19 -11 -11 -6 6 -8 16 -5 22 11 17 16
13 16 -11z m-1225 2 c3 -5 1 -10 -4 -10 -6 0 -11 5 -11 10 0 6 2 10 4 10 3 0
8 -4 11 -10z m2397 -42 c-10 -10 -10 -8 -2 37 1 6 4 2 7 -9 3 -10 0 -23 -5
-28z m98 22 c0 -5 -2 -10 -4 -10 -3 0 -8 5 -11 10 -3 6 -1 10 4 10 6 0 11 -4
11 -10z m40 2 c0 -5 -7 -9 -15 -9 -8 0 -12 4 -9 9 3 4 9 8 15 8 5 0 9 -4 9 -8z
m-113 -24 c-3 -8 -6 -5 -6 6 -1 11 2 17 5 13 3 -3 4 -12 1 -19z m123 -4 c0 -8
-19 -13 -24 -6 -3 5 1 9 9 9 8 0 15 -2 15 -3z"/>
<path d="M2942 9490 c0 -14 2 -19 5 -12 2 6 2 18 0 25 -3 6 -5 1 -5 -13z"/>
<path d="M2932 9430 c0 -14 2 -19 5 -12 2 6 2 18 0 25 -3 6 -5 1 -5 -13z"/>
<path d="M2822 6935 c0 -16 2 -22 5 -12 2 9 2 23 0 30 -3 6 -5 -1 -5 -18z"/>
<path d="M2807 6622 c-5 -112 -7 -206 -4 -208 7 -7 19 289 15 356 -1 30 -7
-36 -11 -148z"/>
<path d="M5347 9119 c4 -13 8 -18 11 -10 2 7 -1 18 -6 23 -8 8 -9 4 -5 -13z"/>
<path d="M5483 9105 c-3 -9 -3 -18 -1 -21 3 -3 8 4 11 16 6 23 -1 27 -10 5z"/>
<path d="M5410 9071 c0 -5 5 -13 10 -16 6 -3 10 -2 10 4 0 5 -4 13 -10 16 -5
3 -10 2 -10 -4z"/>
<path d="M5291 7644 c0 -11 3 -14 6 -6 3 7 2 16 -1 19 -3 4 -6 -2 -5 -13z"/>
<path d="M5302 7600 c0 -14 2 -19 5 -12 2 6 2 18 0 25 -3 6 -5 1 -5 -13z"/>
<path d="M5340 7580 c0 -5 5 -10 10 -10 6 0 10 5 10 10 0 6 -4 10 -10 10 -5 0
-10 -4 -10 -10z"/>
<path d="M5351 7374 c0 -11 3 -14 6 -6 3 7 2 16 -1 19 -3 4 -6 -2 -5 -13z"/>
<path d="M4953 7830 c-13 -5 -23 -15 -23 -22 0 -9 3 -9 12 0 7 7 26 12 43 11
16 0 24 -3 18 -6 -21 -8 -15 -26 7 -20 11 3 20 0 20 -6 0 -7 6 -1 14 13 7 14
11 28 9 33 -6 10 -73 8 -100 -3z"/>
<path d="M5001 7693 c-10 -26 -10 -27 4 -9 8 11 15 23 15 28 0 15 -7 8 -19
-19z"/>
<path d="M5988 7763 c17 -7 15 -43 -2 -43 -8 0 -16 5 -18 12 -5 13 -38 4 -38
-11 0 -5 14 -14 31 -20 39 -13 42 -14 34 -1 -3 6 -1 10 4 10 6 0 11 -4 11 -9
0 -6 12 -6 30 0 17 6 30 15 30 20 0 19 -41 49 -67 48 -16 0 -22 -3 -15 -6z"/>
<path d="M4580 7459 c0 -5 5 -7 10 -4 6 3 10 8 10 11 0 2 -4 4 -10 4 -5 0 -10
-5 -10 -11z"/>
<path d="M4121 7606 c-7 -8 -14 -24 -16 -36 l-4 -23 24 23 c14 13 25 18 25 12
0 -7 -4 -12 -10 -12 -5 0 -10 -4 -10 -10 0 -11 49 -14 74 -4 19 7 21 30 4 37
-7 3 -3 6 10 6 12 1 22 6 22 11 0 16 -106 12 -119 -4z"/>
<path d="M6576 7554 c-22 -21 -20 -27 4 -14 11 6 20 15 20 20 0 14 -6 12 -24
-6z"/>
<path d="M6411 7364 c0 -11 3 -14 6 -6 3 7 2 16 -1 19 -3 4 -6 -2 -5 -13z"/>
<path d="M3623 7618 c2 -8 -10 -18 -27 -24 l-31 -12 31 1 c17 0 36 -3 43 -7
12 -8 41 10 41 24 0 6 -44 30 -56 30 -3 0 -4 -6 -1 -12z"/>
<path d="M3606 7443 c-6 -14 -5 -15 5 -6 7 7 10 15 7 18 -3 3 -9 -2 -12 -12z"/>
<path d="M7310 6991 c0 -5 5 -13 10 -16 6 -3 10 -2 10 4 0 5 -4 13 -10 16 -5
3 -10 2 -10 -4z"/>
<path d="M4321 7034 c0 -11 3 -14 6 -6 3 7 2 16 -1 19 -3 4 -6 -2 -5 -13z"/>
<path d="M4570 7003 c0 -6 11 -25 25 -41 14 -17 25 -36 26 -43 0 -8 4 -5 9 6
13 29 12 35 -5 29 -9 -4 -22 6 -35 28 -11 18 -20 28 -20 21z"/>
<path d="M4361 6916 c-8 -9 -11 -19 -7 -23 9 -9 29 13 24 27 -2 8 -8 7 -17 -4z"/>
<path d="M4316 6843 c-6 -14 -5 -15 5 -6 7 7 10 15 7 18 -3 3 -9 -2 -12 -12z"/>
<path d="M4349 6773 c-3 -18 -2 -38 2 -45 14 -22 20 -2 11 38 l-8 39 -5 -32z"/>
<path d="M5440 6500 c0 -5 9 -10 20 -10 11 0 20 5 20 10 0 6 -9 10 -20 10 -11
0 -20 -4 -20 -10z"/>
<path d="M5440 6460 c0 -16 27 -23 48 -11 13 7 22 7 30 -1 9 -9 12 -8 12 5 0
13 -9 17 -45 17 -25 0 -45 -5 -45 -10z"/>
<path d="M5105 6500 c-4 -6 5 -10 20 -10 15 0 24 4 20 10 -3 6 -12 10 -20 10
-8 0 -17 -4 -20 -10z"/>
<path d="M5113 6455 c11 -7 26 -11 34 -8 12 5 12 7 1 14 -7 5 -22 9 -33 9 -19
-1 -19 -1 -2 -15z"/>
<path d="M5975 6436 c11 -8 23 -12 28 -9 13 8 -3 23 -26 23 -20 0 -20 0 -2
-14z"/>
<path d="M4900 6255 c0 -37 3 -45 18 -45 39 0 55 45 26 74 -29 30 -44 20 -44
-29z"/>
<path d="M5404 6236 c-9 -23 0 -51 16 -51 10 0 16 12 18 33 2 24 -1 32 -13 32
-8 0 -18 -6 -21 -14z"/>
<path d="M5060 6211 c0 -18 17 -20 36 -6 18 14 18 14 -8 15 -16 0 -28 -4 -28
-9z"/>
<path d="M5880 6210 c0 -21 4 -30 13 -27 6 2 12 14 12 27 0 13 -6 25 -12 28
-9 2 -13 -7 -13 -28z"/>
<path d="M6335 6230 c-3 -5 1 -10 10 -10 9 0 13 5 10 10 -3 6 -8 10 -10 10 -2
0 -7 -4 -10 -10z"/>
<path d="M8118 3503 c7 -3 16 -2 19 1 4 3 -2 6 -13 5 -11 0 -14 -3 -6 -6z"/>
<path d="M3321 5704 c0 -11 3 -14 6 -6 3 7 2 16 -1 19 -3 4 -6 -2 -5 -13z"/>
<path d="M3836 5725 c-8 -21 1 -35 20 -35 10 0 14 8 12 22 -4 27 -23 34 -32
13z"/>
<path d="M3603 5724 c-7 -18 17 -38 31 -24 11 11 1 40 -14 40 -6 0 -13 -7 -17
-16z"/>
<path d="M3697 5716 c-6 -16 16 -40 26 -29 4 3 7 15 7 25 0 21 -25 24 -33 4z"/>
<path d="M6266 5649 c-37 -29 -33 -37 16 -36 48 2 64 28 30 46 -16 8 -26 6
-46 -10z m54 -19 c0 -5 -4 -10 -9 -10 -6 0 -13 5 -16 10 -3 6 1 10 9 10 9 0
16 -4 16 -10z"/>
<path d="M6482 5628 c2 -12 10 -23 18 -23 22 0 19 39 -3 43 -15 3 -18 -1 -15
-20z"/>
<path d="M3627 5050 c-3 -11 -1 -20 4 -20 5 0 9 9 9 20 0 11 -2 20 -4 20 -2 0
-6 -9 -9 -20z"/>
<path d="M3658 5044 c3 -15 8 -22 14 -16 9 9 1 42 -12 42 -4 0 -5 -12 -2 -26z"/>
<path d="M3910 4485 c0 -8 9 -15 20 -15 11 0 20 7 20 15 0 8 -9 15 -20 15 -11
0 -20 -7 -20 -15z"/>
<path d="M3475 4490 c-3 -5 0 -10 7 -10 10 0 9 -3 -2 -10 -18 -11 -7 -25 14
-17 9 4 12 14 9 26 -6 23 -18 27 -28 11z"/>
<path d="M3583 4476 c0 -14 3 -26 8 -26 11 0 11 21 0 39 -6 9 -8 5 -8 -13z"/>
<path d="M5104 4465 c-18 -14 -18 -14 9 -15 17 0 27 5 27 15 0 19 -11 19 -36
0z"/>
<path d="M5090 4420 c0 -5 11 -10 25 -10 14 0 25 5 25 10 0 6 -11 10 -25 10
-14 0 -25 -4 -25 -10z"/>
<path d="M5185 4440 c-8 -13 14 -42 26 -34 5 3 9 14 9 25 0 20 -24 26 -35 9z"/>
<path d="M5743 4414 c-8 -21 13 -42 28 -27 13 13 5 43 -11 43 -6 0 -13 -7 -17
-16z"/>
<path d="M3303 4050 c-1 -11 4 -20 13 -20 8 0 14 9 14 20 0 11 -6 20 -13 20
-7 0 -13 -9 -14 -20z"/>
<path d="M3527 4063 c-11 -10 -8 -43 3 -43 6 0 10 11 10 25 0 26 -2 29 -13 18z"/>
<path d="M3747 4040 c-6 -23 3 -32 22 -20 15 8 8 40 -8 40 -5 0 -11 -9 -14
-20z"/>
<path d="M4700 3458 c0 -36 4 -48 15 -48 22 0 38 37 25 58 -10 15 -10 14 -5
-5 3 -12 1 -25 -6 -29 -7 -4 -9 -3 -6 3 4 6 0 24 -8 39 l-15 29 0 -47z"/>
<path d="M4855 3480 c-4 -6 -4 -14 -1 -17 3 -4 6 0 6 8 0 11 2 11 10 -1 5 -8
10 -22 10 -30 0 -12 -2 -12 -9 -2 -7 11 -9 11 -14 -1 -3 -7 -1 -20 4 -28 11
-18 41 -1 45 24 1 9 -2 15 -7 11 -5 -3 -8 5 -6 18 2 24 -26 38 -38 18z"/>
<path d="M5470 3455 c-7 -9 -11 -17 -8 -20 2 -2 12 4 21 15 9 11 13 20 8 20
-5 0 -14 -7 -21 -15z"/>
<path d="M5500 3450 c-9 -6 -10 -10 -3 -10 6 0 15 5 18 10 8 12 4 12 -15 0z"/>
<path d="M5808 3425 c-4 -17 -1 -25 8 -25 8 0 14 11 14 25 0 14 -4 25 -9 25
-5 0 -11 -11 -13 -25z"/>
<path d="M3427 2553 c-12 -11 -8 -38 10 -62 l16 -24 19 23 c25 30 23 56 -4 64
-29 7 -33 7 -41 -1z"/>
<path d="M3370 1954 c-15 -37 -12 -70 6 -85 35 -29 70 27 48 79 -16 39 -41 41
-54 6z"/>
<path d="M7110 1718 c0 -4 6 -8 14 -8 8 0 17 4 20 8 2 4 -4 8 -15 8 -10 0 -19
-4 -19 -8z"/>
<path d="M1121 2914 c0 -11 3 -14 6 -6 3 7 2 16 -1 19 -3 4 -6 -2 -5 -13z"/>
</g>
</svg>
