<svg
    xmlns="http://www.w3.org/2000/svg"
    xmlns:xlink="http://www.w3.org/1999/xlink"
    version="1.1"
    id="Layer_1"
    x="0px"
    y="0px"
    viewBox="0 0 64 64"
    enable-background="new 0 0 64 64"
    xml:space="preserve"
    width="150px"
    height="150px"
>
    <g>
        <rect
            x="4"
            y="10"
            fill="#B4CCB9"
            width="56"
            height="42"
        />
        <rect
            x="8"
            y="14"
            fill="#394240"
            width="48"
            height="30"
        />
        <g>
            <path
                fill="#F76D57"
                d="M21.016,61.971c-0.553,0-1-0.448-1-1c0-0.553,0.447-1,1-1h21.969c0.553,0,1,0.447,1,1  c0,0.552-0.447,1-1,1H21.016z"
            />
            <path
                fill="#F76D57"
                d="M32,48.971c0.553,0,1,0.448,1,1v10c0,0.553-0.447,1-1,1s-1-0.447-1-1v-10   C31,49.418,31.447,48.971,32,48.971z"
            />
        </g>
        <g>
            <path
                fill="#231F20"
                d="M60,52.971H4c-0.553,0-1-0.448-1-1V10.971c0-2.211,1.789-4,4-4h50c2.211,0,4,1.789,4,4v41   C61,52.523,60.553,52.971,60,52.971z M5,50.971h54v-40c0-1.104-0.896-2-2-2H7c-1.104,0-2,0.896-2,2V50.971z"
            />
            <path
                fill="#231F20"
                d="M54,14.971H10c-0.553,0-1-0.448-1-1s0.447-1,1-1h44c0.553,0,1,0.448,1,1S54.553,14.971,54,14.971z"
            />
            <path
                fill="#231F20"
                d="M39.544,7.879c-0.256,0-0.512-0.098-0.707-0.293L32,0.748l-6.837,6.838c-0.391,0.391-1.023,0.391-1.414,0   s-0.391-1.023,0-1.414l7.544-7.544c0.391-0.391,1.023-0.391,1.414,0l7.544,7.544c0.391,0.391,0.391,1.023,0,1.414   C40.057,7.781,39.801,7.879,39.544,7.879z"
            />
            <path
                fill="#231F20"
                d="M42.985,62.971H21.016c-1.104,0-2-0.896-2-2s0.896-2,2-2h21.969c1.104,0,2,0.896,2,2S44.089,62.971,42.985,62.971   z M21.016,60.971c-0.553,0-1,0.448-1,1c0,0.553,0.447,1,1,1h21.969c0.553,0,1-0.447,1-1c0-0.552-0.447-1-1-1H21.016z"
            />
            <path
                fill="#231F20"
                d="M32,60.971c-1.104,0-2-0.896-2-2v-10c0-1.104,0.896-2,2-2s2,0.896,2,2v10C34,60.075,33.104,60.971,32,60.971z    M32,48.971c-0.553,0-1,0.448-1,1v10c0,0.553,0.447,1,1,1s1-0.447,1-1v-10C33,49.418,32.553,48.971,32,48.971z"
            />
        </g>
        <circle
            fill="#B4CCB9"
            cx="13"
            cy="20.971"
            r="2"
        />
        <circle
            fill="#B4CCB9"
            cx="13"
            cy="26.971"
            r="2"
        />
        <circle
            fill="#B4CCB9"
            cx="13"
            cy="32.971"
            r="2"
        />
        <circle
            fill="#B4CCB9"
            cx="13"
            cy="38.971"
            r="2"
        />
    </g>
</svg>
